<?xml version="1.0" encoding="UTF-8"?><svg id="a" xmlns="http://www.w3.org/2000/svg" xmlns:xlink="http://www.w3.org/1999/xlink" viewBox="0 0 833.36 1080.2"><defs><style>.af{stroke:url(#ac);}.af,.ag,.ah,.ai,.aj,.ak,.al,.am,.an,.ao,.ap,.aq,.ar,.as,.at,.au{fill:none;stroke-linecap:round;stroke-miterlimit:10;}.af,.ag,.ah,.aj,.ak,.al,.an,.ao,.aq,.as{stroke-width:3px;}.ag{stroke:url(#g);}.av{fill:url(#r);}.aw{fill:url(#y);}.ax{fill:url(#l);}.ah{stroke:url(#k);}.ai{stroke:url(#e);}.ai,.am,.ap,.ar,.at,.au{stroke-width:5px;}.ay{fill:url(#c);}.b`{fill:url(#v);}.aj{stroke:url(#h);}.ba{fill:url(#a`);}.ak{stroke:url(#j);}.al{stroke:url(#s);}.am{stroke:url(#m);}.an{stroke:url(#t);}.bb{fill:url(#ae);}.bc{fill:url(#p);}.bd{fill:url(#ad);}.be{fill:url(#b);}.ao{stroke:url(#ab);}.ap{stroke:url(#u);}.aq{stroke:url(#i);}.bf{fill:url(#d);}.ar{stroke:url(#o);}.bg{fill:url(#x);}.as{stroke:url(#f);}.bh{fill:#1d442e;}.at{stroke:url(#aa);}.bi{fill:url(#n);}.bj{fill:url(#w);}.au{stroke:url(#q);}.bk{fill:#1b3826;}</style><linearGradient id="b" x1="445.81" y1="468.79" x2="445.81" y2="398.06" gradientTransform="matrix(1, 0, 0, 1, 0, 0)" gradientUnits="userSpaceOnUse"><stop offset="0" stop-color="#a67d12"/><stop offset=".24" stop-color="#bf9b2e"/><stop offset=".48" stop-color="#ffcf43"/><stop offset=".76" stop-color="#bf9b2e"/><stop offset="1" stop-color="#a67d12"/></linearGradient><linearGradient id="c" x1="445.65" y1="365.75" x2="445.65" y2="287.61" gradientTransform="matrix(1, 0, 0, 1, 0, 0)" gradientUnits="userSpaceOnUse"><stop offset="0" stop-color="#a67d12"/><stop offset=".24" stop-color="#bf9b2e"/><stop offset=".48" stop-color="#ffcf43"/><stop offset=".76" stop-color="#bf9b2e"/><stop offset="1" stop-color="#a67d12"/></linearGradient><linearGradient id="d" x1="441.5" y1="1021.6" x2="441.5" y2="1006.97" gradientTransform="translate(1455.78 572.79) rotate(90)" gradientUnits="userSpaceOnUse"><stop offset="0" stop-color="#a67d12"/><stop offset=".24" stop-color="#bf9b2e"/><stop offset=".41" stop-color="#bf9b2e"/><stop offset=".49" stop-color="#c39e2f"/><stop offset=".58" stop-color="#d0a833"/><stop offset=".68" stop-color="#e5ba3a"/><stop offset=".76" stop-color="#ffcf43"/><stop offset="1" stop-color="#a67d12"/></linearGradient><linearGradient id="e" x1="439.96" y1="1037.87" x2="439.96" y2="913.68" gradientTransform="matrix(1, 0, 0, 1, 0, 0)" gradientUnits="userSpaceOnUse"><stop offset="0" stop-color="#a67d12"/><stop offset=".25" stop-color="#bf9b2e"/><stop offset=".5" stop-color="#fcbe0c"/><stop offset=".75" stop-color="#bf9b2e"/><stop offset="1" stop-color="#a67d12"/></linearGradient><linearGradient id="f" x1="263.55" y1="1053.79" x2="263.55" y2="960.15" gradientTransform="translate(401.78) rotate(-180) scale(1 -1)" gradientUnits="userSpaceOnUse"><stop offset="0" stop-color="#a67d12"/><stop offset=".1" stop-color="#fcbe0c"/><stop offset=".21" stop-color="#bf9b2e"/><stop offset=".75" stop-color="#bf9b2e"/><stop offset=".84" stop-color="#bb9629"/><stop offset=".94" stop-color="#b0891d"/><stop offset="1" stop-color="#a67d12"/></linearGradient><linearGradient id="g" x1="270.19" y1="1066.24" x2="270.19" y2="962.1" gradientTransform="translate(401.78) rotate(-180) scale(1 -1)" gradientUnits="userSpaceOnUse"><stop offset="0" stop-color="#a67d12"/><stop offset=".18" stop-color="#fcbe0c"/><stop offset=".36" stop-color="#bf9b2e"/><stop offset=".75" stop-color="#bf9b2e"/><stop offset=".84" stop-color="#bb9629"/><stop offset=".94" stop-color="#b0891d"/><stop offset="1" stop-color="#a67d12"/></linearGradient><linearGradient id="h" x1="647.97" y1="633.68" x2="647.97" y2="540.04" gradientTransform="translate(786.2 659.14) rotate(-180)" xlink:href="#f"/><linearGradient id="i" x1="654.61" y1="646.81" x2="654.61" y2="542.67" gradientTransform="translate(786.2 659.14) rotate(-180)" xlink:href="#g"/><linearGradient id="j" x1="752.5" y1="502.59" x2="752.5" y2="408.96" gradientTransform="translate(0 528.06) scale(1 -1)" xlink:href="#f"/><linearGradient id="k" x1="759.14" y1="515.72" x2="759.14" y2="411.59" gradientTransform="translate(0 528.06) scale(1 -1)" xlink:href="#g"/><linearGradient id="l" x1="440.15" y1="597.28" x2="440.15" y2="582.66" gradientTransform="translate(1030.12 495.04) rotate(-90) scale(1 -1)" xlink:href="#d"/><linearGradient id="m" x1="438.61" y1="155.5" x2="438.61" y2="31.3" xlink:href="#e"/><linearGradient id="n" x1="1069.44" y1="862.53" x2="1069.44" y2="847.91" gradientTransform="translate(1637.45 1637.45) rotate(-90) scale(1 -1)" xlink:href="#d"/><linearGradient id="o" x1="728.11" y1="534.59" x2="808.55" y2="534.59" gradientTransform="matrix(1, 0, 0, 1, 0, 0)" gradientUnits="userSpaceOnUse"><stop offset="0" stop-color="#a67d12"/><stop offset=".25" stop-color="#bf9b2e"/><stop offset=".5" stop-color="#fcbe0c"/><stop offset=".75" stop-color="#bf9b2e"/><stop offset="1" stop-color="#a67d12"/></linearGradient><linearGradient id="p" x1="1069.44" y1="-427.59" x2="1069.44" y2="-442.22" gradientTransform="translate(-315.31 -501.44) rotate(90)" xlink:href="#d"/><linearGradient id="q" x1="173.71" y1="534.59" x2="93.27" y2="534.59" xlink:href="#o"/><linearGradient id="r" x1="208.75" y1="705.44" x2="684.84" y2="705.44" xlink:href="#c"/><linearGradient id="s" x1="313.65" y1="1053.79" x2="313.65" y2="960.15" gradientTransform="translate(438.85)" xlink:href="#f"/><linearGradient id="t" x1="320.29" y1="1066.24" x2="320.29" y2="962.1" gradientTransform="translate(438.85)" xlink:href="#g"/><linearGradient id="u" x1="-670.39" y1="43.06" x2="-626.72" y2="43.06" gradientTransform="translate(676.44 1055.32) scale(1 -1)" gradientUnits="userSpaceOnUse"><stop offset="0" stop-color="#a67d13"/><stop offset=".25" stop-color="#bf9b2e"/><stop offset=".5" stop-color="#fcbe11"/><stop offset=".75" stop-color="#bf9b2e"/><stop offset="1" stop-color="#a67d13"/></linearGradient><linearGradient id="v" x1="-648.72" y1="20.02" x2="-648.72" y2="31.73" gradientTransform="translate(676.44 1055.32) scale(1 -1)" gradientUnits="userSpaceOnUse"><stop offset="0" stop-color="#a67d13"/><stop offset=".24" stop-color="#bf9b2e"/><stop offset=".41" stop-color="#bf9b2e"/><stop offset=".49" stop-color="#c39e2f"/><stop offset=".58" stop-color="#d1a933"/><stop offset=".68" stop-color="#e5ba3a"/><stop offset=".76" stop-color="#ffcf46"/><stop offset="1" stop-color="#a67d13"/></linearGradient><linearGradient id="w" x1="-636.27" y1="18.88" x2="-636.27" y2="30.63" xlink:href="#v"/><linearGradient id="x" x1="-661.26" y1="22.65" x2="-661.26" y2="34.32" xlink:href="#v"/><linearGradient id="y" x1="-661.46" y1="87.56" x2="-636.31" y2="87.56" xlink:href="#v"/><linearGradient id="a`" x1="-656.32" y1="72.66" x2="-641.17" y2="72.66" xlink:href="#v"/><linearGradient id="aa" x1="-648.86" y1="117.99" x2="-648.86" y2="230.64" gradientTransform="translate(676.44 1055.32) scale(1 -1)" gradientUnits="userSpaceOnUse"><stop offset="0" stop-color="#a67d13"/><stop offset=".24" stop-color="#c9a12a"/><stop offset=".48" stop-color="#fcbe11"/><stop offset=".69" stop-color="#bf9b2e"/><stop offset="1" stop-color="#a67d13"/></linearGradient><linearGradient id="ab" x1="-671.47" y1="194.87" x2="-671.47" y2="1039.73" xlink:href="#u"/><linearGradient id="ac" x1="-627.04" y1="191.5" x2="-627.04" y2="1046.88" xlink:href="#u"/><linearGradient id="ad" x1="-648.67" y1="97.31" x2="-648.67" y2="125.74" gradientTransform="translate(676.44 1055.32) scale(1 -1)" gradientUnits="userSpaceOnUse"><stop offset="0" stop-color="#a67d13"/><stop offset=".24" stop-color="#bf9b2e"/><stop offset=".53" stop-color="#ffcf46"/><stop offset=".79" stop-color="#bf9b2e"/><stop offset="1" stop-color="#a67d13"/></linearGradient><linearGradient id="ae" x1="19.1" y1="412.2" x2="36.92" y2="412.2" gradientTransform="matrix(1, 0, 0, 1, 0, 0)" xlink:href="#ad"/></defs><g><rect class="bh" x="55.13" y=".2" width="778.24" height="1080"/><g><path class="be" d="M286.98,405.06c-1.27-.88-2.73-1.46-4.29-1.17h-1.07c-1.95,0-2.53-.68-2.53-2.34,0-1.75,.88-2.73,2.63-2.53,3.41,.29,6.82,.19,10.33,.19,1.95,0,3.99,.39,5.85,.1,2.73-.49,5.36,.19,7.99,.19,2.53,.1,5.07-.49,7.6-.29,1.66,.19,3.31,.39,5.07,.58,1.27,.1,2.63,.19,3.99,.39,4.87,.29,10.62,1.27,14.71,3.99,2.83,1.56,4.38,4.38,5.75,7.21,.1,.1,.19,.29,.1,.39-.1,1.36,.39,2.73,.29,3.99-.29,5.55-1.17,10.72-7.02,13.15-1.17,.49-2.34,.97-3.6,1.46-.49,.19-1.07,.49-.97,1.27,0,.68,.49,.78,1.07,1.07,.78,.29,1.56,.39,2.44,.58,2.73,.49,4.87,2.05,7.01,3.7,.58,.49,1.17,.97,1.85,1.46,1.85,1.46,2.63,3.7,4.09,5.46,.29,.49,.29,.97,.29,1.46,0,2.05,.1,3.99,0,6.04-.49,5.85-5.07,8.48-9.74,11.11-2.34,1.27-4.77,2.14-7.21,3.21-.19,.19-.49,.29-.78,.29-1.27-.1-2.44,.39-3.51,.49-2.24,0-4.29,.78-6.53,.68-1.46,0-2.92,.29-4.38,.19-1.56-.1-3.22,.58-4.77-.19-.19-.1-.58,0-.78,0-2.05,.58-4.19-.19-6.24,.1-1.85,.1-3.6,0-5.46-.1-3.21-.19-6.53-.19-9.74,.1-2.53,.19-5.16-.1-7.6,.49-1.27,.29-2.24-.58-2.63-2.05-.19-1.07,.49-2.14,1.56-2.53,1.17-.49,2.44-.29,3.7-.58,3.31-.97,5.16-2.34,5.16-5.94v-2.92c-.19-2.63,.19-5.26,.39-7.79,.19-2.44-.29-4.87-.1-7.31,.1-2.44,.19-4.87-.1-7.31-.19-1.85-.29-3.8-.19-5.65,.1-1.46,.49-2.92,.29-4.48-.39-2.73,.49-5.36,.29-8.09,0-.78,.49-1.46,.29-2.24-.19-2.53-1.36-4.48-3.51-5.85Zm15.88,50.86c.97,3.9,3.41,4.97,7.11,5.85,1.66,.39,3.22,0,4.77,.29,.58,.1,1.17,.19,1.75,.19,2.34,0,4.48-.78,6.82-.58,.1,0,.19-.1,.29-.19,2.63-.78,4.87-2.24,6.72-4.38,1.85-2.05,2.92-4.48,2.83-7.31,0-1.46-.88-5.46-1.66-6.43-2.24-3.02-4.48-6.14-8.48-7.11-2.53-.58-4.87-1.56-7.5-1.46-2.83,.1-5.55-.49-8.38-.29-.29,0-.49-.1-.78-.1-1.75-.29-3.12,.68-3.12,2.53-.1,1.66,0,3.41,0,5.07,0,.39,0,.88-.1,1.17-.58,2.14-.58,4.29-.49,6.43,0,2.14-.29,4.19,.19,6.33Zm6.92-50.27c-1.17,0-2.14,0-3.12,.39-1.07,.29-2.24,.78-2.44,2.14-.29,2.05-1.17,4.09-.49,6.24,.2,.68,.2,1.46,0,2.14-.49,2.05-.1,4.09-.19,6.14-.1,.68,.49,1.46,.19,2.14-.29,.97-.1,1.85-.19,2.83-.19,2.14,1.46,2.83,2.92,2.44,2.05-.58,4.19-.58,6.24-.78,2.44-.19,4.87,0,7.31-.29,2.24-.29,4.38-1.07,5.65-2.83,1.36-1.85,2.73-3.8,3.51-6.04,1.46-3.8,.49-7.5-2.63-10.03-4.48-3.41-11.3-4.48-16.76-4.48Z"/><path class="be" d="M393.67,468.39c-1.85-.1-3.7-.68-5.55-1.27-.97-.29-1.95-.1-2.92-.29-2.53-.78-9.45-3.22-11.2-4.68-1.36-1.07-3.02-1.66-4.19-3.02-2.34-2.53-4.19-5.46-5.55-8.57-.78-1.46-.88-3.12-1.46-4.68-1.27-3.41-1.46-7.02-1.56-10.62,0-.88,.29-1.56,.29-2.44,.19-2.44,.97-11.11,1.85-13.15,2.14-5.75,5.75-11.89,11.01-15.3,4.29-2.83,10.62-5.46,15.78-5.85,2.14-.1,4.29,0,6.43-.29,2.24-.29,4.48-.19,6.72,0,4.19,.39,12.76,3.31,15.78,6.33,.49,.39,.97,.78,1.66,.97,1.75,.68,3.21,1.85,4.38,3.41,.68,1.07,1.85,1.85,2.53,2.92,1.56,2.53,3.31,4.97,4.19,7.89,.39,1.07,1.17,1.95,1.36,3.12,.49,2.92,2.05,5.55,2.24,8.57,0,.1,.1,.19,0,.29-.29,2.24,.1,4.58-.39,6.92-.39,1.46-.2,3.02-.78,4.48-1.56,4.77-5.55,11.4-8.77,15.2-2.05,2.24-4.77,3.21-7.01,4.97-3.41,2.63-8.48,4.58-12.67,5.07-1.56,.19-3.12,.58-4.58,.29-2.63,.19-5.16-.29-7.6-.29Zm7.6-5.46c3.8,.39,7.21-.97,10.62-2.53,2.05-1.07,3.31-3.02,4.58-4.77,2.63-3.7,3.41-7.99,3.9-12.37,.39-3.31-.1-6.72,.29-10.13,.2-2.05,.2-4.19-.29-6.24-.58-2.44-1.07-4.87-2.05-7.11-.49-.88-.78-1.85-1.27-2.73-.97-2.24-1.66-4.68-3.21-6.62-2.24-2.83-5.26-4.48-8.38-5.85-2.53-1.17-7.6-1.36-10.62-1.36-2.63,0-5.16,.68-7.7,1.46-5.75,1.95-8.77,8.09-10.52,13.54-1.07,3.6-2.34,7.11-2.05,10.91,.1,1.17-.58,2.44-.19,3.51,.68,2.24,.1,4.38,.49,6.63,.39,2.63,.29,5.36,1.46,7.99,1.27,3.22,3.7,5.85,5.07,9.06,0,.1,.19,.29,.39,.39,3.02,2.63,6.62,4.19,10.52,5.36,2.63,.78,5.46,.97,8.18,.88h.78Z"/><path class="be" d="M481.64,468.39c-1.85-.1-3.7-.68-5.55-1.27-.97-.29-1.95-.1-2.92-.29-2.53-.78-9.45-3.22-11.2-4.68-1.36-1.07-3.02-1.66-4.19-3.02-2.34-2.53-4.19-5.46-5.55-8.57-.78-1.46-.88-3.12-1.46-4.68-1.27-3.41-1.46-7.02-1.56-10.62,0-.88,.29-1.56,.29-2.44,.2-2.44,.97-11.11,1.85-13.15,2.14-5.75,5.75-11.89,11.01-15.3,4.29-2.83,10.62-5.46,15.78-5.85,2.14-.1,4.29,0,6.43-.29,2.24-.29,4.48-.19,6.72,0,4.19,.39,12.76,3.31,15.78,6.33,.49,.39,.97,.78,1.66,.97,1.75,.68,3.21,1.85,4.38,3.41,.68,1.07,1.85,1.85,2.53,2.92,1.56,2.53,3.31,4.97,4.19,7.89,.39,1.07,1.17,1.95,1.36,3.12,.49,2.92,2.05,5.55,2.24,8.57,0,.1,.1,.19,0,.29-.29,2.24,.1,4.58-.39,6.92-.39,1.46-.19,3.02-.78,4.48-1.56,4.77-5.55,11.4-8.77,15.2-2.05,2.24-4.77,3.21-7.01,4.97-3.41,2.63-8.48,4.58-12.67,5.07-1.56,.19-3.12,.58-4.58,.29-2.63,.19-5.16-.29-7.6-.29Zm7.6-5.46c3.8,.39,7.21-.97,10.62-2.53,2.05-1.07,3.31-3.02,4.58-4.77,2.63-3.7,3.41-7.99,3.9-12.37,.39-3.31-.1-6.72,.29-10.13,.19-2.05,.19-4.19-.29-6.24-.58-2.44-1.07-4.87-2.05-7.11-.49-.88-.78-1.85-1.27-2.73-.97-2.24-1.66-4.68-3.22-6.62-2.24-2.83-5.26-4.48-8.38-5.85-2.53-1.17-7.6-1.36-10.62-1.36-2.63,0-5.16,.68-7.7,1.46-5.75,1.95-8.77,8.09-10.52,13.54-1.07,3.6-2.34,7.11-2.05,10.91,.1,1.17-.58,2.44-.2,3.51,.68,2.24,.1,4.38,.49,6.63,.39,2.63,.29,5.36,1.46,7.99,1.27,3.22,3.7,5.85,5.07,9.06,0,.1,.2,.29,.39,.39,3.02,2.63,6.62,4.19,10.52,5.36,2.63,.78,5.46,.97,8.18,.88h.78Z"/><path class="be" d="M558.32,399.61c.88,0,1.75-.1,2.63,.19,.58,.19,1.27,.1,1.95-.1,.97-.29,2.05-.1,3.12-.1,.29,0,.49,0,.68,.29,.68,.97,.58,1.95,.19,3.12-.29,.97-.97,1.17-1.85,1.17-1.56-.1-2.92,.49-4.38,1.17-1.95,.78-2.73,3.6-2.73,5.55-.2,1.46-.29,3.02-.29,4.58,.1,2.83-.29,5.65,.1,8.57,.29,1.56,.39,3.21,.2,4.87-.2,.78-.1,1.46,0,2.24,0,1.07,.68,1.36,1.56,.88,.49-.29,1.07-.58,1.46-1.07,1.17-1.07,2.34-2.24,3.6-3.31,1.66-1.56,3.41-2.92,4.97-4.58,1.07-1.17,2.53-1.85,3.7-3.02,1.95-2.05,4.48-3.41,6.53-5.26,2.05-1.85,4.09-3.7,5.94-5.85,.68-.78,1.56-1.56,2.53-2.14,.68-.39,1.27-.97,.97-1.85-.29-.97-1.07-1.17-1.95-1.07-.88,0-1.66-.1-2.53,.19-1.27,.39-1.95-.39-2.05-1.66,0-1.46,.78-2.53,2.44-2.53,4.87,.19,9.64-.49,14.52-.29,2.14,.1,4.19-.1,6.33,0,1.17,0,1.95,.88,2.05,2.05,0,1.17-.88,2.14-1.95,2.24-.88,0-1.75,.1-2.73,.19-2.92,.58-5.36,1.95-7.6,3.8-3.6,3.12-6.92,6.53-10.81,9.45-1.66,1.27-3.31,2.83-4.97,4.29-1.07,.88-2.14,1.85-3.41,2.53-1.36,.58-1.75,1.85-.68,3.02,1.85,1.85,3.12,4.29,5.16,6.14,1.17,1.17,2.05,2.53,3.12,3.8,2.05,2.24,3.8,4.77,5.85,7.01,1.27,1.46,2.44,3.22,3.6,4.87,.88,1.46,7.5,10.33,8.77,11.4,1.56,1.27,3.12,2.14,5.07,2.14,.49,0,1.07,0,1.66-.2,.49-.1,.97,0,1.46,0,1.56,.1,1.95,.49,1.95,2.05,0,.58,.1,1.17,0,1.75-.1,1.17-1.07,1.95-2.24,1.66-1.07-.29-2.14-.58-3.21-.58-.58,0-1.17,.1-1.75,.29-.78,.19-1.46-.39-2.24-.29-2.83,.29-5.65-.19-8.48,0-2.44,.19-4.19-1.07-5.55-2.92-1.17-1.66-2.53-3.21-3.8-4.87-.39-.49-.78-.97-.97-1.46-.39-.97-.88-1.75-1.85-2.34-.97-.49-1.17-1.66-1.85-2.44-.49-.58-.97-1.27-1.56-1.85-.19-.19-.49-.39-.58-.58-.88-2.44-3.02-3.7-4.29-5.65-1.75-2.63-3.8-4.87-5.75-7.31-.58-.78-.97-1.56-1.66-2.24-.49-.58-.97-.78-1.46-.78-1.07,0-3.41,2.14-4.09,2.92-.58,.68-1.27,1.17-2.05,1.66-1.27,.68-1.46,1.36-1.27,2.92,.1,.88,.1,1.85,0,2.83-.29,1.66-.49,3.31-.58,4.97v7.21c0,2.05,.88,3.12,2.73,3.9,1.27,.58,2.73,.88,4.09,1.17,1.07,.2,1.56,.68,1.56,1.75,.2,2.92-.19,3.41-3.21,3.12-1.07-.1-2.05-.19-3.12-.19-.68,0-1.27,0-1.95,.19-.88,.19-1.95-.58-2.92-.29-1.07,.39-2.05,.29-3.12,.29h-5.85c-1.66,0-3.31,.1-4.87,0-1.07-.1-2.05,.39-3.12,.29-1.46,0-2.14-.49-2.24-1.85-.1-1.36,.68-2.63,1.95-2.73,1.46,0,2.73-.58,4.09-.88,2.53-.68,2.63-.97,2.92-3.6,.2-1.95,.49-3.9,.39-5.94-.1-.97,.39-1.95,.29-2.92-.29-3.9,.1-7.79,0-11.69-.1-1.46,.1-3.02-.29-4.58-.29-1.27,.29-2.53,.29-3.8v-8.87c0-.88-.1-1.75,.2-2.53,.19-.58,.19-1.27,0-1.75-.2-.49-.29-1.07-.2-1.56,.2-2.05-.19-3.99-.68-6.04-.58-2.44-2.05-4.09-4.87-3.99h-1.07c-2.73-.2-2.73-.78-3.02-2.92-.1-1.75,.49-2.24,2.24-2.24,3.61-.1,7.31,0,10.91,0,3.31,0,6.62-.1,9.94,0Z"/></g><g><path class="ay" d="M254.35,319.96c-.19,.88,.39,1.75,.29,2.63v20.65c.39,1.75,.39,3.6,.39,5.36,0,2.24,1.75,3.99,4.38,4.58,1.56,.39,3.12,.68,4.77,.97,1.85,.29,2.63,1.17,2.53,3.02-.1,1.07-.49,1.56-1.46,1.56-3.31-.1-6.62,.29-9.84-.29h-21.53c-.88,0-1.75,.39-2.63,.29-1.17,0-1.75-.58-1.95-1.85-.1-.88,.58-1.95,1.46-2.14,1.36-.19,2.83-.39,4.19-.58,2.34-.29,4.48-1.07,5.75-3.21,.78-1.36,1.27-2.73,.97-4.38-.19-1.56-.29-3.31,.19-4.87,0-.29,0-.58-.1-.88-.29-.68-.1-1.36,.1-2.05,.29-.68,.49-1.36,.29-2.05-.39-2.24-.29-4.58,0-6.82,.1-.97,.19-2.05-.19-3.12-.58-1.36-.49-2.92-.29-4.29,.19-1.07,0-2.24,.49-3.21v-.19c-.39-2.14,.39-4.29,.29-6.43-.29-3.31,0-6.62-.29-9.84-.19-1.85-.19-3.6-.29-5.36,0-1.36-.39-1.75-1.75-1.75-.68-.1-1.27,.1-1.95,.29-1.75,.39-3.6,.29-5.36,.29-1.17,0-2.24-.2-3.41,.19-.29,.1-.58,.1-.88,0-.58-.19-1.17-.29-1.75-.29-4.68,0-7.5,7.7-8.18,11.5l-.29,1.17c-.29,1.17-.97,1.66-1.95,1.56-1.07-.19-1.66-.78-1.75-1.95-.1-1.36,.19-2.73,.39-3.99,.19-1.46,.19-2.92,.19-4.29-.1-2.63,.29-5.26,.29-7.79,.1-1.17,.58-1.46,1.75-1.66,1.17-.1,2.14,.39,3.31,.39,6.14-.1,12.37-.1,18.61,0,1.07,0,2.14-.58,3.21-.39,2.05,.39,4.09,0,6.04,0,6.14,0,12.28,.1,18.32,0,2.24,0,4.38-.39,6.62-.29,1.36,.1,2.83,.19,4.29-.19,.39-.19,.88-.1,1.27-.1,1.07,.1,1.56,.58,1.56,1.66v2.73c-.19,3.51,.39,7.11,.29,10.72,0,1.07,.29,2.14,.49,3.22,.19,1.17,0,1.85-.88,2.14-.78,.29-1.75-.1-2.14-.97-.49-.88-.88-1.85-1.17-2.73-.97-3.21-2.73-6.14-4.19-9.06-.58-1.07-1.46-1.56-2.73-1.56-2.44,0-4.87-.1-7.31,0-2.05,.1-3.99-.29-5.94-.29-1.56,0-2.24,.68-2.24,2.14v17.54c0,1.46,.19,2.83-.29,4.29Z"/><path class="ay" d="M411.98,362.04c-.1,.19-.19,.29-.39,.39-.78,.78-2.14,.78-3.12,1.07-1.27,.29-2.44,.39-3.61,.78-1.75,.39-3.51,.68-5.36,.78-1.95,0-3.99,.39-6.04,.68-.29,0-.58,0-.97-.1-.97-.1-2.05,0-3.02-.19-2.34-.29-4.68-.1-7.01-.39-3.9-.49-7.79-1.27-11.59-2.44-3.21-1.36-6.62-2.34-9.45-4.58-1.75-1.46-3.8-2.53-5.65-3.8-3.7-2.63-7.31-5.46-11.01-8.18-.1-.1-.29-.19-.39-.39-1.56-2.14-3.7-3.6-5.55-5.46-4.48-4.87-11.3-8.38-17.93-8.57-1.66,0-3.22-.49-4.77-.78-2.05-.39-3.02,.49-2.53,2.44,.19,.97,.29,1.95,0,2.92-.19,.39-.1,.78-.1,1.17,.19,3.7-.39,7.4,.58,11.01,.1,.39,0,.78,0,1.27,0,3.21,4.38,4.38,7.02,4.38,1.56,.1,1.95,.49,2.05,1.95v.97c-.1,1.27-.58,2.05-1.85,1.95-2.34-.1-4.58,.29-6.92,.39-1.56,0-3.12-.19-4.77,.19-.97,.29-1.95-.19-2.92-.19-1.46-.1-3.02-.1-4.48,0-2.24,0-4.38-.19-6.53-.58-.39-.1-.78,0-1.17,.1-1.75,.49-2.24,0-2.73-1.66-.78-2.83,.88-4.38,3.31-3.9,3.12,.49,5.85-2.05,5.75-5.55-.1-2.92,0-5.85,0-8.87v-8.57c0-.68-.1-1.36,.19-2.05,.1-.39,.1-.88,0-1.36-.49-2.05-.39-4.19-.19-6.24,.49-4.48,.1-8.96,.29-13.44,0-.39,0-.78,.1-1.17,.29-.97,.19-1.95-.1-2.92-.1-.49-.39-.88-.29-1.36,.19-1.66-.78-2.83-1.85-3.8-1.27-1.17-2.73-1.85-4.38-2.24-.39-.1-.68,0-.97,.1-1.17,.29-2.05-.49-2.14-1.66v-1.36c0-1.36,.49-1.85,1.95-1.75,.97,0,1.85,.19,2.83,.29,1.46,.2,2.83,0,4.19-.29,.88-.1,1.85-.1,2.73,.1,1.36,.29,2.73,.1,4.09,0,2.53-.19,4.97-.29,7.5,.1,.78,.1,1.46,.1,2.24,0,.58-.19,1.07-.19,1.66-.19,.49,0,1.07,0,1.56,.19,.39,.1,.88,.19,1.36,.1,2.83-.49,5.55,.49,8.38,.29,.78,0,1.66,.49,2.44,.58,3.41,.29,6.82,.97,10.04,1.85,1.46,0,7.99,4.19,9.26,5.26,1.07,.88,3.12,6.72,3.31,8.09,.49,2.44,.88,4.87,.19,7.4-.68,2.83-1.95,5.46-4.48,7.31-.68,.49-1.27,1.07-1.85,1.75-.97,1.07-2.14,1.75-3.6,1.95-.1,0-7.99,1.85-8.18,1.95-.39,.19-1.07,.19-.97,.88,.1,.68,.49,.97,1.07,1.07,.78,.19,1.46,.39,2.14,.68,2.83,.97,5.36,2.53,7.6,4.48,3.41,3.12,6.92,6.04,10.72,8.67,1.36,.88,2.34,2.34,3.7,3.12,3.8,2.14,7.11,5.07,11.11,6.92,5.65,2.53,12.28,4.38,18.51,4.97,1.46,.19,3.02-.1,4.48,0,2.14,.1,4.38,0,6.62,0,1.75,0,3.6,0,5.46-.29,1.46-.1,3.02-.19,4.19,.78,.88,.78,.88,2.14,.29,3.02Zm-75.31-42.38c2.53-2.34,3.41-5.55,3.7-8.87,.29-2.92-1.07-5.46-2.44-7.79-2.53-4.77-9.16-6.53-14.22-6.53-2.73,0-5.16,.78-7.7,1.66-2.05,.68-2.92,2.24-2.44,4.38,.39,1.85,.39,3.6,.1,5.36-.29,2.05-.1,3.99-.1,6.04,0,.68,.39,1.46,.19,2.14-.39,1.36-.19,2.73-.29,3.7v3.21c.1,.97,.78,1.56,1.75,1.27,.58-.19,1.27-.1,1.85-.19,.97-.19,1.95,0,2.83,0,.19,0,.49-.1,.68-.1,3.02-.39,5.94-.39,8.96-.78,2.83-.29,5.16-1.66,7.11-3.51Zm116.13,37.8c-.29,.97-1.36,1.56-2.63,1.27-.39,0-.78,0-1.17-.1-1.66,0-3.41,.19-5.07-.29h-.49c-2.73,.49-5.55,.19-8.28,.1-1.75-.1-3.51,.2-5.26,.2-.78,0-1.66,0-2.44-.2-1.07-.29-2.14,.1-3.12,.39-.97,.29-1.75-.1-2.44-.78-.68-.68-.49-1.56-.29-2.34,.1-.68,.68-1.17,1.46-1.17,.58,0,1.17-.1,1.66,0,1.07,.1,1.95-.19,2.92-.68,1.66-.88,2.14-2.14,1.36-4.09-.78-1.85-1.75-3.51-2.73-5.26-.97-1.75-1.56-3.6-2.53-5.36-.88-1.75-1.27-2.24-3.21-1.85-.58,.1-1.17,.19-1.75,.19s-1.17-.1-1.75-.19c-.68-.29-1.46,.29-2.14,.19-1.46,0-2.92-.19-4.29-.1-2.05,.1-3.9-.49-5.75-.39-3.7,.29-7.4,.1-11.11,.19-1.46,.1-2.24,.88-2.14,2.14,0,1.85,2.63,2.44,4.09,2.44,1.27,0,2.34,.49,3.51,.68,.78,.19,1.36,1.27,1.27,2.05-.1,1.07-.68,1.75-1.85,1.75h-4.77c-1.75-.19-3.8,.19-5.75-.29-.88-.19-1.75,.29-2.73,.29-2.05-.1-4.09,0-6.14,0-.39,0-.88,0-1.36,.1-1.95,.39-2.83-.58-2.24-2.53,.29-1.07,1.17-1.66,2.44-1.75,5.16,0,7.11-.97,9.06-6.14,.58-1.85,1.36-3.6,2.44-5.16,.68-.97,.78-2.24,1.46-3.22,1.75-2.63,2.92-5.55,4.09-8.48,.97-2.44,2.05-4.77,3.21-7.11,1.66-3.31,2.83-6.82,4.48-10.23,1.66-3.12,3.8-7.21,4.97-10.52,.2-.39,.29-.68,.39-1.07,.78-1.75,1.56-2.53,2.92-2.53,1.07,0,2.53,.29,3.02,1.36,1.56,3.8,3.99,7.31,5.55,11.2,.49,1.07,1.36,2.05,1.95,3.12,.97,1.66,1.36,3.6,2.34,5.26,1.56,2.83,2.53,5.85,3.9,8.77,1.46,3.02,2.53,6.33,4.48,9.16,.1,.1,.2,.19,.2,.39,.88,2.63,2.44,4.97,3.31,7.7,.29,.68,.68,1.36,1.07,1.95,1.36,2.14,2.34,4.38,3.21,6.62,.29,.58,.68,1.27,1.07,1.85,.68,1.27,1.36,2.53,2.05,3.9,1.17,2.14,2.63,3.99,5.16,4.48,.97,.19,1.85,.68,2.83,.88,1.36,.29,1.95,1.66,1.56,3.21Zm-33.32-27.38c-.29-.58-.68-1.17-1.07-1.66-.78-1.07-1.36-2.14-1.85-3.31-1.07-2.92-2.92-5.46-3.99-8.38-.78-2.34-2.24-4.29-3.02-6.62-.29-1.07-.68-2.05-.97-3.02-.29-.68-.58-1.27-1.46-1.27-.78,0-1.17,.58-1.36,1.17-1.27,4.09-3.31,7.7-4.97,11.59-.88,2.05-1.85,4.19-2.92,6.14-.88,1.75-1.56,3.51-2.53,5.16-.29,.58-.68,1.27-.19,1.95,.49,.78,1.27,.68,2.05,.49,.68-.19,1.46-.39,2.14-.39,3.41,.29,6.72,.49,10.13,.49,1.07,0,2.14,0,3.22-.19,1.56-.29,3.21-.1,4.77,.19,.2,0,.39,.1,.58,0,1.46,0,2.05-.97,1.46-2.34Z"/><path class="ay" d="M452.12,290.73c.97,.1,2.34-.1,3.61,.29,.1,.1,.39,.1,.58,0,1.75-.29,3.51,0,5.26,0,1.75-.1,3.61,0,5.36-.49,.19-.1,.39-.1,.58,0,2.92,.88,5.94-.1,8.87,.19,.39,.1,.78,0,1.17,.1,.88,0,1.27,.49,1.27,1.27,.1,2.24-1.07,3.51-3.21,3.6-.88,0-1.75-.1-2.63,.29-1.46,.58-2.44,1.56-1.66,3.31,.1,.49,.2,.88,.49,1.27,.97,1.56,1.46,3.21,2.24,4.87,1.27,2.63,2.73,5.26,4.19,7.89,.78,1.36,1.07,2.92,1.85,4.29,1.46,2.34,2.34,4.97,3.31,7.5,.58,1.27,1.46,2.34,1.95,3.6,.78,1.66,1.56,3.22,2.63,4.68,.29,.49,.49,.97,.68,1.56,.29,.88,.68,1.75,1.36,2.53,1.07,1.27,1.27,2.92,1.95,4.29,.39,.68,.58,1.46,1.36,1.46,.68,0,1.07-.68,1.36-1.27l2.05-4.97c.39-1.17,.78-2.24,1.36-3.41,1.75-3.22,3.31-6.53,4.68-9.94,1.27-3.22,3.02-6.33,4-9.65,.1-.39,.29-.88,.49-1.07,2.14-1.85,4.48-8.09,5.36-10.91,.29-.97,.58-2.05,.97-3.12,.68-1.66-.19-3.12-2.05-3.22-1.07,0-2.14-.19-3.21-.39-1.07-.1-1.56-.68-1.66-1.75-.29-2.63,.49-3.51,2.92-3.02,.97,.19,1.85,.29,2.73,.29,.49,0,1.07-.1,1.56-.1,1.56-.1,3.02,.19,4.58,.29,2.34,.1,4.77,.29,7.11-.19,.39-.1,.78-.1,1.17-.1,1.46,0,1.95,.29,2.24,1.17,.29,1.36-.1,2.53-1.27,3.12-1.07,.49-2.34,.68-3.51,.97-2.14,.39-3.51,1.27-4.38,3.41-.88,2.05-2.05,4.09-2.73,6.14-1.07,3.12-2.92,5.94-4,9.06,0,.1,0,.19-.1,.29-1.85,2.73-2.63,5.94-4.09,8.87-1.66,3.22-3.12,6.53-4.87,9.65-1.95,3.51-3.21,7.31-5.07,10.72-.97,1.85-1.95,3.7-3.21,5.36-1.07,1.36-1.56,2.83-2.24,4.38-.58,1.36-1.07,2.83-1.66,4.29-.68,1.66-1.75,2.53-3.31,2.53-1.46,0-2.24-.39-2.83-1.75-.97-2.92-2.73-5.55-3.9-8.28-1.17-2.53-2.73-4.87-3.7-7.5-.78-2.14-1.66-4.48-3.31-6.24-.29-.29-.49-.78-.58-1.27-.49-2.63-1.46-5.07-3.12-7.21-.19-.19-.19-.39-.29-.58-1.75-3.9-4.19-7.5-6.04-11.4l-6.43-13.15c-.49-.97-.88-2.05-1.27-3.12-.88-2.83-3.12-3.99-5.75-4.48-.68-.1-1.36-.39-2.05-.39-.68,.1-1.17-.49-1.36-.97-.29-.88-.29-1.95,0-2.83,.1-.49,.58-.78,1.17-.78,.88,.1,1.85,.1,3.02,.1v-.1Z"/><path class="ay" d="M578.1,358.54c-2.92,0-5.85,.1-8.67,.19-2.53,.1-4.97,0-7.5,0-.58,0-1.36-.29-1.85-.19-2.34,.39-4.68-.29-6.92,0-.58,.1-.97,.1-1.46,0-2.44-.19-4.77-.19-7.21,0-.68,.1-1.46,.19-2.24,.19-1.17,.1-2.44-.19-3.7,.19-.68,.29-1.56-.49-1.66-1.27-.1-1.85,.29-3.7,3.12-3.8,3.9-.29,7.4-1.66,7.4-6.14,0-1.36,.19-2.73,.19-3.99-.1-2.05,0-4.09-.29-6.14-.29-1.75-.29-3.41-.1-5.16,0-.88-.1-1.75-.1-2.63,.1-3.7-.39-7.5,.29-11.2,0-.39-.1-.68-.2-1.07-.19-.68-.29-1.46-.1-2.14,.39-1.27,.29-2.63,.29-3.9-.2-2.63,.49-5.26,.29-7.89-.29-3.99-2.44-8.18-7.01-8.18-.58,0-1.07-.1-1.56-.29-1.17-.49-1.66-1.56-1.36-3.02,.2-.88,.97-1.36,2.14-1.36,.39,0,.88,0,1.27,.19,.49,.19,.88,.19,1.36,.1,2.05-.49,4.09,.19,6.24,.1,.68-.1,1.46,0,2.14-.29,.29-.1,.68-.1,.88,0,.68,.19,1.36,.29,2.05,.29,1.56,0,3.21-.39,4.87-.39,1.17,0,2.53,0,3.7,.29,.88,.29,1.85-.19,2.73-.19,1.95,0,3.9,.1,5.75,.19,2.83,.1,5.65,.29,8.38,0,2.34-.29,4.68-.19,7.01-.29,1.27,0,2.53,.39,3.8,.39,1.17-.1,2.34-.1,3.41-.49,.29,0,.49-.1,.78-.1,1.95-.29,2.34,.1,2.53,2.24,.2,3.51,.49,7.02,.58,10.52,.1,.97,.19,1.95,.39,2.92,.1,1.27-.29,1.75-1.36,2.14-.97,.29-1.95,0-2.44-.88-.29-.58-.58-1.27-.68-1.95-.2-1.85-.88-3.6-1.75-5.16-1.85-3.51-5.94-3.6-9.45-3.6-1.17,0-2.44,.1-3.7,.39-.88,.19-1.95,.1-2.92-.19-.88-.29-1.85,0-2.83-.1-2.92-.19-5.75,.19-8.67,.29-2.05,.1-3.21,1.56-2.92,3.51,.39,2.34,.29,4.58,.1,6.82-.2,1.07,.1,2.24,.1,3.41,0,2.73,.29,5.55-.49,8.28-.49,1.75,.49,2.83,2.34,2.83,1.46,0,2.92,0,4.38,.49,.78,.29,1.56-.19,2.34-.19,4.19,.1,8.18-.58,12.28-1.56,2.44-.49,3.41-1.85,3.41-4.48,0-.88,0-1.75,.58-2.53,.49-.58,1.07-.88,1.85-.68,.78,.1,1.07,.78,1.27,1.36,.1,.58,.2,1.27-.1,1.95-.2,.49-.2,1.07-.1,1.56,.39,2.44,.19,4.77,0,7.21-.2,1.17,.1,2.53,.29,3.8,.2,1.07,.49,2.14,.29,3.31-.1,.58,0,1.17,.1,1.75,.29,1.07-.39,2.05-1.27,2.24-1.17,.19-2.05-.39-2.24-1.56-.1-.29,0-.68,0-.97-.2-5.94-7.6-5.94-11.89-5.94-3.8,.1-7.6,.1-11.4,.1-1.36,0-1.95,.39-1.85,1.85,.1,3.12-.29,6.14-.39,9.26-.1,1.85-.19,3.8-.29,5.65,0,1.07,.19,2.05,.1,3.12-.29,3.02,1.17,3.7,3.6,4.29,1.56,.39,3.12,.29,4.77,.29,1.56,.1,3.22,0,4.87,.29,.97,.19,1.95,.19,3.02-.19,.29-.1,.78-.1,1.17-.1h5.36c5.85,.1,9.94-2.53,12.57-7.7,.58-1.17,1.36-2.34,2.05-3.41,.49-.78,1.46-1.27,2.34-1.27,1.07,0,1.46,.29,1.66,1.36,.1,1.27-.1,2.63-.58,3.8-.97,3.02-1.85,6.04-3.31,8.87-.29,.68-.58,1.36-.78,2.14-.49,1.46-1.56,2.05-3.02,2.05h-5.75c-3.02-.29-6.62,.29-10.33,.39Z"/><path class="ay" d="M629.05,291.02c3.22-.19,6.53,.1,9.74,.1,1.85,.1,3.6,.1,5.36,0,.49-.1,1.07-.1,1.27,.49,.58,1.17,.49,2.53,.2,3.8-.2,.58-.97,.58-1.56,.58-1.56-.1-3.12,0-4.58,.58-3.12,1.27-4.19,4.09-4.19,7.21,.1,2.44-.29,4.87,.58,7.21,.19,.68,.1,1.46,0,2.14-.39,1.46-.1,3.02-.29,4.58-.39,3.41,.19,6.82,0,10.23,0,.58,0,1.07,.19,1.66,.29,.78,.29,1.75,.1,2.53-.49,1.46-.2,2.83,.1,4.29,.1,.68,.19,1.36,.19,2.05,0,3.7,.1,7.4,0,11.11,0,2.14,.49,2.73,2.63,3.02,3.7,.49,7.4,.78,11.11,.78,1.27,0,2.53,0,3.7-.19,3.02-.39,6.14-.58,9.16-.88,.97-.1,1.85-.68,2.63-1.27,2.73-2.05,5.16-4.38,6.43-7.7,.39-1.17,1.75-1.75,3.02-1.75,1.36,0,2.24,1.17,1.75,2.63-.1,.29-.29,.68-.39,.97-.39,.58-.88,1.17-.88,1.85-.29,2.44-1.75,4.38-2.44,6.62-.29,.97-.49,1.95-.68,2.92-.39,2.14-1.17,2.63-3.31,2.53-2.05-.19-4.09-.1-6.14-.1h-10.42c-2.14,.1-4.19-.29-6.24-.29-4.29,.1-8.57,0-12.86,0-1.07,0-2.14-.1-3.12,.29-.2,.1-.39,0-.58,0-3.02-.49-5.94,.19-8.96,0-1.85-.1-3.7,0-5.46,0-1.36,0-1.85-.39-2.05-1.66-.29-1.27,.49-2.63,1.75-2.92,1.56-.49,3.12-.78,4.58-1.17,2.24-.58,3.02-1.66,3.51-3.9,.39-1.85,0-3.6,.58-5.36v-.29c-.68-2.24-.29-4.48,0-6.72,.19-1.75-.2-3.41-.39-5.07-.2-.97,.19-1.95,.1-2.92-.39-4.09-.49-8.28-.29-12.37,.1-2.83,0-5.65,.49-8.38s0-5.55-.68-8.18c-.2-1.27-1.17-2.24-2.24-2.83-1.27-.78-2.73-1.36-4.19-1.27-1.17,0-2.05-.29-2.53-1.36-.49-1.07-.19-2.14,.29-3.12,.2-.49,.68-.39,1.17-.39,2.34-.1,4.77,0,7.21,0,2.14,0,4.38,.1,6.62-.1Z"/></g><rect class="bf" x="434.19" y="1006.97" width="14.63" height="14.63" rx="7.31" ry="7.31" transform="translate(-572.79 1455.78) rotate(-90)"/><path class="ai" d="M441.5,993.2h0c11.6,0,21.09,9.49,21.09,21.09h0c0,11.6-9.49,21.09-21.09,21.09h0c-11.6,0-21.09-9.49-21.09-21.09h0c0-11.6,9.49-21.09,21.09-21.09Zm21.46,.83c6.71,8.52,13.14,14.69,17.91,18.84,7.17,6.23,11.53,9.95,18.67,12.5,4.68,1.67,14.66,5.24,23.12,.26,1.34-.79,6.09-3.68,7.79-9.47,1.89-6.43-.72-13.91-6.28-17.85-4.61-3.27-12.22-4.78-16.71-.95-.32,.27-3.52,3.09-3.29,7.41,.2,3.76,2.92,7.19,6.95,8.71m-201.1-18.16c.25,2.47,1.19,8.07,5.58,12.34,7.18,6.98,18.7,5.98,26.07,2.25,9.49-4.79,12.51-14.28,13.12-16.32m18.98,18.6c4.03-1.52,6.75-4.95,6.95-8.71,.23-4.32-2.97-7.14-3.29-7.41-4.5-3.83-12.1-2.32-16.71,.95-5.56,3.94-8.17,11.42-6.28,17.85,1.7,5.79,6.45,8.68,7.79,9.47,8.46,4.98,18.44,1.41,23.12-.26,7.14-2.55,11.5-6.27,18.67-12.5,4.77-4.14,11.2-10.32,17.91-18.84m109.18,.72c1.66,3.53,6.58,12.71,17.2,17.61,8.62,3.98,23.22,6.03,32.82-2.63,5.53-4.99,6.7-11.52,7.02-14.42m-415.02-43.47c1.31,.06,8.14,.26,12.92-4.72,5.68-5.91,4.92-15.47,.92-21.5-5.4-8.14-15.6-8.16-17.13-8.16-12.08-.02-19.7,10.08-21.27,12.3-8.85,12.53-5.56,31,2.41,41.96,11.95,16.43,35.84,17.7,45.87,18.1,82.25,3.25,228.58,2.9,238.32,2.89,17.44-.02,135.3,.42,234.19,0,14.01-.06,45.85-.61,59.73-20.99,7.37-10.82,11.28-29.42,2.41-41.96-1.57-2.22-9.18-12.32-21.27-12.3-1.53,0-11.73,.02-17.13,8.16-4.15,6.25-4.37,15.74,.92,21.5,2.92,3.19,6.63,4.26,8.55,4.67"/><polyline class="as" points="90.28 961.65 90.28 1052.29 186.18 1052.29"/><polyline class="ag" points="77 963.6 77 1064.74 186.18 1064.74"/><polyline class="aj" points="90.28 117.6 90.28 26.97 186.18 26.97"/><polyline class="aq" points="77 114.97 77 13.84 186.18 13.84"/><polyline class="ak" points="800.45 117.6 800.45 26.97 704.55 26.97"/><polyline class="ah" points="813.73 114.97 813.73 13.84 704.55 13.84"/><rect class="ax" x="432.83" y="47.58" width="14.63" height="14.63" rx="7.31" ry="7.31" transform="translate(495.04 -385.26) rotate(90)"/><path class="am" d="M419.06,54.89h0c0-11.6,9.49-21.09,21.09-21.09h0c11.6,0,21.09,9.49,21.09,21.09h0c0,11.6-9.49,21.09-21.09,21.09h0c-11.6,0-21.09-9.49-21.09-21.09Zm90.72,.81c-4.03,1.52-6.75,4.95-6.95,8.71-.23,4.32,2.97,7.14,3.29,7.41,4.5,3.83,12.1,2.32,16.71-.95,5.56-3.94,8.17-11.42,6.28-17.85-1.7-5.79-6.45-8.68-7.79-9.47-8.46-4.98-18.44-1.41-23.12,.26-7.14,2.55-11.5,6.27-18.67,12.5-4.77,4.14-11.2,10.32-17.91,18.84m-106.01,.81c-.91-2.39-4.89-12.1-15.26-16.69-6.55-2.9-18.55-5.05-26.07,2.25-4.35,4.22-5.31,9.77-5.58,12.34m111.91,2.57c-6.71-8.52-13.14-14.69-17.91-18.84-7.17-6.23-11.53-9.95-18.67-12.5-4.68-1.67-14.66-5.24-23.12-.26-1.34,.79-6.09,3.68-7.79,9.47-1.89,6.43,.72,13.91,6.28,17.85,4.61,3.27,12.22,4.78,16.71,.95,.32-.27,3.52-3.09,3.29-7.41-.2-3.76-2.92-7.19-6.95-8.71m214.38,18.16c-.32-2.89-1.5-9.43-7.02-14.42-9.6-8.66-24.2-6.61-32.82-2.63-10.62,4.9-15.54,14.07-17.2,17.61m171.48,42.96c-1.92,.4-5.63,1.48-8.55,4.67-5.29,5.76-5.07,15.25-.92,21.5,5.4,8.14,15.6,8.16,17.13,8.16,12.09,.02,19.7-10.08,21.27-12.3,8.87-12.55,4.96-31.14-2.41-41.96-13.88-20.38-45.72-20.93-59.73-20.99-98.89-.42-216.76,.02-234.19,0-9.74-.01-156.08-.36-238.32,2.89-10.04,.4-33.92,1.67-45.87,18.1-7.98,10.97-11.27,29.44-2.41,41.96,1.57,2.23,9.19,12.32,21.27,12.3,1.53,0,11.73-.02,17.13-8.16,4-6.03,4.76-15.59-.92-21.5-4.77-4.97-11.6-4.78-12.92-4.72"/><rect class="bi" x="774.91" y="560.69" width="14.63" height="14.63" rx="7.31" ry="7.31"/><path class="ar" d="M782.23,589.09h0c-11.6,0-21.09-9.49-21.09-21.09h0c0-11.6,9.49-21.09,21.09-21.09h0c11.6,0,21.09,9.49,21.09,21.09h0c0,11.6-9.49,21.09-21.09,21.09Zm.81-90.72c1.52,4.03,4.95,6.75,8.71,6.95,4.32,.23,7.14-2.97,7.41-3.29,3.83-4.5,2.32-12.1-.95-16.71-3.94-5.56-11.42-8.17-17.85-6.28-5.79,1.7-8.68,6.45-9.47,7.79-4.98,8.46-1.41,18.44,.26,23.12,2.55,7.14,6.27,11.5,12.5,18.67,4.14,4.77,10.32,11.2,18.84,17.91m-.22,113.66c-2.14,.64-11.01,3.57-15.66,12.49-3.9,7.5-4.67,18.96,2.25,26.07,4.27,4.39,9.87,5.33,12.34,5.58m2.57-115.16c-8.52,6.71-14.69,13.14-18.84,17.91-6.23,7.17-9.95,11.53-12.5,18.67-1.67,4.68-5.24,14.66-.26,23.12,.79,1.34,3.68,6.09,9.47,7.79,6.43,1.89,13.91-.72,17.85-6.28,3.27-4.61,4.78-12.22,.95-16.71-.27-.32-3.09-3.52-7.41-3.29-3.76,.2-7.19,2.92-8.71,6.95m16.54-216c-2.89,.32-9.43,1.5-14.42,7.02-8.66,9.6-6.61,24.2-2.63,32.82,4.9,10.62,14.07,15.54,17.61,17.2m-36.44,341.74c.06-1.4,.26-8.71-4.72-13.82-5.91-6.07-15.47-5.27-21.5-.98-8.14,5.78-8.16,16.69-8.16,18.33-.02,12.93,10.08,21.08,12.3,22.76,12.53,9.47,31,5.95,41.96-2.58,16.43-12.79,17.7-38.35,18.1-49.09,3.25-88.01,2.9-244.61,2.89-255.04-.02-18.66,.42-144.79,0-250.62-.06-14.99-.61-49.07-20.99-63.92-10.82-7.89-29.42-12.07-41.96-2.58-2.22,1.68-12.32,9.83-12.3,22.76,0,1.64,.02,12.55,8.16,18.33,6.25,4.44,15.74,4.67,21.5-.98,3.19-3.13,4.26-7.1,4.67-9.15"/><rect class="bc" x="112.28" y="560.69" width="14.63" height="14.63" rx="7.31" ry="7.31" transform="translate(239.19 1136) rotate(-180)"/><path class="au" d="M98.51,568h0c0-11.6,9.49-21.09,21.09-21.09h0c11.6,0,21.09,9.49,21.09,21.09h0c0,11.6-9.49,21.09-21.09,21.09h0c-11.6,0-21.09-9.49-21.09-21.09Zm.83-21.46c8.52-6.71,14.69-13.14,18.84-17.91,6.23-7.17,9.95-11.53,12.5-18.67,1.67-4.68,5.24-14.66,.26-23.12-.79-1.34-3.68-6.09-9.47-7.79-6.43-1.89-13.91,.72-17.85,6.28-3.27,4.61-4.78,12.22-.95,16.71,.27,.32,3.09,3.52,7.41,3.29,3.76-.2,7.19-2.92,8.71-6.95m-18.16,205.97c2.47-.25,8.07-1.19,12.34-5.58,6.92-7.12,6.16-18.58,2.25-26.07-4.65-8.92-13.52-11.85-15.66-12.49m17.94-22.85c-1.52-4.03-4.95-6.75-8.71-6.95-4.32-.23-7.14,2.97-7.41,3.29-3.83,4.5-2.32,12.1,.95,16.71,3.94,5.56,11.42,8.17,17.85,6.28,5.79-1.7,8.68-6.45,9.47-7.79,4.98-8.46,1.41-18.44-.26-23.12-2.55-7.14-6.27-11.5-12.5-18.67-4.14-4.77-10.32-11.2-18.84-17.91m2.35-110.8c3.53-1.66,12.71-6.58,17.61-17.2,3.98-8.62,6.03-23.22-2.63-32.82-4.99-5.53-11.52-6.7-14.42-7.02m35.92-167.81c.4,2.06,1.48,6.02,4.67,9.15,5.76,5.66,15.25,5.42,21.5,.98,8.14-5.78,8.16-16.69,8.16-18.33,.02-12.93-10.08-21.08-12.3-22.76-12.55-9.49-31.14-5.31-41.96,2.58-20.38,14.86-20.93,48.93-20.99,63.92-.42,105.82,.02,231.96,0,250.62-.01,10.43-.36,167.02,2.89,255.04,.4,10.74,1.67,36.3,18.1,49.09,10.97,8.54,29.44,12.06,41.96,2.58,2.23-1.68,12.32-9.83,12.3-22.76,0-1.64-.02-12.55-8.16-18.33-6.03-4.28-15.59-5.09-21.5,.98-4.97,5.11-4.78,12.42-4.72,13.82"/><path class="av" d="M476.54,635.81v.07l.04-.03h0l-.04-.04Zm-31.82,45.05c-.75,.9,0,1.97,.14,3.03,.13,1-.14,1.87-1.18,1.99-1.24,.16-.46-1.04-.78-1.54-.95-1.48,.75-2.66,.58-4.1,0-.1,.58-.4,.88-.4,.44,.01,.43,.44,.36,1.01Zm233.44-46.48c-.41,.03-.58-.14-.85-.37-5.33-4.33-11.45-6.4-18.29-6.49-1.03-.01-1.85-.01-1.31,1.35,.2,.48,.64,.94-.01,1.32-.56,.33-1.01-.31-1.42-.3-1.25,.04-1.15-1.91-2.44-1.55-2.68,.74-5.4-.51-8.09,.24-.44,.11-1.71,.27-1.71-.94-.03-2.05-1.6-2.24-3.02-2.52-1.84-.36-3.69-.11-5.46,.34-.95,.26-1.45-.19-2.24-.44-1.89-.63-2.76-2.73-4.69-3.01-3.08-.46-6.18-.83-9.27-1-1.07-.06-3.16,.67-2.89,1.32,.73,1.72-.56,1.03-1.05,1.47-1.04,.94-1.71,.7-2.78,.04-1.18-.74-2.59,1.05-3.76,.2-1.15-.84-1.68-.77-2.28,.48-.33,.73-.94,1.55-1.81,.77-.74-.67-2.21-.83-1.74-2.58,.61-2.25-.77-3.77-3.1-3.79-.85,0-1.79,.24-2.51-.44-.75-.7-1.69-.03-1.79,.28-.88,2.55-2.72,1.54-4.29,1.2-2.86-.63-5.57-2.28-8.69-1.15-.44,.16-1.21-.51-.93-.94,1.3-1.94-1.04-1.21-1.58-2.05,1.65-.37,2.71-1.31,2.26-2.82-.38-1.3-1.61-2.14-2.95-2.51-.66-.17-1.4-.1-2.08,0-1.92,.26-3.76-.07-5.27-1.17-2.65-1.91-4.57-2.15-6.04,.03-1.47,2.18-4.04,3.38-5.78,3.03-2.89-.56-5.27,.48-7.83,.88-2.22,.34-4.7,.87-5.63,3.23-.58,1.48-1.24,1.97-2.73,1.91-1.21-.04-2.44,.24-3.65,.34-.73,.06-1.84-.46-1.95,.64-.1,.95,.1,2.07,1.04,2.78,.4,.28,1.24,.1,1.13,1.05-1.78,.34-2.89-1.48-4.63-1.47-.75,0-1.61-1.05-2.18,.14-.4,.84-2.14,1.51-.11,2.88-3.38-.26-.43-3.3-2.65-4.09,.67,2.48-2.58,2.04-2.66,4,.8,.77,2.29,1.27,.93,2.81-.57,.63-.14,1.67,.23,1.92,1.65,1.22,1.1,2.73,.47,3.96-.88,1.72-2.25,3.09-4.56,2.49-.41-.11-.87-.07-2.02-.16,2.07-.53,3.52-.63,4.53-1.99,.88-1.2,1.61-1.89,.44-3.5-1.07-1.44,.31-3.5-.38-5.23-.68-.36-.83-.84-.36-1.5,1.55-2.19,.14-2.73-1.71-2.96-1.64-.19-3.18-.17-3.43,2.07-.1,.87-.91,1.24-1.6,1.62-.56,.31-1.35,.84-1,1.34,.95,1.32-.04,3.56,2.11,4.32,.44,.16,1.05,.78,.24,1.62-1.14-.85-2.58-1.35-3.79-2.07-2.36-1.4-5.26-.7-7.45-2.32-.56-.4-1.2-.74-1.6-.1-.44,.7,.33,1.04,.83,1.37,.37,.24,.81,.43,1.05,.77,.31,.41,1.01,.88,.11,1.5-.54,.37-.93,1.11-1.31-.17-.16-.56-.94-.58-1.34-.21-1.32,1.18-3.12,.34-4.52,1.17-.3,.19-1.08,.37-1.01-.23,.24-1.95-.71-.9-1.42-.67-2.66,.9-5.37,1.68-7.45,3.8-.61,.63-1.58,.71-2.25-.3-.91-1.34,.54-.88,.91-1.2,.41-.33,.61-.57,.24-1.03-.78-.94-1.88-.85-2.92-.8-.31,.01-1.15,.01-.57,.66,.9,.97-.47,1.92,.23,2.98,.66,.98,.21,1.55-1.14,1.22-1.88-.46-3.33,.85-4.23,2.04-1.28,1.68-1.01,1.89-2.91,1-1.92-.91-1.75,.09-1.25,1.37,.21,.36,1.15,.11,.83,.74-.17,.36-.9,.23-1.21-.31-2.68-.21-2.02-2.41-2.35-4-.43-.28-1.14-.14-1.24-.87h-.01l-.04,.03v-.07c-.11-.07-.2-.14-.3-.2,.1-.03,.21-.06,.31-.09,0,.09-.01,.19-.01,.28,.01,.01,.03,.03,.04,.03,.73-.57,1.21,0,1.72,.4,2.24-.03,4.46,1.2,6.74,.07,1.89-.93,2.19-2.46,.41-3.6-1.97-1.25-4.07-2.46-6.3-3.13-3.55-1.08-4.42-1.31-6.54-3.48-.11-.11-.3-.16-.46-.24-2.26-1.22-5.27-.88-6.85-.1-2.72,1.32-5.6,2.48-8.35,2.82-1.61,.19-1.79,2.31-3.08,1.52-1.41-.85-1.61,.37-1.79,.93-1.28,3.87-3.79,6.84-6.65,9.59-1.47,1.4-3.25,2.35-5.03,3.29-1.6,.87-2.05,2.15-1.94,3.9,.33,5.5,1.72,6.38,6.38,3.86,.98-.54,1.6-.88,1.94,.64,.13,.58,.47,1.41,.83,1.79,1.15,1.21,.34,3.22,1.75,4.14,.97,.63,4.94-2.11,4.89-3.35-.06-1.45-.06-2.55,1.67-3.33,1.44-.66,1.91-2.24,.04-3.22-1.3-.67-1.1-1.47-.83-2.58,.41-1.71,1.52-2.66,3.01-3.4,1.2-.6,2.52-1.03,2.34-2.99-.09-.85,1.08-1.85,2.21-1.85,.81,0,2.01-.06,2.38,.75,.48,1.08-.87,1.45-1.38,2.15-.36,.48-.9,.84-1.38,1.2-1.62,1.18-3.09,1.98-1.97,4.73,1.03,2.46,2.14,3.75,4.74,2.79,1.72-.63,3.43-1.1,5.14-.03-1.3,1.77-3.03,.66-4.5,.98-1.64,.38-4.13,.21-1.91,3.02,.38,.48,.19,1.03-.06,1.5-.23,.41-.58,.13-.9,.03-2.62-.83-3.1-.58-3.15,2.24-.01,1.79-1.55,3.25-2.28,2.88-2.45-1.25-4.16,.36-6.14,.87-1.25,.33-1.97-1.6-3.38-.64-1.1,.73-1.92,.09-2.65-.84-.81-1.04,.09-1.41,.6-2.11,.67-.9,.43-2.28,.03-3.06-.43-.83-1,.54-1.62,.7-2.28,.58-2.25,1.82-1.37,3.75,.48,1.05,1.45,3.1-1.54,2.92-1.05-.07-2.46,.24-3.1,1.6-.71,1.5-2.09,2.31-3.48,3.1-.19,.16-.37,.31-.57,.47-.93,1.42-1.88,2.76-3.93,2.01-.3-.11-.93-.3-.87,.1,.28,2.16-1.18,1-1.95,1.1-.7,.09-1.61-.03-1.79,.78-.21,1,.68,1.25,1.47,1.48,.33,.1,.68,.19,.95,.38,1.79,1.34,2.46,3.15,1.94,5.27-.51,1.99-2.16,.91-3.32,.94-1.54,.06-3.1-.33-4.63-.19-1.15,.11-2.92-.01-2.18,2.31,.44,1.38,.28,2.88-.3,4.37-.7,1.74,.7,3.55,2.55,3.8,.24,.03,.63,.04,.7,.17,1.14,2.44,2.86,.41,4.3,.58,1.91,.24,3.01-1.15,4.19-2.31,.36-.34,.93-.63,.67-1.28-.75-1.91,.53-2.69,1.89-3.39,1.21-.61,2.61-.91,2.42-2.85-.07-.71,.93-1.1,1.65-.75,1.68,.8,2.96,.13,4.32-.83,1.08-.75,2.31-.97,3.1,.47,.97,1.75,2.58,2.69,4.16,3.8,1.4,.97,3.76,1.47,3.43,4.03-1.4,.94-3.06,.47-4.84,.73,.84,1.21,1.97,1.5,2.89,2.01,.41,.23,1.27,.38,1.11-.4-.33-1.5,1.21-1.41,1.6-2.25,1.41-.28-.27-3.69,2.85-2.29-.57-.67-.91-1.07-1.34-1.34-2.15-1.38-4.37-2.62-5.91-4.81-.54-.78-1.24-1.5-.71-2.28,.83-1.22,1.18,.5,1.75,.48,1.54-.03,1.45,1.79,2.39,2.07,4.87,1.41,5.07,6.32,7.42,9.63,.63,.88,1.99,2.02,2.21,1.44,.41-1.14,2.52-2.07,.71-3.99-1.61-1.71,1.13-1.11,1.58-1.92,.63-1.14,1.47-.33,2.16,.16-.97,1.2,.61,1.74,.71,2.73,.27,2.92,2.56,4.17,5.27,3.06,.47-.19,.83-.26,1.15,.13,1.04,1.25,2.11,.81,3.26,.14,.68-.4,1.69-.66,1.88,.38,.46,2.58-.97,4.74-2.08,6.88-.78,1.54-2.11,.43-3.22,.21-.5-.1-1.21-.14-1.54,.13-1.3,1.14-2.68,.57-3.96,.21-2.24-.61-4.52-1.07-6.65-2.08-1.55-.73-3.1-.06-3.3,1.69-.2,1.77-.71,1.78-2.12,1.2-3.59-1.45-6.88-3.62-11.04-4.61,2.19-1.28,1.41-3.11,.94-4.43-.46-1.3-1.91-.6-3.01-.2-.37,.13-.85-.11-1.28-.1-3.72,.19-7.59-.09-10.88,1.88-2.05,1.21-3.93,1.03-5.81,.33-1.03-.37-1.3-.37-1.64,.64-.38,1.1-1.1,1.88-2.28,2.36-1.48,.63-2.41,1.94-2.29,3.56,.14,1.79-.77,3.08-2.08,3.65-2.96,1.3-4.39,3.89-5.78,6.41-.78,1.42-2.65,3.01-1.77,4.6,1.44,2.61,1.14,4.9,.03,7.34-.26,.58-.23,1.01-.16,1.65,.23,1.85,1.13,3.09,2.41,4.36,2.51,2.48,4.1,5.8,7.25,7.71,1.54,.94,2.82,1.91,4.76,.74,.98-.61,2.48-1.03,3.56-.51,1.98,.9,3.53-.06,5.21-.61,1.08-.37,2.15-.81,3.26-1.05,1.05-.23,2.48-.13,2.81,.9,.61,1.87,1.85,1.69,3.29,1.74,1.94,.06,3.43,.61,2.63,3.15-.94,2.92-.71,5.61,1.81,7.79,1.05,.91,1.41,2.35,2.08,3.49,1.04,1.71,.36,3.6,1.3,5.21,.66,1.08,.38,1.99-.51,3.05-2.09,2.46-2.02,6.55-.63,9.46,.94,1.97,2.45,3.63,2.42,6.21-.01,2.62,1.18,5.11,2.76,7.46,.98,1.47,2.62,3.1,1.92,5.54-.44,1.55,1.48,2.93,3.32,2.63,1.2-.2,2.36-.74,3.56-.78,5.33-.21,11.62-4.73,12.83-9.74,.46-1.89,.47-3.49,2.83-4.16,1.05-.3,1.07-1.97,.9-3.28-.17-1.27-1.6-2.62-.26-3.8,1.03-.93,1.84-2.09,3.12-2.79,4.16-2.25,5.11-6.68,2.92-10.95-1.13-2.19-1.89-4.71-.3-7.21,1.94-3.05,4.27-5.67,7.24-7.78,4.09-2.91,6.32-7.19,8.02-11.74,.51-1.37,.07-2.08-1.75-1.42-2.02,.74-4.24,.98-6.4,1.3-1.17,.17-2.01-.37-2.21-1.68-.19-1.3,.81-.93,1.47-1.18,6.99-2.69,14.33-4.77,19.03-11.37,1.38-1.95,1.54-2.98-.58-3.79-1.77-.68-2.85-1.57-2.71-3.85,.78,.19,1.57,.47,2.38,.91,2.14,1.17,4.84,1.08,7.43,.8,3.45-.37,5.47,1.05,6.96,4.36,.91,2.02,2.64,2.26,4.91,.19-1.07,6.67,2.66,11.58,4.54,17.06,.7,2.05,1.55,2.12,3.15,.66,.5-.46,.68-.98,.97-1.52l.04-.04c.71-1.74,1.68-3.48,1.2-5.4-.33-1.3,.04-1.89,1.13-2.51,2.66-1.51,5.07-3.63,6.96-5.8,1.45-1.68,3.06-1.5,4.5-2.32,2.81-1.62,2.73,1.37,3.93,2.36,1.24,1.04,2.18,2.32,2.21,3.87,.03,2.44,.93,2.82,2.54,1.22,.9-.91,1.27-.44,1.45,.24,.63,2.24,1.85,4.66,1.45,6.75-.53,2.82,.57,4.69,1.84,6.72,.95,1.51,.53,3.72,2.42,4.74,.46,.4,.91,.78,1.37,1.18,1.95,.83,2.39,.67,1.99-.09-1.28-2.39-.84-5.55-4.12-7.16-1.5-.74-3.22-3.09-1.91-5.67,.41-.81,.58-1.74,.87-2.66,2.25,1.98,5.17,3.12,6.02,6.41,1.99-.84,3.29-2.82,5.31-3.77,.57-.27,.61-1.57,.63-2.56,.06-3.02-2.38-4.39-3.9-6.3-1.48-1.85-.28-3.05,.81-3.97,.97-.8,2.51-2.02,3.58,.21,.11,.23,.63,.98,.84,.11,.33-1.38,1.51-.91,2.29-1.27,2.35-1.05,4.94-1.41,7.15-2.98,2.68-1.89,4.24-4.64,5.48-7.34,1.03-2.24,.11-4.96-1.38-7.26-1.47-2.22-.95-3.35,1.54-4.42,.43-.19,1.13,.07,1.1-.77-1.81-1.37-4.9,.5-6.24-2.62,2.22-.04,3.02-2.66,5.21-2.79,.36,1.03-1.03,1.45-.43,2.34,.13,.13,.24,.26,.37,.4,.63-.31,1.22-.81,1.88-.88,1.14-.13,3.32-1.31,2.21,1.68-.28,.78,.27,1.22,.98,1.14,1.31-.16,.94,.51,1.04,1.37,.14,1.31,.06,2.49-1.01,4.06,2.34-.48,4.73-.38,5.41-1.87,.56-1.21-.19-3.39-1.57-4.7-.31-.3-.57-.66-.83-1.01-.4-.54-.03-1.32,.26-1.38,1.75-.34,1.95-2.02,2.89-3.05,.83-.9,1.79-2.39,3.52-1.25,.77,.5,1.42-.04,1.88-.47,1.84-1.77,3.96-3.33,5.24-5.54,1.14-1.98,3.5-3.38,3.15-6.12-.17-1.25,.24-2.29,1.07-3.49,1.42,2.61,.58,5.17,.43,7.59-.13,2.07,.19,2.86,2.44,2.01-.81-1.65-2.52-3.52,.64-4.59,.1-.03,.23-.3,.19-.38-1.24-2.81-.5-6.1-2.19-9.59-.36,2.92-1.44,2.78-2.85,1.64-.46-.37-1-1.31-1.44-.91-2.25,1.98-3.29-.48-4.99-1.08,1.6-1.5,3.16-2.79,4.73-3.97,2.32-1.72,3.96-4.74,7.66-4.36,2.05,.2,4.24,.88,6.3-.48,.36-.23,1.75,.23,1.82,.56,.36,1.54,1.41,.9,2.15,.81,1.6-.19,1.88-.51,2.41-2.05,.34-1.05,4.36-3.7,5.5-3.65,.61,.03,1.41-.1,1.54,.67,.43,2.42,1.54,.93,2.56,.57,1.28-.46,1.62-1.78,2.55-2.54,.21-.07,.57-.23,.61-.17,.19,.3-.06,.41-.31,.48,.06,1.55-.68,2.39-1.99,3.33-2.59,1.87-5.18,3.86-7.39,6.11-3.59,3.7-.75,7.92-.28,12.22,1.2-1.1,2.15-1.69,2.72-2.95,1.11-2.48,4.43-3.4,4.89-6.48,0-.06,.14-.13,.23-.13,1.28-.04,.93-.6,.95-1.62,.03-1.4-1.51-1.94-1.2-3.02,.56-1.94,7.46-5.01,9.07-3.79,1.45,1.1,1.94,.21,2.85-.34,3.02-1.79,5.73-4.42,9.76-3.55,.85,.19,1.35-.98,.95-1.44-.75-.9-.6-2.34-1.88-2.92,.95-.28,1.78-.75,2.62-1.13,1.45-.63,.17-2.09,.95-2.58,1.52-.94,.37,2.28,2.15,1.5,1.21-.53,1.94,.51,2.89,1.17,1.08,.74,3.22,2.32,3.89,.93,.93-1.91,2.73-2.21,3.79-3.58-1.57-1.65-3.53-2.44-5.87-2.26Zm-204.1,47.53c-1.1,.81-2.41,.84-3.67,.14-1.37-.75-2.41-1.4-.81-3.08,1.1-1.15,1.79-2.66,2.64-4.03,.77-1.22,1.67-1.04,2.51-.17,2.29,2.35,2.28,2.36,5.57,1.25-.07-.63-.58-.43-.93-.5-.4-.07-.9,.1-1.22-.6,.8-1.22,2.22-1.37,3.5-1.74,.26-.28,.74-.34,.83-.11,.13,.37-.36,.26-.58,.33,.03,.09,.03,.2,.09,.26,1.31,1.22-2.98,2.11-.24,3.28,1.35,.58,2.19,1.72,3.39,2.42,.85,.5,1.91,.98,1.51,2.12-.37,1.05-1.54,.88-2.52,.95-1.6,.13-3.08,.01-4.57-.75-1.78-.9-3.65-1.11-5.47,.23Zm7.73,33.09c-1.22-3.95-3.52-7.24-4.93-11.01-.34-.93,.17-.95,.57-1.34,.58-.53,1.03-.23,1.25,.26,1.41,3.03,4.53,5.07,4.89,8.75,.16,1.57,1.95,2.08,2.76,3.36,1.69,2.66,2.09,5.64,2.88,8.47-3.53-1.91-6.37-5.06-7.42-8.49Zm13.63-39.6c1.81-.78,3.03-3.02,5.55-2.12,.71,.26,1.07,.47,1.04,1.2-.03,.7-.31,1.25-1.11,1.08-1.35-.3-1.69,1-2.54,1.5,.54,.84,.91,2.01,1.68,2.42,1.1,.58,.88,1.22,1.07,2.16,.3,1.41,.56,2.91,1.57,4.23,1.25,1.64,.3,3.4-1.52,3.45-3.22,.06-4.63-1.71-3.65-4.8,.26-.8-.14-1.14-.38-1.64-.77-1.67-1.92-3.09-2.58-4.89-.57-1.54-.26-2.12,.87-2.59Zm9.84,30.32c-1.05,1.38-2.52,1.97-4.16,1.89-1.67-.07-.57-1.47-.87-2.21-.04-.13-.24-.33-.34-.31-2.26,.4-2.04-2.01-3.16-2.92-.63-.51-1.95-1.84-.36-2.76,1.22-.73,2.36,.23,2.69,1.34,.64,2.22,2.51,3.05,4.24,3.26,1.13,.14,2.18,.24,3.23,.51-.67,.61-1.03,.88-1.28,1.2Zm68.54-85.9c-.07-.2-.16-.41-.23-.61,1.17-.46,2.32-.93,3.87-1.54-.93,2.25-2.52,1.6-3.65,2.15Zm5.5-2.91q-.07,.94-1.77,.81c-.07-1.01,.9-.87,1.4-1.24,.28-.16,.57-.34,.83,.01,0,.04-.3,.27-.46,.41Zm-165.63-22.26c-3.86-1.15-7.12,1.95-10.94,1.15,1.25-3.35-1.98-1.1-3.19-1.89,1.04-.28,1.88-.46,2.68-.73,.38-.13,.97-.23,.84-.81-.06-.26-.48-.66-.71-.64-2.44,.31-4-1.89-6.12-2.19-4.03-.54-8.12-1.03-12.15-.46-1.08,.16-3.42-.88-3.53,1.75,0,.06-.5,.21-.63,.13-1.32-.85-2.88-.41-4.26-.58-2.14-.26-4.99-.48-6.2,1.78-.98,1.82-1.72,.95-2.81,.63-1.45-.46-2.92-.8-1.84,1.95-3.86-2.54-7.63-1.3-11.35-.54-1.21,.24-3.43-.27-2.98,2.44,.14,.87-.71,.21-1.13,.21-2.81-.01-4.99,1.32-7.02,2.99,.93,1.2,2.93-.03,3.01,1.54,.09,1.88-1.82,1.45-2.99,1.78-1.84,.53-3.7,.95-5.5,1.6-.54,.19-1.6,.26-1.51,1.17,.07,.8,.98,.88,1.62,1.15,.83,.34,1.92,0,2.54,1.01-.71,.37-1.37,.73-1.99,1.07,2.38,2.14,4.87,3.39,8.33,2.62,5.58-1.25,11.95,2.99,13.22,8.46,.07,.26,.17,.75-.46,.48-.34-.13-1-.51-.66,.36,.34,.88-.21,2.44,.58,2.58,1.34,.23,2.24,1.31,3.58,1.34-1.75,.21-2.93,.91-3.15,1.99-.16,.77,.17,1.22,.87,1.65,1.17,.71,2.35,.63,3.1-.26,.54-.61,.78-1.4,1.69-.91,.73,.38,0,.9-.16,1.31-.3,.71,.11,1.99-1.54,1.68-1.35-.26-2.89,1.91-2.41,3.18,.81,2.12,1.61,4.24,2.42,6.38,.78-.2,1.14-1.54,2.18-.78,.23,1.18-1.97,1.13-1.25,2.28,1.22,1.95,2.65,3.82,4.13,5.6,.75,.91,1.77,.19,2.65-.06,.8-.21,.7,.63,1.03,.94,1.47,1.42,2.61,1.2,3.35-.66,.83-2.09,.94-4.5,2.91-6.05,.19-.14,.06-.67,.13-1,.38-1.79,1.2-2.86,3.3-3.13,2.45-.31,4.86-1.07,6.21-3.67,.56-1.08,1.79-1.61,3.26-1.74,4.24-.36,8.05-1.94,11.37-4.69-.68-.53-1.67,.34-2.16-.66,.97-.11,1.91-.17,2.82-.38,.36-.1-.54-5.75-.93-6.07-.1-.09-.17-.23-.37-.5,2.78,.4,3.16-2.72,5.57-3.28-.94-.7-1.97-1.15-.9-2.41,1.11-1.31,.03-2.08-1.08-2.55-.61-.26-1.34-.26-2.14-.4,1.08-1.24,2.34-.97,3.55-.87,.97,.07,1.97-.57,1.08-1.17-1-.68-1.17-2.36-2.89-2.21-1.37,.11-1.28-.87-.68-1.72,.77-1.1,2.68-1.4,2.35-3.29,3.08-.6,4.46-4.02,7.62-4.54,.63-.1,1.5-.64,1.47-1.32-.03-1-1.11-.83-1.84-1.04Zm-52.64,.3c-.09-.16-.21-.3-.21-.46,.01-.13,.16-.27,.24-.41,.07,.16,.2,.3,.2,.44-.01,.14-.16,.28-.23,.43Zm253.58,192.67c-.99,.08-1.09,1.33-1.98,1.54-3.82-5.73-9.62-6.56-15.45-2.18-.6,.45-1.19,.75-1.92,.66-1.92-.22-3.58,.36-5.21,1.36-1.49,.92-3,.69-4.3-.62-.3-.3-.89-.5-.62-.98,2.03-3.59-.52-6.51-1.65-9.44-1.62-4.23,.15-8.33,4.71-9.39,1.36-.31,2.7-.73,4.01-1.2,.55-.2,1.38-.6,1.46-1.02,.47-2.72,3.24-3.39,4.6-5.34,.93-1.34,2.44-2.65,4.22-.59,.61,.7,1.32,.41,1.74-.48,.69-1.48,2.52-2.29,3.11-3.19,1.09-1.66,1.54-.7,2.48-.47,1.25,.3,2.65,.13,3.82,.59,1.06,.41,.33,1.24-.15,1.85-1.22,1.51-1.04,2.61,.9,3.28,.48,.16,.86,.6,1.3,.86,3.48,2.09,4.36,1.57,4.49-2.54,.06-1.8,.24-3.6,1.14-5.23,.79,.08,.78,.77,.93,1.19,1.16,3.3,3.54,5.92,4.78,9.26,.69,1.86,3.23,3.23,4.73,5.09,1.18,1.47,2.42,2.99,3.98,4.25,.95,.77,.32,3.03,.51,4.61,.26,2.16-.26,4.56-1.72,6.42-.72,.92-1.47,1.83-1.6,2.95-.41,3.37-2.8,4.88-5.49,6.16-.24,.11-.61,.37-.7,.29-1.94-1.62-4.31,.15-6.35-.87-1.2-.6-2.27-1.01-2.63-2.59-.29-1.28-.92-2.6-2.74-2.69-.73-.03-.27-.82-.14-1.28,.05-.21,.18-.56,.12-.59-.32-.17-.33,.11-.38,.32Zm-264.66-194.35c-1.75-.21-2.75-1.81-4.59-1.77-4.26,.09-8.47-.91-12.78-.47-3.73,.37-7.71-.53-10.92,2.29-.16,.14-.5,.31-.64,.24-2.88-1.48-5.23,1.01-7.89,1.07-1.28,.03-2.59,0-3.63,1.11,.78,.67,2.25,.53,2.08,2.01,.4,.1,.93,0,1,.6,.01,.13-.09,.37-.19,.4-.54,.17-1.03,.11-1.25-.51-3.73-2.62-4.57-2.42-7.11,.7-1.42,1.77-.57,2.96,.73,3.62,1.14,.57,2.09,1.28,2.79,2.18,2.02,2.59,4.47,1.91,6.72,.83,1.38-.64,1.27,.66,1.24,.8-.33,1.92-2.01,3.01-3.08,4.46-.57,.78-1.28-.5-2.01-.58-.34-.03-.7-.07-1.01,0-1.82,.38-3.03-.91-4.76-1.3,1.07-1.05,2.34-.09,3.12-.98-.2-1.35-1.95-.33-2.15-1.44-.4-2.14-2.41-1.69-3.69-2.29-1.01-.46-1.21,.54-.88,1.22,.31,.67,.85,1.34,1.47,1.75,1.03,.7,2.81,.95,.64,2.51-.56,.38,.04,.93,.53,1.18,.71,.38,1.47,.71,2.25,1.08-1.45,1.51-3.63,1.69-3.79,.44-.41-3.49-3.29-2.42-4.74-2.09-1.32,.28-2.34,1.21-3.72,.14-.33-.26-.97-.2-1.14,.24-.13,.36-.03,1.01,.23,1.25,.64,.57,1.42,.98,2.14,1.48,.9,.63,2.41-.48,2.88,.64,.8,1.92,2.68,1.41,3.25,.91,1.58-1.38,2.21-.58,3.03,.61,.77,1.13,2.07,.74,2.86,.41,1.05-.44,.5-1.5-.03-2.22-.4-.54-1.13-1.01-.56-1.75,.21-.27,.97-.5,1.18-.34,.61,.47,1.6,.68,1.31,1.95-.38,1.68,.74,2.36,2.24,2.52,1.04,.1,2.08,.16,3.12,.16,3.13,.03,6.27,.04,9.41,.01,1.14-.01,2.08-.54,2.25-1.75,.17-1.18-.85-1.24-1.68-1.57-1.64-.63-3.3-.68-4.87-.13-1.72,.6-3.39,.4-5.1,.27-.74-.06-1.6-.26-1.52-1.03,.06-.63,.8-1.03,1.67-.84,2.45,.56,4.91-.17,7.45,.26,1.71,.28,3.87,.66,5.67-.54,.53-.34,1.38-.94,.6-1.22-2.39-.87,.23-1.42,.01-2.09,2.71-.58,4.47-2.04,4.64-4.99,0-.06,.31-.13,.48-.16,2.38-.26,4.14-1.71,6.11-2.89,3.18-1.92,6.41-3.76,9.88-5.14,.54-.21,1.65-1.14,.74-1.25Zm-34,7.9c-.34-.67-.68-1.32-1.31-2.51,2.48,1.13,4.71,.47,6.82,.94-1.78,1.03-4.17-1.25-5.51,1.57Zm68.78,147.13c-1.85-1.44-3.73-3.87-6.14-3.87-4.64,.03-8.22-3.2-12.65-3.5-.46-.04-.98-.04-1.01-.84-.1-4.74-3.1-7.88-7.42-7.39-1.55,.19-3.05-.73-3.4-1.41-.94-1.79-2.86-2.07-4.06-3.39-.6-.66-1.62-1.84-3.01-1.54-2.91,.63-5.67,.58-7.96-1.71-.94-.94-.95,.66-1.58,.6-.1,.4-.4,.54-.77,.53-.09,0-.17-.2-.27-.31,.3-.16,.6-.31,.88-.47,.06-.31,.16-.97-.21-.83-2.05,.8-4.5,.97-5.93,2.93-.9,1.24-1.37,2.81-3.12,.8-.58-.66-1.52-1.03-2.76-.38-2.46,1.28-4.56-.3-4.89-3.15-.2-1.65,1.51-3.26-.16-4.99-1.61-1.65-3.56-.34-5.23-.97-.17-.06-.34-.11-.56-.2,.4-2.08,.3-4.29,1.68-6.12,.28-.38,.33-.78-.17-1.1-1.3-.81-4.46,.41-4.93,1.91-.67,2.19-5.37,3.42-6.69,1.51-1.38-1.95-3.22-3.9-2.41-6.85,.4-1.4,1.17-2.95,.26-4.56-.13-.23,.48-1.14,.95-1.41,2.35-1.35,4.66-3.06,7.65-1.41,.61,.34,2.14,.7,2.15-.28,.04-1.37,.71-.9,1.38-1.14,2.08-.73,3.79,.91,5.8,.74,.83-.07,1.52,1.03,1.41,2.19-.14,1.41,.85,2.41,1.6,3.42,.27,.37,.6,1.31,1.35,.97,.68-.3,.91-1.08,.74-1.81-.34-1.51-.64-3.05-1.21-4.49-.73-1.81-.46-3.22,1.08-4.4,1.01-.78,1.95-1.61,3.12-2.26,1.57-.88,3.62-2.02,2.02-4.52-.24-.38-.17-.68,.16-.88,1.62-1.01,1.88-3.69,2.99-4.14,2.96-1.2,3.95-3.99,6.04-5.75,1.11-.93,2.72-1.24,4.23-1.89-.3,2.12,.11,2.81,.93,2.24,2.15-1.51,4.81-1.89,6.96-3.35,.66-.44,.14-.87-.06-1.32-.2-.47-.7-.9-.91-.48-1.14,2.36-2.61,.38-3.79,.23-1.18-.14-2.18-1.24-1.11-2.51,1.34-1.61-.16-1.71-.97-2.02-.53-.19-1.21,.04-1.82,.1-.2,.36-.63,.46-.83,.21-.27-.36,.26-.44,.43-.66,.51-.87,1.42-1.22,2.25-1.13,3.92,.47,7.59-.13,10.97-2.24,.01,0,.19,.24,.3,.4-1.42,1.84-2.51,3.86-3.38,6.42,2.89-.36,5.3,.6,7.79,1.25,1.07,.28,1.18-1.11,.94-1.27-1.3-.84,.03-4.26-3.12-3.18-.27-.87-1.89-.97-1-2.63,.81-1.51,.53-4.22-.53-4.9-1.54-1-2.34-3.26-4.77-3.13-.71,.04-2.14-1.32-2.14-2.04,.01-3.43-3.29-4.83-4.09-7.73-.87,.6-1.32,1.2-1.47,2.04-.24,1.34-1.58,2.05-2.44,1.88-1.07-.2-2.69-.81-2.72-2.25-.04-1.87-1.27-2.39-2.31-3.56-2.22-2.48-4.94-1.69-7.38-2.41-1.32-.4-1.97,.1-1.6,1.88,.46,2.05,1.3,4.4-1.01,6.11,3.45,1.77,4.04,4.7,1.17,5.91-2.55,1.07-1.78,2.44-1.52,4.03,.1,.6,.5,1.18,.46,1.77-.03,.53-.14,1.14-.9,1.44-.74,.28-.98,.01-1.51-.43-1.61-1.32-2.36-2.99-2.31-5,.01-.81,.06-1.48-.93-1.47-2.88,.07-5.17-1.38-7.51-2.75-2.09-1.22-5.41-.43-6.3-3.73-.03-.1-.3-.17-.47-.19-1.37-.19-1.35-1.04-1.17-2.14,.41-2.45,1.91-4.14,3.62-5.8,2.24-2.18,6.14-2.35,7.22-6.04,.06,1.5,.46,2.95-1.03,4.13,1.44-.66,2.54,1.58,3.15,.9,1.65-1.87,3.08-1.14,4.74-.4,.46,.21,1.11,.11,1.22-.6,.11-.68-.58-.64-.91-.94-1.74-1.61-4.39-1.92-5.95-4.1,.67-.14,1.17-.27,1.67-.34,3.13-.48,3.76-1.38,2.98-4.19-.06-.21-.13-.58-.01-.66,2.68-2.01-.28-2.05-.98-2.88,1.52-2.07,3.29,.7,5.18-.34,2.21-1.21,2.05,3.15,4.53,2.58-.27,.3-.46,.5-.67,.54-1.05,.17-1.89,.51-1.74,1.82,.11,.9,.87,.81,1.42,.77,1.27-.09,1.64-.94,1.28-2.04-.2-.6,0-.87,.46-.88,.38-.01,1.15,.3,1.14,.38-.19,1.48,1.62,.93,1.82,1.82,.36,1.55-1.24,1.84-1.95,2.69-.11,.13-.34,.31-.31,.4,.94,2.65-1.27,1.95-2.24,1.82-1.1-.16-1.88-.06-2.55,.77-.26,.31-.57,.78-.11,1.15,.81,.66,1.72,.71,2.71,.37,1.81-.6,3.33-.4,4.64,1.24,2.12,2.65,5.24,3.23,8.36,3.75,.31-1.08-.7-1.25-.94-1.87-.13-.16-.38-.4-.34-.47,.2-.36,.5-.2,.77-.04,.7,.34,1.41,.68,2.12,1.03,.68-2.91,.5-3.29-1.84-5.07-.91-.7-1.74-1.65-.7-3.01,.95,.63,1.84,1.11,2.46,2.02,.5,.7,1.37,1.28,2.24,.61,3.46-2.65,3.26-3.93-.83-5.81-.4-.19-.91-.27-1.15-.58-1.13-1.5-3.38-.46-4.47-1.79,.31-1.2,2.12-.43,1.75-1.15-.4-.78,.1-2.08-1.58-2.55-2.35-.67-3.97-3.26-6.89-2.89-.28,.03-.67-.68-1.01-1.03-2.86-2.85-5.87-5.18-10.33-4.67-1.32,.16-2.55,1.25-3.95,.57-2.96-1.45-5.3-.47-6.81,2.89-.94,2.07,.4,4.44,2.96,5.46,1.01,.4,1.94,1.01,2.89,1.52,.19,.47,.63,1.01,.51,1.4-.38,1.47-2.65,1.68-2.51,3.63,.01,.24-.53,0-.81-.23-1.18-.94,.36-2.26-.6-3.35-.91-1.03-2.11,.13-3.05-.77-1.52-1.45-2.25-3.42-3.53-4.97-1.67-2.02-1.28-2.75,1.18-3.26,1.27-.26,2.24-1.65,2.25-2.83,.01-1.03-1.45-.51-2.25-.71-.43-.1-.84-.24-1.27-.26-3.29-.1-4.04,.83-3.29,4.1,.24,1.05,.44,2.09-.94,2.54-.98,1.51-.14,3.06,.04,4.63q-2.01-.51-4.22,1.51c.47,.6,1.5,.3,1.82,1.13-.8,.03-.67,.95-1.17,1.21-1.87,1.01-6.32,.11-8.18-1.6,1.17-.83,2.64,.36,3.77-.58,1.69-.46-.4-1.45,.3-2.05,.53,.3,1.15,.74,1.57,.04,.37-.6-.27-.91-.73-1.14-.77-.38-1.57-.73-2.34-1.11-1.15-.56-2.89-4.37-2.41-5.44,.31-.67,1.22-1.28,.37-2.01-.78-.68-1.75-.64-2.56,.13,.19,.46,1.15,.63,.75,1.17-.46,.64-1.07-.21-1.65-.2q-1.15,.3-1.37,2.52c-.53-.78-1.05-1.44-1.91-1.69-.28-.06-.66-.26-.85-.16-.5,.27,.19,.67,0,1.03-1.52-.17-2.86-2.01-4.56-.48-.04,.07-.09,.13-.13,.2-.04-.03-.1-.07-.14-.1,.06-.04,.13-.09,.19-.13,.19-.64,.14-1.13-.48-1.58-3.32-2.44-7.38-2.19-11.12-3.02-.7-.16-2.58,.23-2.34,.83,.88,2.19-1.48,3.26-1.34,5.07-.41,.31-.8,.64,0,.94,.54,.27,1.3,.38,1.6,.81,1.28,1.84,2.76,1.18,4.3,.53,1.37-.58,1.44-2.55,3.06-2.86-.81,3.06,.9,5.11,3.93,4.7,1.45-.46,2.89-.23,4.93,.04-1.91,1.27-3.49,.67-4.93,.85-.74,.06-1.79-.44-2.05,.56-.23,.87,.91,1.14,1.38,1.72,.83,1.03,1.79,.17,2.68,.34,.4,.09,.64,.27,.57,.68-.04,.2-.2,.64-.46,.38-1.62-1.57-3.75-.41-5.63-1.11-2.18-.81-4.46-2.81-7.08-.93-.91-2.07-1.99-.88-3.12-.21-.09,.04-.57-.57-.87-.9-.51-.56-.75-1.41-1.68-1.57-.53,.88-.43,3.08-2.34,1.08-.19-.2-1.03,.09-1.48,.3-2.39,1.18-5.23,.94-7.55,2.38-.84,.51-1.62-.28-2.44-.5-2.61-.68-5.01-1.89-7.89-1.94-3.25-.03-6.65-.36-9.73-1.2-3.4-.94-6.65-2.08-9.97-.6-1.74,.77-4.12,.57-5.13,2.59-.67,1.35-1.57,2.01-3.03,2.04-.6,.01-1.31,0-1.47,.8-.19,.94,.64,1.13,1.22,1.47,1.89,1.13,3.8,2.24,5.71,3.33-1.01,1.01-2.48,1.14-3.1,.31-.9-1.18-1.69-.63-2.45-.34-1.13,.41-2.14,1.1-3.19,1.65,1.58,3.02,4.33,3.09,7.06,2.65,.95-.14,1.54-.63,1.94,.64,.48,1.6-.81,1.2-1.51,1.41-.57,.17-.9,.73-1.62,.74-1.48,.03-3.65,2.19-3.5,3.32,.21,1.74,2.59,3.76,4.26,3.33,.98-.26,1.08,.03,1.05,.74-.04,1.42,.3,1.71,1.87,1.37,1.22-.26,3.59,.27,3.85,.98,.54,1.64-1.47,2.16-2.56,3.12-1.41,1.24-3.62,1.14-4.6,2.95,.5,.23,.98,.13,1.52,.04,3.63-.6,6.24-3.08,9.14-4.97,.37-.28,.75-.41,1.14-.04-.28,.11-.58,.21-.87,.33,.13,1.07,.74,1.67,1.77,1.31,.78-.27,1.35-.81,1.57-1.87,.28-1.47-.66-.88-1.22-1.11-.77-.3,.01-1.05-.36-1.68-.3-.54,.87-.83,1.37-1.22,.51-.4,.81,.48,1.32,.46-.14,.41-.61,1.2,.34,.85,1.5-.54,3.52-.77,4.09-2.34,.46-1.27,1.55-.94,1.69-.81,2.51,2.19,5.81,1.21,8.62,2.26,1.79,.68,3.02,2.34,4.99,2.58,.54,1.6,1.24,3.38,2.75,3.96,2.07,.8,2.05,2.42,2.46,3.99,0,.03-.13,.1-.19,.16-.01,.01,.01,.06,.01,.06,1.25-.8,.77-2.34,1.41-3.4,1.24,.94,1.69,2.34,1.81,3.75,.06,.83,.14,1,.95,1.03,2.35,.1,2.91,1.98,2.49,3.6-.37,1.45-.19,1.85,1.05,2.48,3.08,1.61,4.26,4.17,3.92,7.73-.16,1.61-.47,3.22-.51,4.87-.1,3.76,2.07,6.44,3.65,9.4,.77,1.47,1.72,2.96,3.72,3.28,.91,.14,1.62,.8,2.12,1.78,1.04,2.07,1.62,4.46,3.73,5.87,.28,.19,.58,.64,.3,.87-1.64,1.31,.07,1.52,.67,1.98,.6,.47,1.81,.46,1.87,1.28,.19,2.42,2.38,2.85,4.07,3.93-1.3-2.21-2.59-4.42-3.89-6.64-.85-.73-1.15-1.71-1.31-2.76-.4-.11-.9-.13-1.21-.38-.48-.38-.67-1-.61-1.64,.03-.44,.28-.51,.7-.46,.68,.11,1.07,.53,1.25,1.15,.1,.33,.17,.67,.24,1.01,.56,.85,1.13,1.72,1.68,2.58,2.68,1.55,3.82,4.59,6.27,6.4,1.38,1.03,2.26,2.41,1.92,4.33-.17,.93,.33,1.61,1.18,2.12,3.09,1.85,6.37,3.26,9.79,4.33,.64,.2,1.32,.5,2.02,.06,1.4-.88,2.63-.33,3.49,.73,1.4,1.72,3.4,2.29,5.3,2.56,1.84,.26,3.16,1.3,3.63,2.55,1.3,3.5,4.91,3.58,7.24,5.5,.4,.34,.85,.16,1.05-.33,1.18-3.1,1.79-1.34,2.65,.23,1.31,2.36,1.71,5.91,.21,6.74-4.03,2.26-3.02,6.55-4.27,9.9-.24,.63,.16,1.92,.7,2.32,1.92,1.47,2.58,3.62,3.66,5.58,1.88,3.43,3.09,7.42,7.65,8.67,1.4,.38,2.24,1.97,2.58,3.66,.4,2.07-.09,4.02-.33,5.98-.67,5.27-1.07,10.64-2.54,15.7-.88,3.06-1.14,6.17-1.95,9.19-.1,.37-.2,.75,.11,.95,2.65,1.78,.66,4.09,.66,6.14-.01,.68,.03,2.35-1.77,1.51-.19-.09-.91,.53-1.1,.95-.4,.94,.64,.44,.88,.75,.54,.68,.57,1.45,.48,2.35-.31,2.95-.14,5.75,3.16,7.14,.27,.11,.46,.46,.68,.7-2.32,1.72,1.69,1.74,.93,3.25-.13,.26,6.21,.61,7.32-.14-.5-.17-.88-.31-1.28-.46-2.38-.84-2.49-3.16-3.29-5.03-.58-1.35,.6-1.89,1.2-2.82,.63-.95,1.21-1.75,2.12-2.49,1.01-.83,1.47-2.21-.16-2.82-2.08-.8-.94-2.25-.26-2.36,2.59-.46,1.6-3.8,3.89-4.37,.38-.1,.27-1.24-.36-1.1-1.3,.27-1.42-.33-1.14-1.21,.44-1.34,1.05,.14,1.62-.01,.68-.19,1.75,.27,1.72-1.03-.06-2.11,1.21-2.28,2.93-2.51,3.79-.51,4.23-1.22,4.03-4.99-.06-1.2,.64-1.3,1.5-1.15,1.82,.33,2.95-.54,3.9-1.99,.84-1.3,2.11-2.36,2.93-3.58,1.32-1.95,3.5-3.83,3.23-6.35-.21-1.95,.57-2.85,1.92-3.43,1.75-.75,3.3-2.16,5.4-2.04,1.14,.07,1.87-.73,2.34-1.45,1.44-2.28,2.89-4.76,2.79-7.46-.13-3.83,1.52-6.54,4.16-8.99,1.79-1.67,2.22-4.42,.67-5.63Zm-79.25-119.61c1.3,0,.07,1.71,1.22,1.94-.47,1.13-1.5,1.13-2.36,1.28-.23,.04-.56-.41-.83-.66,1.84,.03,.34-2.56,1.97-2.56Zm-37.35,7.45c2.35-.75,4.7-1.61,6.69,.61-2.29,2.64-4.4-.54-6.69-.61Zm14.09-3.49c-.98,.01-2.55,.46-2.61-.85-.04-.75,1.58-.93,2.68-.75,.75,.11,1.61,.09,2.32-.16,1.97-.67,2.72,.33,2.99,2.26-1.68-1.92-3.59-.5-5.38-.5Zm350.57,122.59c-2.63-.74-4.96-.74-6.47-3.09-.73-1.15-2.31-1.77-3.31,.15-.79,1.52-2.59,1.3-3.16,.75-1.4-1.36-3.01-1.34-4.75-1.38,1.6-2.77,1.21-3.84-1.93-4.69-1.28-.35-2.33-1.6-3.94-.98-.7,.27-.82-.76-1.15-1.22-.34-.47-.33-1.3-.74-1.61-.86-.65-1.99-.99-1.75-2.41,.05-.27,.19-.33,.32-.09,1.06,1.97,4.66-1.46,4.92,2.35,.1,1.52,.7,2.43,2.23,.84,1.3-1.36,2.67-1.61,4.62-.72,3.49,1.59,7.07,2.9,10.07,5.39,.2,.16,.61,.34,.59,.45-.67,3.42,2.93,3.77,4.44,6.28Zm-174.96-151.92c2.75,.66,4.13,3.54,6.94,4.2-1,1.01-2.01,1.75-3.5,1.38-.74-.19-1.8,.25-1.33-1.37,.21-.73-.8-1.53-1.7-1.76-1.03-.26-.86,.9-1.36,1.31-.53,.43-.37,1.4-1.16,1.64-1.15,.36-.36,3.81-2.86,1.87-1.09-.84-2.88-1-3.05-2.86-.11-1.24-1.36-1.49-2.09-2.15-1.03-.93-1.53-2.12-1.21-3.28,.32-1.12,1.67-.72,2.57-.7,2.58,.06,5.08,.04,7.17-1.84,.15-.13,.87-.15,1.2-.09,3.16,.64,6.43-.44,9.58,.67,1.53,.54,1.08,.95,.22,1.72-2.85,2.56-5.9,1.13-8.91,.52-.4-.28-.88-.74-1.22-.09-.27,.53,0,.96,.72,.83Zm-23.84,61.18c.44-.46,.75-1.52,.2-1.57-2.26-.2-1.97-2.65-3.42-3.56-.98-.61-1.15-2.12-2.31-2.72,.83-1.5,2.26-3.2-1.17-3.06,.13-.51,.26-1.04,.38-1.55-.03,.04-.03,.09-.06,.09-.41,0-.85,.07-1.24-.04-1.64-.47-1.47,1.71-2.76,1.84-.56,.06-1.68,.14-.28,1.28,1.04,.84,.85,2.46-.95,3.08-2.21,.75-3.01,2.01-2.99,4.39,0,.3-.27,.63-.48,.87-.38,.41-.74,.84-.24,1.34,.37,.38,.94,.63,1.44,.3,1.52-.98,4.12-.84,3.75-3.82-.1-.81,.74-1.69,1.6-1.88,.7-.16,1.52,.04,2.01,.9,.61,1.08-.14,1.31-.84,1.72-.2,.11-.11,.67-.3,.88-1.2,1.38,.61,3.66-1.61,4.77,3.22-.91,6.37-1.08,9.51-1.25,.2-.16,.38-.31,.57-.47-1.03-.1-2.15-.14-.8-1.52Zm-9.41-5.48c-.13-.01-.24-.1-.36-.16l.19-.19c.11,.06,.23,.13,.34,.19-.06,.06-.13,.17-.17,.16Zm165.36,74.28c-1.96,1.47-2.7,2.92-1.18,5.18,.55,.82-1.45,1.62-1.52,3.03-.03,.62-.7,1.48-1.06,2.25-.56,1.18-1.08,3.21-3.06,1.18-.28-.29-.99-.17-1.51-.2-3.27-.18-5.21-1.91-5.44-4.99-.05-.66,.08-1.72,.81-1.73,2.97-.02,4.15-3.51,7.08-3.5,.11,0,.27-.23,.33-.38,.49-1.22,1.03-2.88,2.27-2.91,1.04-.02,2.11,1.29,3.27,2.08Zm-.17,18.51c-1.74,.83-3.19,.37-4.94,.01-2.78-.56-5.68-.34-8.52-1.1-1.81-.47-3.63-.01-4.8-2.35-.5-1.01-2.68-1.35-3.96-2.52-1.97-1.78-2.89-4.14-4.36-6.17-1.1-1.51-2.14-2.92-3.56-4.14-.71-.6-2.29-1.6-1.45-2.36,.73-.66,2.85-.57,3.59,.68,.81,1.35,2.38,1.74,3.16,3.05,.14,.23,1.2,1.74,1.68-.07,.46,.4,.91,.78,1.37,1.18,.11,1.91,2.19,4.33,3.65,4.37,1.3,.06,1.3,.95,1.07,1.91-.17,.67-.28,1.37-.58,1.97-.63,1.27-.14,1.57,1.08,1.91,2.38,.68,4.8,.84,7.22,1,1.2,.07,2.18,.24,3.08,1.34,.84,1.04,2.42,.78,3.73,.74,.84-.03,1.71-.44,2.55,.56Zm-81.56-125.55c-2.96,.58-5.34-.16-7.57-1.87-.6-.46-1.08-.97-.69-1.37,3.86-3.93,5.75-10.17,12.36-10.91,3.02-.34,5.85-1.11,8.64-2.27,.59-.24,1.94-.61,2.18,.65,.21,1.11-.84,1.29-1.68,1.62-3.56,1.39-7.52,1.69-10.7,4.11-1.95,1.49-3.58,3.35-4.89,5.27-1.43,2.1,1.18,3.19,2.34,4.76Zm-10.92,130.17c.98,2.31,1.77,3.96,.76,6.26-1.28,2.91-1.95,6.1-2.85,9.18-.79,2.72-2.28,4.01-3.95,3.39-1.48-.55-2.6-3.86-1.93-5.72,.09-.24,.26-.46,.43-.65,1.9-1.98-1.55-5.42,1.91-6.96q3.13-1.39,5.62-5.5Zm112.86-64.1c.25,1.15,.42,1.81-.9,2.25-1.24,.41-3,.66-3.24,2.59-.06,.45-.62,.6-1.09,.51-.51-.1-.88-.63-.66-.94,.79-1.06-1.66-1.69-.35-2.56,1.64-1.1,2.82-2.93,4.96-3.24,4.91-.7,7.18-2.77,8.41-7.47,.22-.84,.98-1.43,.02-2.35-.64-.62,.05-1.5,.58-1.74,1.72-.78,1.64-2.25,1.59-3.98,2.01,.85,3.35,3.58,5.99,1.76-1.33,2.23-2.59,4.2-5.73,3.48-1.32-.31-1.1,.78-.59,1.48,2.43,3.36-1.15,6.14-.89,9.29,.03,.39-.62,.45-1.02,.62-1.66,.7-3.59,.39-5.13,1.81-1.14,1.05-.92-.96-1.97-1.48Zm-318.51-79.54c-.07-.98-1.1-.73-1.92-.58-.95,.17-1.74-.23-1.94-1.3-.11-.68-.33-1.25-1.15-1.04-.7,.17-1.51,.66-1.35,1.37,.73,3.18-.71,1.42-2.02,1.14-1.82-.4-3.02-3.25-5.68-1.15,.07-.56,.06-.81,.13-1.05,.63-1.91,.68-2.46-1.95-2.12-2.68,.34-4.17,2.46-6.55,2.95-.54,.1-.67,.53-.64,.98,.07,.8,.73,.47,1.18,.6,2.05,.63,4.13,1.03,6.18,1.81,1.95,.77,3.92,2.25,5.97,2.21,2.71-.04,5.23-1.68,8.13-1.45,1.25,.1,1.69-1.4,1.62-2.35Zm-15.88,.33c-.21-.84-.3-1.5,.73-1.77,.5,.84-.11,1.24-.73,1.77Zm385.99,175.28c1.54,.41,2.2,1,2.81,2.32,.58,1.27,1.78,3.19,4.05,2.29,.34-.14,.71-.2,.94,.15,.26,.42,.16,.96-.19,1.18-2,1.25-1.61,5.13-5.15,4.71-.2-.02-.58,.45-.67,.75-.83,2.7-3.86,3.73-4.78,6.37-.54,1.55-2.61,.72-3.4,2.02-.16,.26-.73,.11-.46-.4,.7-1.36-2.69-.61-1.17-2.31,.99-1.11,1.94-2.23,3.28-2.99,1.04-.59,2.1-1.2,2.67-2.41,.73-1.53,1.59-3,3.72-1.8,.46,.26,1.03,.29,1.32-.37,.25-.58,.01-1.01-.46-1.35-.39-.28-1.27-.53-.81-1.07,2.26-2.67-.26-4.21-1.3-6.11-.12-.22-.18-.47-.37-.99Zm-261.11-149.14c.31-.48,1.07,.05,1.32-.68-.54-.88-1.43,.23-2.01-.3,1.41-2.89,1.42-2.91,3.71-.93,.35,.31,.58,.29,.84,.05,1.66-1.52,3.91-.56,5.83-1.46,1.71-.81,2.91,1.26,3.62,2.43,.55,.91-.95,1.67-1.94,2.3-3.06,1.94-6.22,2.14-9.57,1.04-.21-.07-.4-.19-.59-.28,1.82-1.93-1.04-1.32-1.2-2.16Zm163.73-35.08l.03,.03v-.06s-.01,.01-.03,.03Zm-.2-1.67c.5-1.18-.19-1.88-1.21-1.57-1.61,.5-1.81-.6-2.26-1.55,0-.33-.01-.66-.01-1-2.34-1.75-4.54-1.41-6.87,1.08,.01,.14,0,.28-.01,.43,1.42,1.75-1.24,.5-.91,1.67,1.71,1.15,3.85,1.98,6.01,2.55,1.78,.48,3.65,1.27,5.47,.06-.41-.51-.48-1.03-.2-1.67Zm-7.06-1.5c.01-.07,0-.16,.04-.2,.03-.04,.1-.03,.16-.04,.03,.06,.06,.13,.07,.19-.09,.01-.19,.04-.27,.06Zm40.61,126.28c-.17,0-.35-.03-.51,.01-1.3,.36-2.68,1.49-3.27-1.01-.42-1.79-1.79-3.24-2.72-4.8-1.28-2.15,.27-3.73,.26-5.56,0-.45,.44-.81,.93-.67,.55,.16,1.26,.16,1.49,.86,.13,.41,.38,.99,.21,1.26-1.75,2.82-.95,3.84,2.27,4.43,.87,.16,2.78,2.75,1.83,5.03l.06-.07c-.37,.02-.65,.12-.58,.58l.04-.07Zm-294.08-103.6c-.03-.08-.07-.23-.1-.23-.65,0-6.42-1.16-6.96-1.43-1.53-.74-1.19-.82-.16-2.22,.79-1.08,1.13-1.99,2.71-2.16,2.96-.33,4.51,.91,4.48,3.93,0,.71-.71,1.44,.02,2.14l.02-.02Zm294.1,113.82c.06,2.08-.86,2.45-2.02,2.5-.52,.02-1.08-.21-1.56-.1-.98,.23-2.88-.77-2.79,.8,.12,1.95,1.77,.32,2.72,.37,.73,.04,1.48-.2,1.57,.82,.11,1.25-.77,.49-1.24,.55-.71,.09-1.12,.34-.83,1.19,.31,.9,1.96,1.9,.44,2.75-1.69,.93-1.41-1.46-2.52-1.91-.06,.92-.09,1.87-.18,2.81-.05,.49-.4,.79-.9,.71-.21-.03-.56-.39-.54-.45,.92-1.93-1.14-3.7-.09-5.79,1.06-2.12,1.74-4.06,4.71-2.89,1.09,.43,2.12-.19,3.24-1.36Zm-87.13-139.06c1.14-.58,2.08-1.65,3.58-.24,.51,.49,2.04-.29,3.02-.88,.45-.27,1.1-.14,1.25,.52,.1,.45-.24,.95-.7,.94-4.05-.1-7.7,1.82-11.64,2.23-.12,.01-.25-.18-.38-.28-.06-.99,1.18-.52,1.4-1.29-1.32-.18-2.61-.35-4.27-.58,1.82-1.58,3.67-2.42,5.68-2.68,1.17-.15,2.01,.51,1.36,1.93,.1,.21,.2,.43,.3,.64l.39-.31Zm113.89,15.15c-.71,1.68-2.08,1.89-3.31,2.07-1.58,.23-3.16-.02-4.8,.55-1.11,.38-2.84-.38-2.97-2.12-.11-1.5,1.15-2.59,2.3-2.03,1.98,.97,3.98-.21,5.86,.58,.87,.37,1.8,.59,2.92,.94Zm-330.89-11.14c1.59,1.59,4.88,.37,6.14,3.38,.46,1.1,.68,1.66-.84,1.51-.57-.06-1.11-.19-1.74,.19-.45,.27-2.08,1.14-1.16-.98,.21-.5-1.17-.75-1.9-.51-2.72,.89-1.48-2.41-2.99-2.79,.51-.84,1.4-.57,2.5-.81Zm25.65,107.72c1.75-2.12,4.05-1.87,6.04-1.26,2.39,.74,4.58,2.12,6.85,3.23,.4,.2,.78,.47,.59,1.02-.15,.43-.56,.37-.88,.35-1.43-.1-2.73,.16-4.09-1.15-2.26-2.16-5.17-3.24-8.51-2.2Zm245.15-106.04s-.01,.05,0,.05c.15,.17,.37,.6,.54,.32,1.86-3,3.87-1.16,5.83-.21,.43,.21,1.14,.39,.92,1.06-.1,.32-.62,.62-1,.7-2.04,.42-4.17,.22-6.18,1.06-.84,.35-.91-.38-.57-1.11,.27-.58,1.49-.98,.46-1.88Zm-281.39,4.49c-1.53,.05-2.33-1.48-3.77-1.27-.09,.01-.37-.38-.34-.53,.08-.39,.5-.61,.8-.47,.96,.44,1.54,1,1.74-.83,.06-.57,2.51-1.64,4.18-1,.49,.19,1.13,.56,.71,1.1-.66,.85-.3,2.34-1.7,2.67-.59,.14-1.2,.25-1.62,.33Zm342.82,189.55c.51,1.65,3.82-2.1,3.56,1.61-.1,1.46-.8,2.64-2.48,2.72-.83,.04-2.84-3.21-2.53-4.08,.21-.59,.68-.76,1.45-.25Zm-27.64-71.34c1.72,1.27,1.72,5.24-.04,5.98-.69,.29-1.67-.31-1.71-.71-.16-2.04-1.54-1.91-3.3-1.64,.89-1.25,1.77-1.52,2.81-1.62,.9-.09,1.94-.17,1.75-1.56l-.04,.07c.63,.25,.53-.24,.58-.58l-.06,.07Zm-257.87-11.94c-2.43,.95-4.91,1.31-7.52,.7,3.38-3.1,4.19-3.18,7.52-.7Zm256.64,36.93c-1.84-.9-3.54,.93-5.46,.13,1.76-.87,3.61-.68,5.38-.9,.68-.09,1.33,.55,1.93-.53,.66-1.18,.94,.1,1.36,.49,.87,.82-.04,.91-.47,1.13-.62,.32-1.39,.43-1.88,.87-.72,.63-1.68,1.61-2.28,.81-.73-.97,1.23-1.08,1.43-2Zm-96.77-152.66c-1.35,.75-2.8,.76-3.96,1.64-.53,.4-1.6,.26-2.12-.46-.42-.59,1.68-.77,.4-1.69-.06-.04-.17-.01-.25-.01,.83,.05,1.72,.32,2.46,.09,1.26-.39,2.48-1.85,3.47,.43Zm132.06,15.83c-2.26,1.76-4.18,1.15-6.1,.17-.41-.21-.75-.5-.56-1.01,.19-.52,.6-.43,1.07-.35,1.78,.27,3.61,.28,5.59,1.19Zm-92.08,115.71c-.01,.84-.31,1.72-1.2,1.75-.85,.01-1.52-.48-1.57-1.62-.04-1.3,.37-2.66-.47-3.87l.04-.04c1.88,.57,3.26,1.58,3.19,3.79Zm80.22-110.72c-.82,.37-1.71-.85-2.78-.4,.26-.85-.13-1.71-.03-2.51,.05-.41,.97-.47,1.25,.12,.48,1.04,1.56,.57,2.27,1.04,.45,.29,1,.44,.96,1.06-.08,.99-.88,.54-1.66,.68Zm53.35,5.02c-1.6,.88-3.3,.8-5.06,.7,1.4-2.4,3.2-2.63,5.06-.7Zm-80.3,82.17c-.58,.96-.25,2.62-1.55,3.2-.64,.28-1.15-.7-1.01-1.43,.22-1.19,.58-2.42,1.94-2.79,.55-.15,.63,.42,.62,1.02Zm36.07,40.82c1.63-.05,3.34,.22,4.37-1.52,.1-.16,.93-.14,1.17,.08,.4,.36,0,.63-.35,.96-2.08,1.98-4.09,2.59-5.2,.48Zm-26.81-7.14c-1.35-.55-1.5-1.58-.98-2.75,.1-.23,1.09-.34,1.12-.27,.34,.78,1.25,1.62,0,2.43-.12,.08-.1,.4-.14,.61v-.02Zm-104.24-111.09c-.49,.87-1.4,.96-2.23,1.03-.48,.04-.99-.29-.75-1.01,.26-.8,.84-1.03,1.61-.92,.6,.09,1.22,.14,1.38,.9Zm107.63,115.82c-1.18-.82-2.69-.07-3.85-.96,1.43-.47,2.88-1.03,3.85,.96Zm74.96-103.51c1.44-.58,2.71-.52,3.79,.93-1.54,.37-2.63-.43-3.79-.93Zm-120.36-42.71c0-.33-.02-.66-.02-1,.2,.11,.5,.18,.57,.35,.22,.5-.34,.45-.55,.65Zm32.51,86.47c-.21,.04-.54,.17-.61,.1-.2-.23,0-.41,.24-.5,.13,.13,.24,.26,.37,.4Zm-39.4-86.38c.01,.14,0,.28,0,.43l-.33-.09,.34-.33Zm48.89,141.42l-.11,.33c.04-.11,.07-.23,.11-.34v.02Zm-72.62-107.51c-.88,1.72-2.25,3.09-4.56,2.49-.41-.11-.87-.07-2.02-.16,2.07-.53,3.52-.63,4.53-1.99,.88-1.2,1.61-1.89,.44-3.5-1.07-1.44,.31-3.5-.38-5.23,.13-.1,.24-.2,.37-.3,.8,.77,2.29,1.27,.93,2.81-.57,.63-.14,1.67,.23,1.92,1.65,1.22,1.1,2.73,.47,3.96Zm47.37-15.72c-.93,2.25-2.52,1.6-3.65,2.15-.07-.2-.16-.41-.23-.61,1.17-.46,2.32-.93,3.87-1.54Zm1.85-.75q-.07,.94-1.77,.81c-.07-1.01,.9-.87,1.4-1.24,.11,.14,.24,.28,.37,.43Zm-97.91,24.11c-.17,.36-.9,.23-1.21-.31,.13-.14,.26-.28,.38-.43,.21,.36,1.15,.11,.83,.74Zm-3.09-4.8c-.16,.16-.31,.31-.47,.48-.43-.28-1.14-.14-1.24-.87h-.06s.03-.01,.04-.01c.73-.57,1.21,0,1.72,.4Zm4.16,36.85c.13,.37-.36,.26-.58,.33-.07-.07-.16-.14-.24-.21,.26-.28,.74-.34,.83-.11Zm97.29-56.57s-.3,.27-.46,.41c-.13-.14-.26-.28-.37-.43,.28-.16,.57-.34,.83,.01Zm69.31,28.4c-.1-.1-.2-.21-.3-.31,.21-.07,.57-.23,.61-.17,.19,.3-.06,.41-.31,.48Zm-172.51-9.39c0,.09-.01,.19-.01,.28-.11-.07-.2-.14-.3-.2,.1-.03,.21-.06,.31-.09Zm.03,.31h0l-.04,.04v-.07s.03,.03,.04,.03Zm-195.03,63.35c-.11,.11-.24,.21-.37,.31-.4-.11-.9-.13-1.21-.38-.48-.38-.67-1-.61-1.64,.03-.44,.28-.51,.7-.46,.68,.11,1.07,.53,1.25,1.15,.1,.33,.17,.67,.24,1.01Zm1.68,2.58c-.24,.17-.5,.34-.74,.5-.85-.73-1.15-1.71-1.31-2.76,.13-.1,.26-.2,.37-.31,.56,.85,1.13,1.72,1.68,2.58Zm59.69-32.96c-.2,.36-.63,.46-.83,.21-.27-.36,.26-.44,.43-.66,.13,.14,.27,.28,.4,.44Zm-5.43,56.45c-.1,.4-.4,.54-.77,.53-.09,0-.17-.2-.27-.31,.3-.16,.6-.31,.88-.47,.04,.09,.1,.17,.16,.26Zm-110.71-71.71c-.28,.11-.58,.21-.87,.33-.1-.1-.19-.19-.27-.28,.37-.28,.75-.41,1.14-.04Zm53.53-32.92c-.04,.07-.09,.13-.13,.2-.04-.03-.1-.07-.14-.1,.06-.04,.13-.09,.19-.13l.09,.03Zm80.74-26.54c.08,.16,.21,.3,.2,.44,0,.15-.15,.29-.23,.43-.07-.15-.2-.3-.2-.45,0-.14,.14-.27,.23-.42Zm253.56,193.54c.05-.21,.06-.5,.38-.32,.05,.03-.08,.39-.12,.59-.09-.09-.17-.18-.25-.27Zm-271.57-144.73c-.14,.17-.28,.34-.43,.51-.13-.16-.38-.4-.34-.47,.2-.36,.5-.2,.77-.04Zm114.8-39.57c-.72,.13-.99-.3-.72-.83,.34-.65,.82-.18,1.22,.09-.17,.25-.33,.49-.5,.74Zm-33.43,55.35l.34,.19c-.06,.06-.13,.17-.17,.16-.12-.03-.23-.1-.35-.16l.18-.19Zm132.9-57.9l.07,.18-.28,.05c.01-.07,0-.15,.04-.2,.02-.03,.11-.03,.16-.04Zm40.95,126.01c-.06,.33,.05,.83-.58,.58-.07-.46,.22-.56,.58-.58Zm-87.65-128.33l-.39,.31c-.1-.21-.2-.43-.3-.64,.23,.11,.46,.22,.69,.33Z"/><polyline class="al" points="800.45 961.65 800.45 1052.29 704.55 1052.29"/><polyline class="an" points="813.73 963.6 813.73 1064.74 704.55 1064.74"/></g><g><polygon class="bk" points="0 9.02 55.13 0 55.13 1080.2 0 1071.18 0 9.02"/><path class="ap" d="M41.56,995.61c-.07-.19-1.44-3.96-1.2-8.24,.26-4.54,2.15-6.33,3.48-5.76,1.86,.8,2.83,6.26,2.89,6.62,1.15,6.67,.11,15.42-1.57,19.86-1.16,3.09-2.49,3.71-3.13,3.86,0,0-23.6-4.41-27.57-3.96-.52,.05-2.2,.34-3.6-3.07-1.95-4.77-3.22-16.4-1.55-23.85,1.16-5.15,3.55-7.55,5.27-4.98,.22,.33,1.7,2.55,1.76,6.74,.04,2.73-.54,5.35-1.45,6.72m12.81,19.89c-3.43-.49-6.2,8.05-6.2,19.08s2.77,20.4,6.2,20.93,6.22-8,6.22-19.07-2.79-20.44-6.22-20.94Z"/><path class="b`" d="M27.72,1023.59c1,.15,1.81,2.89,1.81,6.11s-.81,5.72-1.81,5.57-1.81-2.89-1.81-6.11,.81-5.72,1.81-5.57Z"/><path class="bj" d="M40.17,1024.7c1.01,.15,1.83,2.9,1.83,6.14s-.82,5.75-1.83,5.59-1.83-2.9-1.83-6.14,.82-5.74,1.83-5.59Z"/><path class="bg" d="M15.18,1021.02c.99,.15,1.8,2.87,1.8,6.09s-.81,5.7-1.8,5.55-1.8-2.88-1.8-6.09,.81-5.7,1.8-5.55Z"/><path class="aw" d="M16.61,960.91l21.87,2.82c.91,.12,1.65,2.59,1.65,5.52v.26c0,2.93-.74,5.21-1.65,5.09l-21.87-2.89c-.9-.12-1.63-2.57-1.63-5.48v-.26c0-2.91,.73-5.17,1.63-5.06Z"/><path class="ba" d="M21.84,976.19l11.7,1.56c.95,.13,1.73,2.72,1.73,5.79v.26c0,3.07-.77,5.45-1.73,5.32l-11.7-1.6c-.95-.13-1.71-2.71-1.71-5.77v-.26c0-3.06,.77-5.43,1.71-5.3Z"/><path class="at" d="M15.44,932.24c-4.01-6.81-6.47-16.78-6.12-25.32,.03-.74,.28-6.27,1.52-8.1,1.9-2.81,4.72,5.23,6.17,9.41,1.45,4.14,3.72,11.9,5.42,24.85m2.2,.26c-.12-8.48-1-66.8-5.57-72.79-2.12-2.78-3.38-.55-3.38-.55-1.2,2.13-1.5,7.09-1.62,9.16-.93,15.69,7.75,59.06,8.74,63.96m9,1.08c1.65-7.42,12.16-54.97,9.57-66.2-1.22-5.3-2.66-5.92-2.66-5.92,0,0-1.31-.56-2.82,3.14-3.49,8.54-5.94,65-6.1,68.74m7.25,.87c.95-1.54,9.63-15.85,8.78-26.94-.16-2.12-.78-5.47-1.74-6.48-1.26-1.34-2.59,1.86-3.5,4.21-3.37,8.76-6.64,21.06-8.53,28.62m-2.46-.3c.35-22.53,.78-40.92,1.12-53.71,.8-30.32,1.52-46.71-1.01-51.63-1.23-2.39-2.93-1.49-3.99,.62-2.67,5.29-2.45,20.23-2.17,34.8,.36,19.07,.9,42.44,1.72,69.4"/><line class="ao" x1="4.97" y1="17.09" x2="4.97" y2="858.95"/><line class="af" x1="49.4" y1="9.94" x2="49.4" y2="862.32"/><path class="bd" d="M8.49,929.59l38.47,4.6c2.01,.24,3.64,5.65,3.64,12.09v.53c0,6.43-1.63,11.44-3.64,11.19l-38.47-4.88c-1.96-.25-3.55-5.59-3.55-11.94v-.53c0-6.35,1.59-11.3,3.55-11.07Z"/><path class="bb" d="M26.46,703.85c.2,.15,.4-.27,.6-.19l4.71,.24c.4-.27,.82-.24,1.23-.22,.51,.03,.91-1.24,1.05-3.17,.09-1.14,.16-2.29,.22-3.51,.07-1.36,.27-1.92,.69-1.84,.25,.08,.36,.38,.36,1.09-.02,2.44,.07,4.87-.07,7.24v15.84c0,.65,.09,1.29,.07,1.94,0,.86-.13,1.28-.42,1.4-.2,.05-.44-.45-.49-1.1-.04-1-.09-2.08-.13-3.08-.07-1.73-.25-3.31-.73-4.27-.31-.59-.63-.97-1-.77-.35,.12-.76,.18-1.11-.2-.07,0-.13,0-.2,.07-.16,.21-.31,.05-.47-.1-.16-.23-.31-.38-.47-.25-.51,.26-1.04,.17-1.55-.08-.22-.09-.47-.17-.71,.1-.31,.41-.67,.33-.98,.17-.25-.16-.51-.03-.73-.4h-.04c-.49,.26-.98-.34-1.46-.3-.75,.18-1.5-.08-2.24,.1-.42,.12-.82,.1-1.22,.16-.31-.02-.4,.26-.4,1.26-.02,.5,.02,.93,.07,1.43,.09,1.28,.07,2.64,.07,3.93,0,.85-.04,1.64,.04,2.5,.02,.22,.02,.43,0,.65-.04,.42-.07,.85-.07,1.28,0,3.43,1.75,5.6,2.61,6.15l.26,.24c.26,.24,.38,.73,.35,1.44-.04,.79-.18,1.21-.44,1.26-.31,.06-.62-.18-.91-.34-.33-.16-.67-.18-.97-.2-.6,.03-1.19-.29-1.77-.32-.26-.08-.33-.45-.38-1.3-.02-.85,.09-1.56,.09-2.42-.02-4.5-.02-9.06,0-13.62,0-.79-.13-1.57-.09-2.36,.09-1.49,0-3,0-4.42,0-4.5,.02-8.99,0-13.42,0-1.64-.09-3.21-.07-4.85,.02-.99,.04-2.07-.04-3.14-.04-.29-.02-.65-.02-.93,.02-.79,.13-1.13,.38-1.12l.62,.03c.8,.18,1.61-.21,2.43-.11,.24,.01,.49-.2,.73-.33,.26-.13,.42,.02,.49,.67,.07,.57-.02,1.28-.22,1.56-.2,.35-.42,.63-.62,.83-.73,.68-1.4,1.94-2.06,2.97-.24,.42-.35,1.06-.35,1.99,0,1.78-.02,3.57,0,5.35,.02,1.5-.07,2.92-.07,4.35,0,1.14,.16,1.65,.48,1.67l3.99,.2c.33,.02,.64-.11,.98,.27h0Zm8.56-145.59c.22,.22,.36,1,.29,1.94,0,.29,0,.57-.02,.86,0,1.22,.04,2.51-.07,3.73v.36c.11,2.01,.04,4.09,.02,6.09-.02,1.29,.04,2.58,.04,3.87,0,.57,0,1.22-.04,1.79-.07,.79,.02,1.57,.09,2.3s-.02,1.29-.18,1.79c-.16,.5-.36,.36-.54,.21-.16-.08-.27-.51-.27-1.08,0-.43-.02-.86,0-1.22,.02-.79-.04-1.43-.16-2.16-.2-1.22-.49-1.58-.94-1.01-.42,.57-.8,1.28-1.2,2-.4,.71-.82,1.13-1.23,1.84-.4,.64-.51,.93-.42,2.35,.02,.43,.04,.86,.04,1.28s-.02,.86-.04,1.28c-.07,.5,.07,1.08,.04,1.57,0,1.08-.04,2.15-.02,3.15,.02,1.5-.11,2.86-.09,4.23,.07,2.72,.02,5.45,.04,8.16,.02,1.08,.2,1.65,.49,1.58,.42,0,.56-1.92,.56-3,0-.93,.11-1.71,.16-2.58,.04-.57,.29-.99,.47-.93,.25,.08,.4,.51,.4,1.37v3.52c-.04,1.28,.04,2.79-.07,4.23-.04,.65,.07,1.29,.07,2.01-.02,1.5,0,3.01,0,4.52,0,.29,0,.65,.02,1,.09,1.43-.13,2.07-.58,1.63-.25-.23-.38-.86-.4-1.8,0-3.8-.22-5.23-1.4-6.68-.42-.44-.82-1.01-1.18-1.81-.22-.51-.51-.58-.73-1.09-.6-1.29-1.27-2.17-1.93-3.04-.55-.72-1.09-1.52-1.62-2.39-.75-1.23-1.55-2.1-2.33-3.33-.71-1.23-1.64-2.81-2.39-3.69-.09-.14-.16-.22-.24-.29-.4-.57-.58-1.15-.58-2.15,0-.79,.07-1.85,.31-2.21,.86-1.13,1.66-2.9,2.54-4.04,.24-.36,.46-.99,.71-1.41,.38-.71,.82-.99,1.2-1.71,.64-1.13,1.33-1.85,2-2.84,.69-1.07,1.44-1.85,2.09-3.27,.02-.08,.04-.14,.09-.14,.6-.64,1.13-1.78,1.75-2.42,.16-.22,.31-.5,.44-.79,.49-.99,1-1.72,1.51-2.35,.13-.22,.29-.5,.42-.79,.29-.5,.58-.99,.89-1.5,.49-.85,.91-1.93,1.03-3.8,.04-.71,.16-1.36,.2-2.08,.07-1,.38-1.43,.74-1.14v.04Zm1.06,30.05c.04,.07,.07,.14,.09,.29,.18,.57,.18,1.57,.25,2.3,.07,.94,.09,1.79,.18,2.65,.09,1.29,.16,2.59,.18,3.95,0,1.43,.09,2.94,.16,4.45,0,.22,0,.43-.02,.71-.02,.71,0,1.51-.04,2.22-.07,1.73-.02,3.44-.09,5.17-.11,2.87-.29,5.74-.56,8.52-.31,2.36-.54,4.86-1.05,6.92-.34,1.28-.58,2.78-.87,4.13-.6,2.71-1.25,5.34-1.87,8.05-.02,.08-.04,.22-.09,.28-.49,1.13-.82,2.7-1.25,4.05-1.11,3.26-1.91,8.24-1.96,13.11,0,1.22-.11,2.36-.18,3.51-.09,1.5,.11,2.22,.56,1.89,.22-.13,.44-.2,.67,.02,.09,.15,.18,.08,.27,.09,.85-.11,1.69,.35,2.52-.34,.09-.07,.18,0,.29,.01,.73,.03,1-3.18,1-5.13,.02-1.14,.11-1.42,.44-1.49h.22c.29,.1,.47,.45,.44,1.39-.02,1.73,.07,3.37,.09,5.09,0,1.14-.04,2.3,.04,3.52,.07,.72-.04,1.43-.04,2.15-.02,1.08-.02,2.22,0,3.3,0,1.65-.04,3.22-.13,4.8-.02,.28,0,.57,.02,.86,.11,1.29,0,1.65-.38,2-.65,.54-1-.69-.89-2.48,.11-2.29-.47-4.32-1.27-4.28-.67,.04-1.33-.05-2.02-.08l-1.96-.08c-.16,0-.31,.05-.47-.16-.09-.08-.2-.09-.31-.01-.47,.34-.95,.25-1.42,.09-1.02-.4-2.04-.16-3.06-.34-.09,0-.18,0-.26-.08-.22-.23-.44-.16-.67,.04-.11,.07-.2,.28-.31,.21-.38-.16-.64,.54-.86,1.32-.26,.92-.42,1.99-.51,3.19-.02,.28,0,.5,.02,.71,.07,.86-.11,1.5-.38,1.55h-.31c-.31-.03-.42-.39-.4-1.45,0-.71,.04-1.36,.07-2.07,.04-1.07,0-2.07-.07-3.07-.02-.65-.02-1.36,.02-2,.07-.99,.02-2,0-3-.04-1.86-.07-3.65,.02-5.49,.02-.57,.02-1.07,0-1.64-.04-.43-.04-.79-.04-1.22,0-.36,0-.79,.04-1.14,.02-.28,.04-.64,.02-.99-.11-2.07,.11-4.07,.07-6.14,0-.57,.11-1.21,.13-1.78,.07-2.49,.22-5,.42-7.34,0-1.07,.95-5.83,1.19-6.75,.2-.78,1.53-2.25,1.84-2.38,.55-.35,1.11-.62,1.69-.1,.64,.52,1.24,1.46,1.66,3.34,.11,.51,.25,.94,.4,1.37,.25,.72,.4,1.58,.44,2.66,0,.06,.42,5.88,.44,6.03,.04,.29,.04,.79,.2,.72,.16-.06,.22-.36,.25-.78,.04-.57,.09-1.07,.16-1.56,.22-2.07,.58-3.92,1.02-5.56,.71-2.48,1.38-5.04,1.98-7.82,.2-.99,.54-1.71,.71-2.71,.49-2.78,1.16-5.2,1.58-8.12,.58-4.14,1-9.01,1.14-13.6,.04-1.08-.02-2.22,0-3.3,.02-1.57,0-3.22,0-4.87,0-1.29,0-2.65-.07-4.01-.02-1.08-.04-2.22,.18-3.08,.18-.65,.49-.64,.69-.21h-.01Zm-9.68,55.11c-.53-1.88-1.27-2.54-2.02-2.78-.67-.24-1.24,.75-1.77,1.73-1.09,1.83-1.48,6.66-1.48,10.38,0,2,.18,3.79,.38,5.65,.16,1.51,.51,2.17,.99,1.82,.42-.27,.82-.25,1.22-.02,.47,.24,.91,.1,1.37,.12,.16,0,.33-.27,.49-.12,.31,.3,.62,.17,.84,.25l.73,.03c.22-.07,.35-.56,.29-1.27-.04-.43-.02-.93-.04-1.36-.04-.71,0-1.43,0-2.07,0-.14-.02-.36-.02-.51-.09-2.22-.09-4.37-.18-6.59-.07-2.07-.38-3.81-.8-5.25h0Zm2.38-60.74c-.13,.22-.27,.5-.38,.79-.25,.57-.49,.99-.76,1.35-.67,.78-1.24,2.13-1.91,2.9-.53,.56-.98,1.63-1.51,2.19-.24,.22-.47,.5-.69,.7-.16,.22-.29,.42-.29,1.07,0,.57,.13,.86,.26,1,.93,.95,1.75,2.46,2.64,3.69,.47,.66,.95,1.38,1.4,2.17,.4,.65,.8,1.15,1.18,1.87,.13,.22,.29,.51,.44,.15,.18-.36,.16-.93,.11-1.5-.04-.51-.09-1.08-.09-1.57,.07-2.5,.11-4.94,.11-7.44,0-.79,0-1.57-.04-2.36-.07-1.14-.02-2.36,.04-3.51,0-.14,.02-.28,0-.43,0-1.08-.22-1.51-.53-1.08h0Zm-8.95-24.03c.02-.71-.02-1.72,.07-2.64,.02-.08,.02-.28,0-.43-.07-1.28,0-2.57,0-3.85-.02-1.28,0-2.64-.11-3.93-.02-.14-.02-.28,0-.43,.2-2.15-.02-4.36,.04-6.49,.02-.28,0-.57,.02-.85,0-.65,.11-.93,.29-.93,.51-.06,.8,.79,.82,2.35,0,.65-.02,1.28,.07,1.93,.13,1.07,.35,1.78,.75,1.22,.11-.08,.2-.14,.29-.36,.35-.71,.73-1.07,1.11-1.64,.6-.93,1.2-2.01,1.79-3.07,.31-.57,.67-.79,.98-1.36,.53-1.08,1.13-1.72,1.71-2.44,.29-.43,.53-1.08,.82-1.43,.38-.57,.73-1.14,1.07-1.93,.11-.22,.22-.36,.35-.51,.2-.22,.4-.51,.58-1,.29-.79,.67-.94,.98-1.43,.16-.29,.33-.43,.33-1,0-.51-.16-.79-.29-1l-1.14-1.5c-.27-.28-.51-.57-.78-.99-.73-1.28-1.49-2.43-2.27-3.42-.73-.93-1.44-2.21-2.2-2.91-.09-.06-.2-.22-.24-.36-.42-1.56-1.84-3.27-2.48-3.92-.22-.22-.46-.42-.71-.71-.38-.5-.71,.15-.73,1.51,0,.79-.04,1.56-.09,2.35-.02,.79-.16,1.14-.4,1.22-.6,.22-.8-.36-.68-2.14,.04-.71,.07-1.36,.07-2,0-.36-.02-.79-.02-1.14-.02-1.14,.04-2.21,.07-3.35,.02-1.72,.07-3.5-.04-5.21-.02-.28-.02-.57-.02-.85,0-1.07,.07-1.42,.26-1.64,.31-.22,.58,.07,.71,.92,.11,.79,.16,1.7,.22,2.57,.09,1.56,.29,2.57,.77,3.2,.46,.64,.93,1.49,1.4,1.99,.71,.78,1.35,2.14,2.06,2.91,.02,0,.04,0,.07,.08,.62,1.35,1.35,1.92,2.02,2.99,.73,1.21,1.49,2.28,2.2,3.56,.8,1.42,1.67,2.35,2.45,3.71,.42,.71,.85,1.42,1.23,2.36,.31,.79,.65,1.14,1,1.64,.31,.43,.65,.79,.98,1.22,.38,.51,.58,1.28,.58,2.44,0,1.08-.09,1.65-.4,2.08-.67,.72-1.27,2.01-1.89,2.87-.58,.86-1.11,2.01-1.71,2.73-.49,.57-1.02,1.22-1.42,2.44-.07,.22-.18,.36-.29,.43-.6,.36-1.16,1.07-1.64,2.29-.04,.14-.09,.14-.13,.22-.89,1.28-1.71,3.07-2.6,4.42l-2.99,4.7c-.22,.36-.47,.64-.71,.93-.64,.64-.91,2.28-1.02,4.21-.02,.5-.09,1-.09,1.5,.02,.5-.11,.85-.22,.99-.2,.22-.44,.22-.64,0-.11-.07-.18-.43-.18-.85,.02-.65,.02-1.36,.02-2.21h-.02v-.05Zm15.44-92.62c0,2.16,.02,4.3,.04,6.38,.02,1.87,0,3.66,0,5.52,0,.43-.07,1-.04,1.36,.09,1.73-.07,3.44,0,5.09,.02,.43,.02,.71,0,1.08-.04,1.79-.04,3.52,0,5.31,.02,.51,.04,1.08,.04,1.65,.02,.86-.04,1.79,.04,2.73,.07,.51-.11,1.14-.29,1.22-.42,.08-.85-.21-.87-2.29-.07-2.87-.38-5.45-1.4-5.43-.31,0-.63-.13-.91-.13-.47,.09-.94,.01-1.4,.24-.4,.23-.78,.23-1.18,.1-.2,0-.4,.08-.6,.09-.84-.06-1.71,.31-2.55-.18-.09,0-.16,.08-.25,.15-.16,.14-.33,.23-.49,.09-.29-.28-.6-.21-.89-.21-.6,.15-1.2-.34-1.79-.19-.91,.23-1.86,1.81-1.86,5.16,0,.43-.02,.79-.07,1.14-.11,.85-.35,1.22-.68,1-.2-.14-.31-.71-.31-1.56,0-.28,0-.65,.04-.93,.04-.36,.04-.65,.02-1-.11-1.5,.04-3,.02-4.56-.02-.5,0-1.07-.07-1.56-.02-.22-.02-.5,0-.65,.04-.5,.07-1,.07-1.5,0-1.14-.09-2.35-.09-3.57,0-.85,0-1.86,.07-2.72,.07-.65-.04-1.36-.04-2,0-1.42,.02-2.86,.04-4.21,.02-2.07,.07-4.14,0-6.14-.07-1.72-.04-3.42-.07-5.14,0-.93,.09-1.86,.09-2.78-.02-.85-.02-1.72-.11-2.49,0-.22-.02-.36-.02-.57-.07-1.42,.02-1.71,.51-1.87,.8-.16,1.59-.4,2.39-.49,.22-.08,.44-.15,.67-.3,.29-.09,.4,.21,.49,.98,.07,.71,0,1.42-.2,1.79-.13,.22-.29,.43-.44,.52-.42,.15-.82,.67-1.17,1.31-.8,1.38-.82,4.38-.82,6.94,0,.85,.02,1.78,.09,2.71,.04,.65,.02,1.42-.04,2.15-.07,.65,0,1.36-.02,2.07-.04,2.15,.04,4.21,.07,6.35,.02,1.5,.35,2.35,.8,2.13,.53-.29,1.04-.24,1.55-.11,.24,.14,.51-.09,.77-.09,.62-.01,1.26-.24,1.88,.33,.4,.36,.64-.37,.64-1.73,0-1.08,0-2.15,.11-3.21,.07-.57-.04-1.14-.04-1.71,.02-3.07-.13-6.01-.35-9.01-.11-1.78-.42-2.49-1.02-2.48-.2,0-.4,0-.58-.41-.13-.36-.2-.78-.16-1.36,.02-.57,.18-.79,.31-.94,.13-.08,.29-.15,.44,.07,.11,.14,.25,.14,.35,.07,.55-.3,1.09-.17,1.64-.04,.27,.14,.58-.09,.86-.24,.25-.15,.49-.38,.76-.24,.13,.07,.27,0,.4-.09,.25-.23,.47,.27,.51,.92,.04,.85-.09,1.51-.35,1.66-.07,.08-.16,0-.22,0-1.36,.18-1.36,5.62-1.36,8.77,.02,2.79,.02,5.58,.02,8.37,0,1,.09,1.42,.42,1.35,.71-.09,1.4,.19,2.11,.25,.42,.07,.87,.13,1.29,.2,.25,0,.47-.15,.71-.09,.69,.21,.85-.87,.98-2.67,.09-1.14,.07-2.3,.07-3.52,.02-1.14,0-2.36,.07-3.58,.04-.71,.04-1.43-.04-2.22-.02-.22-.02-.57-.02-.86v-3.95c.02-4.3-.58-7.29-1.76-9.2-.27-.42-.53-.98-.78-1.48-.18-.36-.29-1.07-.29-1.72,0-.79,.07-1.08,.31-1.23,.29-.09,.6,.06,.87,.4,.69,.69,1.38,1.32,2.03,2.38,.16,.22,.31,.42,.49,.56,.34,.35,.47,1.13,.47,2.21v4.23c-.07,2.22,.07,4.87,.09,7.59v.03Zm-15.37-36.98c-.04-2.35,.02-4.78,.02-7.14,.02-1.36,.02-2.64,0-3.93-.02-.36-.02-.79,.11-.93,.26-.44,.58-.38,.86-.17,.13,.14,.13,.71,.13,1.13-.02,1.14,0,2.29,.13,3.34,.29,2.28,.93,3.03,1.64,3.01,.55-.1,1.11,.18,1.64-.49,.16-.15,.33-.09,.49-.02,.33,.27,.69,.05,1.04,.18,.78,.26,1.55-.2,2.33-.08,.13,0,.25,0,.38-.16,.18-.23,.4-.23,.58-.1,.33,.35,.64,.12,.98-.11,.16-.08,.31-.15,.47-.16,.85-.03,1.69-.14,2.54-.09,.49-.02,.63-.39,.69-1.96,.11-2.73,.18-5.46,.18-8.17,0-.93,0-1.87-.04-2.72-.09-2.22-.13-4.51-.2-6.73-.02-.71-.16-1.36-.29-1.92-.47-1.99-1-3.76-1.76-4.65-.27-.27-.4-1.27-.4-2.2,0-1,.27-1.66,.6-1.31,.07,.07,.16,.21,.22,.28,.13,.28,.27,.64,.42,.63,.56,.2,1,1.24,1.51,1.72,.22,.21,.44,.34,.67,.48,.49,.26,.6,.83,.58,2.42-.04,1.51-.02,3.01-.02,4.52v7.68c.02,1.57-.07,3.08-.07,4.59,.02,3.15,0,6.31,0,9.47,0,.79-.02,1.57,.07,2.3,.02,.14,0,.29,0,.43-.11,2.22,.04,4.38,0,6.6-.02,1.36,0,2.73,0,4.01,0,1-.09,1.37-.38,1.52-.29,.23-.6-.35-.67-1.26-.11-1.14-.18-2.29-.27-3.35-.13-1.64-.38-2.21-.89-2.55-.42-.27-.82,.03-1.23-.39h-.07c-.51,.52-1.02,.26-1.54,.05-.4-.13-.78,.17-1.16,.32-.22,.15-.44-.13-.67-.06-.93,.32-1.89,.42-2.82,.31-.64-.06-1.28,.04-1.91-.3s-1.26,.04-1.86,.57c-.29,.15-.51,.87-.64,1.66-.18,.94-.31,2.01-.29,3.07,0,.85-.07,1.5-.31,1.87-.24,.37-.48,.16-.71-.2-.11-.14-.09-.5-.09-.85-.02-1.71,0-3.5,0-5.27,0-1.56,.02-3.21-.02-4.85v-.03Zm1.27-97.07c-.2,.94-.33,2.03-.26,3.16v.79c0,1.42-.16,1.87-.53,1.89-.4,.02-.62-.61-.58-1.89,.07-2.5,.04-4.99,.04-7.56,0-1.42,.09-2.93,.02-4.28-.11-2,.04-3.93,.04-5.86,.02-1.86-.11-3.7-.07-5.57,.04-1.22,.09-2.44,.13-3.72,.02-.93,.04-1.93,.09-2.93,.07-3.57,.29-7.8,.9-10.85,.35-2.1,.99-3.28,1.63-4.34,.02-.08,.07-.15,.09-.08,.31,.05,.62-.33,.91-.29,1.26,.12,2.44,.67,2.99,4.91,.11,.85,.22,1.71,.33,2.62,.04,.36,.11,.78,.29,.69,.16-.01,.18-.38,.25-.81,.07-.58,.09-1.15,.13-1.8,.11-2.02,.47-3.61,.84-5.22,.11-.44,.22-.87,.33-1.39,.33-1.39,.85-2,1.24-3.1,.11-.23,.22-.24,.33-.25,.47-.04,.91-.15,1.38-.11,1.33,.26,1.94,3.58,2.54,6.97,.29,1.69,.49,3.48,.74,5.24,.04,.14,.07,.36,.07,.57-.02,.94,.09,1.79,.11,2.58,0,1.65,.18,3.14,.16,4.79,0,1.08,.07,2.15,.04,3.22-.02,1.14,.13,2.35-.04,3.52-.02,.14,0,.43,0,.57,.13,1.5-.04,3.08,.02,4.58,.02,1.36,0,2.65-.02,4.01-.04,2.37-.04,4.81,.02,7.17,.04,1.87-.02,3.81,.11,5.59,.07,.93-.13,1.66-.47,1.96-.25,.16-.49-.33-.58-1.11-.11-.85-.07-1.79-.13-2.72-.22-2.43-.53-3.77-1.36-3.72l-.67,.04c-.6,.18-1.2-.07-1.78-.17-.56-.11-1.11,.29-1.67,.19-.56-.04-1.11-.07-1.67,.18-.42,.17-.86,.28-1.29,.23-.33-.06-.67-.32-1.02-.15-.62,.32-1.22-.28-1.84-.1-.18,.01-.33-.34-.51-.19-.58,.18-1.02,1.06-1.33,2.66v.05Zm.14-16.72c0,.85,0,1.56,.09,2.28,.07,.78,.18,1.63,.48,1.75,.46,.19,.93,.79,1.42,.27,.16-.15,.33-.16,.49-.03,.47,.33,.93,.01,1.4,.05,.16,.07,.33-.39,.49-.18,.22,.21,.42,.05,.64,.1,.49,.11,.64-1.12,.55-2.19-.13-1.49-.13-3.06-.18-4.56-.04-1.78,0-3.57-.07-5.36-.07-1.64-.25-3.19-.64-4.1-.42-.97-.86-1.94-1.37-2.48-.86-1.01-1.71-.24-2.28,2.09-.77,3.34-1.02,8.35-1.02,12.36h0Zm11.45,4.29c.89-.77,1.14-2.58,1.34-5.32,.09-1.23,0-2.36,.07-3.52,.02-.43,.04-.86,.04-1.29,0-1.73-.18-3.28-.13-5,0-.08-.02-.14-.04-.22-.18-1.92-.51-3.55-1-4.87-.47-1.33-1.02-2.08-1.67-1.95-.33,.02-1.24,.74-1.47,1.33-.69,1.7-1.4,3.39-1.62,6.34-.13,1.88-.35,3.6-.33,5.53,.02,2.07-.11,4.09-.07,6.16,0,.22-.02,.36-.02,.57-.07,1.29,.16,2.28,.58,2.25,.38,.05,.78-.05,1.16-.08,.09,0,.2-.01,.27,.06,.49,.4,.98,.36,1.47,.26,.49-.03,.96,.16,1.45-.24h0Zm2.85-67.03c-.02,1.37-.16,2.74-.29,4.12-.07,.72-.02,1.43-.07,2.16-.18,1.89-.74,7.01-1.07,8.34-.25,1.02-.38,2.25-.69,3.13-.58,1.76-1.25,3.18-1.96,4.25-.33,.6-.71,.71-1.07,1.16-.78,1-1.6,1.2-2.42,1.34-.2,.02-.35-.19-.55-.18-.55-.1-2.53-.51-2.99-1.12-1.31-1.46-2.7-4-3.48-7.79-.64-3.09-1.24-7.68-1.33-11.44-.02-1.56,0-3.14-.07-4.7-.07-1.64-.04-3.28,0-4.92,.09-3.07,.75-9.41,1.44-11.69,.09-.37,.18-.73,.22-1.24,.16-1.29,.42-2.39,.77-3.28,.24-.53,.42-1.4,.67-1.93,.58-1.19,1.13-2.54,1.79-3.24,.24-.31,.44-.9,.71-1.07,.67-.43,1.27-1.62,1.95-1.83,.02,0,.04-.08,.07,0,.51,.17,1.04-.18,1.58,.13,.33,.25,.69,.08,1.02,.47,1.09,1.04,2.6,3.84,3.47,6.11,.51,1.46,.73,3.45,1.14,5.06,.6,2.45,1.05,6.14,1.16,9.22,.04,1.14,.13,2.29,.07,3.36,.04,1.93-.07,3.81-.07,5.6v-.03Zm-1.25-5.49c.09-2.8-.22-5.29-.58-7.76-.25-1.48-.69-2.38-1.09-3.26-.85-1.85-1.83-2.33-2.83-2.6-.76-.21-1.53,.22-2.31,0-.47-.1-.95-.05-1.42,.35-.55,.48-1.11,.89-1.62,1.65-.2,.38-.42,.61-.62,.99-.51,.76-1.06,1.31-1.5,2.49-.64,1.7-1.02,3.95-1.33,6.26-.26,1.89-.31,5.6-.31,7.81,0,1.93,.16,3.77,.33,5.61,.44,4.18,1.84,6.27,3.07,7.45,.82,.72,1.62,1.57,2.48,1.29,.27-.1,.55,.38,.8,.08,.51-.55,1-.16,1.51-.49,.6-.34,1.22-.32,1.82-1.23,.73-1,1.33-2.84,2.07-3.9,.02,0,.07-.15,.09-.29,.6-2.27,.96-4.95,1.23-7.84,.18-1.95,.22-4.03,.2-6.04v-.57h0Zm1.25-59.27c-.02,1.37-.16,2.74-.29,4.12-.07,.72-.02,1.43-.07,2.16-.18,1.89-.74,7.02-1.07,8.36-.25,1.02-.38,2.26-.69,3.15-.58,1.77-1.25,3.2-1.96,4.29-.33,.6-.71,.72-1.07,1.18-.78,1.01-1.6,1.24-2.42,1.38-.2,.02-.35-.18-.55-.16-.55-.09-2.53-.46-2.99-1.06-1.31-1.43-2.7-3.94-3.48-7.72-.64-3.08-1.24-7.65-1.33-11.42-.02-1.56,0-3.14-.07-4.7-.07-1.63-.04-3.28,0-4.92,.09-3.07,.75-9.43,1.44-11.72,.09-.37,.18-.73,.22-1.24,.16-1.3,.42-2.4,.77-3.3,.24-.53,.42-1.41,.67-1.94,.58-1.21,1.13-2.56,1.79-3.27,.24-.31,.44-.91,.71-1.08,.67-.44,1.27-1.65,1.95-1.87,.02,0,.04-.08,.07,0,.51,.16,1.04-.2,1.58,.1,.33,.25,.69,.06,1.02,.45,1.09,1.01,2.6,3.78,3.47,6.05,.51,1.45,.73,3.43,1.14,5.04,.6,2.44,1.05,6.12,1.16,9.19,.04,1.14,.13,2.28,.07,3.36,.04,1.93-.07,3.81-.07,5.61v-.03Zm-1.25-5.46c.09-2.8-.22-5.29-.58-7.75-.25-1.48-.69-2.36-1.09-3.24-.85-1.84-1.83-2.3-2.83-2.55-.76-.2-1.53,.25-2.31,.04-.47-.09-.95-.03-1.42,.38-.55,.49-1.11,.92-1.62,1.68-.2,.39-.42,.62-.62,1-.51,.77-1.06,1.34-1.5,2.52-.64,1.71-1.02,3.97-1.33,6.29-.26,1.89-.31,5.61-.31,7.82,0,1.93,.16,3.77,.33,5.6,.44,4.17,1.84,6.24,3.07,7.39,.82,.7,1.62,1.54,2.48,1.25,.27-.11,.55,.37,.8,.06,.51-.56,1-.18,1.51-.52,.6-.35,1.22-.35,1.82-1.26,.73-1.01,1.33-2.86,2.07-3.94,.02,0,.07-.15,.09-.29,.6-2.28,.96-4.97,1.23-7.87,.18-1.95,.22-4.04,.2-6.05v-.57h0Zm-14.43-49.02c0-.65-.02-1.28,.04-1.93,.04-.43,.02-.93-.02-1.42-.07-.7-.02-1.5-.02-2.28,0-.22,0-.36,.07-.51,.22-.53,.44-.48,.71-.23,.22,.19,.26,.68,.26,1.32-.02,1.14,.11,2.13,.26,3.17,.18,1.4,.82,1.9,1.26,1.85,.33,.1,.69,.13,1.04,.09,.64-.16,1.28,.06,1.95-.32,.35-.26,.73-.38,1.11-.28,.18,.12,.33,.04,.51-.06,.25-.03,.31-.54,.2-1.17-.07-.35-.13-.77-.25-1.04-.25-.82-.51-1.65-.76-2.55-.35-1.17-.67-2.41-1.04-3.52-.27-.76-.42-1.81-.69-2.63-.47-1.36-.77-3.19-1.2-4.63-.42-1.45-.84-2.89-1.33-4.19-.18-.48-.35-1.09-.48-1.8-.09-.49-.22-.9-.42-.66-.22,.25-.26,.82-.24,1.45,0,.65-.02,1.22,.04,1.86,.09,.92-.09,1.43-.38,1.55-.33,.04-.58-.49-.58-1.71,.04-3.57-.11-7.06-.07-10.63,.02-1.57-.02-3.06,0-4.64,0-.85,.2-1.45,.46-1.56,.26-.04,.48,.58,.51,1.35,0,.65,.02,1.28,.04,2,.13,2.13,.44,3.87,.86,5.46,.71,2.54,1.48,4.87,2.15,7.65,.29,1.18,.64,2.35,.98,3.52,.2,.76,.42,1.51,.58,2.42,.13,.98,.42,1.23,.69,.42,.42-1.41,.98-2.42,1.4-3.98,.27-.89,.58-1.58,.86-2.41,.51-1.57,1.09-2.93,1.6-4.5,.33-.98,.73-1.89,1.11-2.79,.33-.69,2.36-5.83,2.61-6.8,.29-1.18,.49-2.36,.49-3.79,0-.36,0-.79-.04-1.21-.02-.36,0-.71,0-1.08,.02-1.15,.11-1.44,.47-1.49,.13-.02,.27-.11,.4-.05,.27,.04,.44,.73,.38,1.6-.07,.8-.13,1.59-.13,2.38,0,.43,.02,.85,.07,1.28,.04,.57-.09,1.09-.07,1.66,.07,2.07-.04,4.16,0,6.23,.04,1.79-.25,3.11-.67,4.18-.38,.91-.73,1.97-1.11,2.94-.11,.3-.22,.6-.33,.76-.22,.31-.4,.7-.53,1.43-.11,.73-.38,.91-.56,1.43-.13,.38-.29,.75-.42,1.2-.04,.15-.09,.37-.13,.45-.56,.72-.85,2.33-1.29,3.32-.6,1.36-1.11,2.93-1.67,4.44-.18,.45-.35,.76-.51,1.28-.13,.38-.18,.74-.18,1.1,0,.79,.49,2.44,.67,2.92,.16,.41,.27,.9,.38,1.46,.16,.91,.31,1.04,.67,.85,.2-.1,.42-.13,.64-.08,.38,.17,.76,.27,1.14,.29l1.65-.21c.47-.06,.71-.74,.89-2.12,.13-.95,.2-2.04,.27-3.05,.04-.8,.16-1.16,.4-1.19,.67-.23,.78,.04,.71,2.27-.02,.8-.04,1.51-.04,2.3,0,.51,0,.94,.04,1.42,.04,.64-.13,1.45-.07,2.16,.09,.78,.07,1.5,.07,2.29v4.3c0,1.22,.02,2.44,0,3.58-.02,.8,.09,1.5,.07,2.29,0,1.08-.11,1.58-.42,1.7s-.6-.43-.63-1.35c0-1.08-.13-2-.2-2.99-.16-1.85-.22-1.91-.82-2.06-.44-.09-.89-.26-1.36-.12-.22,.1-.44-.23-.67-.14-.89,.33-1.78,.14-2.67,.32-.33,.12-.69,0-1.04,.35-.29,.26-.58-.15-.86-.12l-2.02,.25c-.2,.02-.4,.13-.58-.07-.13-.13-.29-.11-.4,.05-.11,.16-.24,.25-.35,.19-.47-.09-.91,.25-1.37,.67-.55,.49-.93,1.61-.91,3.68v.79c-.04,2.01-.18,2.03-.66,2.29-.4,.12-.51-.3-.51-1.58-.02-2.63,0-5.35,0-7.99,0-2.43-.02-4.84,0-7.28h0Z"/></g></svg>