<?xml version="1.0" encoding="UTF-8"?><svg id="a" xmlns="http://www.w3.org/2000/svg" xmlns:xlink="http://www.w3.org/1999/xlink" viewBox="0 0 778.235 1080"><defs><style>.j{stroke:url(#g);}.j,.k,.l,.m,.n,.o{fill:none;stroke-linecap:round;stroke-miterlimit:10;stroke-width:5px;}.k{stroke:url(#c);}.l{stroke:url(#b);}.m{stroke:url(#e);}.n{stroke:url(#f);}.o{stroke:url(#d);}.p{fill:url(#i);}.q{fill:url(#h);}.r{fill:#1d442e;}</style><linearGradient id="b" x1="389.118" y1="172.621" x2="389.118" y2="64.54" gradientTransform="matrix(1, 0, 0, 1, 0, 0)" gradientUnits="userSpaceOnUse"><stop offset="0" stop-color="#a67d12"/><stop offset=".25" stop-color="#bf9b2e"/><stop offset=".5" stop-color="#fcbe0c"/><stop offset=".75" stop-color="#bf9b2e"/><stop offset="1" stop-color="#a67d12"/></linearGradient><linearGradient id="c" x1="39.221" y1="1026.922" x2="39.221" y2="53.078" xlink:href="#b"/><linearGradient id="d" x1="739.015" y1="1026.922" x2="739.015" y2="53.078" xlink:href="#b"/><linearGradient id="e" x1="712.868" y1="998.491" x2="712.868" y2="81.509" xlink:href="#b"/><linearGradient id="f" x1="65.368" y1="998.491" x2="65.368" y2="81.509" xlink:href="#b"/><linearGradient id="g" x1="976.943" y1="159.395" x2="976.943" y2="51.315" gradientTransform="translate(1384.665 1071.085) rotate(-180)" xlink:href="#b"/><linearGradient id="h" x1="390.427" y1="91.342" x2="390.427" y2="78.961" xlink:href="#b"/><linearGradient id="i" x1="406.413" y1="1005.349" x2="406.413" y2="992.969" xlink:href="#b"/></defs><rect width="778.235" height="1080" style="fill:#1d442e;"/><path d="M449.642,86.56c-3.432,1.301-5.743,4.249-5.913,7.48-.196,3.712,2.523,6.131,2.794,6.365,3.826,3.293,10.292,1.994,14.215-.813,4.731-3.385,6.949-9.809,5.343-15.328-1.446-4.973-5.486-7.458-6.628-8.136-7.197-4.278-15.684-1.214-19.662,.222-6.071,2.192-9.781,5.384-15.881,10.736-4.057,3.56-9.529,8.865-15.234,16.178m-90.686,2.349c-.379-1.541-2.987-11.441-12.454-15.986-5.993-2.877-15.957-4.195-22.176,1.935-3.726,3.673-4.528,8.463-4.745,10.598m95.179,2.208c-5.705-7.313-11.177-12.618-15.234-16.178-6.099-5.352-9.81-8.544-15.881-10.736-3.978-1.436-12.465-4.5-19.662-.222-1.142,.679-5.181,3.164-6.628,8.136-1.605,5.52,.613,11.944,5.343,15.328,3.923,2.807,10.389,4.107,14.215,.813,.271-.234,2.99-2.652,2.794-6.365-.17-3.231-2.481-6.179-5.913-7.48m182.323,15.598c-.27-2.483-1.272-8.098-5.972-12.38-8.161-7.435-20.579-5.679-27.909-2.261-9.03,4.211-13.215,12.088-14.627,15.123m145.836,36.893c-1.634,.345-4.787,1.27-7.274,4.007-4.496,4.949-4.311,13.093-.782,18.465,4.595,6.994,13.267,7.008,14.569,7.011,10.279,.017,16.755-8.659,18.089-10.565,7.542-10.778,4.218-26.744-2.053-36.04-11.806-17.501-38.888-17.975-50.8-18.026-84.103-.365-184.345,.017-199.174,0-8.287-.01-132.738-.309-202.686,2.483-8.538,.341-28.849,1.431-39.014,15.543-6.784,9.417-9.582,25.283-2.053,36.04,1.338,1.912,7.813,10.582,18.089,10.565,1.302-.002,9.974-.017,14.569-7.011,3.403-5.179,4.045-13.385-.782-18.465-4.06-4.272-9.869-4.103-10.985-4.05m210.299-55.099v-.691c0-9.771,7.995-17.766,17.766-17.766h.338c9.771,0,17.766,7.995,17.766,17.766v.691c0,9.771-7.995,17.766-17.766,17.766h-.338c-9.771,0-17.766-7.995-17.766-17.766Z" style="fill:none; stroke:url(#b); stroke-linecap:round; stroke-miterlimit:10; stroke-width:5px;"/><line x1="39.221" y1="55.578" x2="39.221" y2="1024.422" style="fill:none; stroke:url(#c); stroke-linecap:round; stroke-miterlimit:10; stroke-width:5px;"/><line x1="739.015" y1="55.578" x2="739.015" y2="1024.422" style="fill:none; stroke:url(#d); stroke-linecap:round; stroke-miterlimit:10; stroke-width:5px;"/><line x1="712.868" y1="84.009" x2="712.868" y2="995.991" style="fill:none; stroke:url(#e); stroke-linecap:round; stroke-miterlimit:10; stroke-width:5px;"/><line x1="65.368" y1="84.009" x2="65.368" y2="995.991" style="fill:none; stroke:url(#f); stroke-linecap:round; stroke-miterlimit:10; stroke-width:5px;"/><path d="M347.197,997.75c3.432-1.301,5.743-4.249,5.913-7.48,.196-3.712-2.523-6.131-2.794-6.365-3.826-3.293-10.292-1.994-14.215,.813-4.731,3.385-6.949,9.809-5.343,15.328,1.446,4.973,5.486,7.458,6.628,8.136,7.197,4.278,15.684,1.214,19.662-.222,6.071-2.192,9.781-5.384,15.881-10.736,4.057-3.56,9.529-8.865,15.234-16.178m90.686-2.349c.379,1.541,2.987,11.441,12.454,15.986,5.993,2.877,15.957,4.195,22.176-1.935,3.726-3.673,4.528-8.463,4.745-10.598m-95.179-2.208c5.705,7.313,11.177,12.618,15.234,16.178,6.099,5.352,9.81,8.544,15.881,10.736,3.978,1.436,12.465,4.5,19.662,.222,1.142-.679,5.181-3.164,6.628-8.136,1.605-5.52-.613-11.944-5.343-15.328-3.923-2.807-10.389-4.107-14.215-.813-.271,.234-2.99,2.652-2.794,6.365,.17,3.231,2.481,6.179,5.913,7.48m-182.323-15.598c.27,2.483,1.272,8.098,5.972,12.38,8.161,7.435,20.579,5.679,27.909,2.261,9.03-4.211,13.215-12.088,14.627-15.123m-145.836-36.893c1.634-.345,4.787-1.27,7.274-4.007,4.496-4.949,4.311-13.093,.782-18.465-4.595-6.994-13.267-7.008-14.569-7.011-10.279-.017-16.755,8.659-18.089,10.565-7.542,10.778-4.218,26.744,2.053,36.04,11.806,17.501,38.888,17.975,50.8,18.026,84.103,.365,184.345-.017,199.174,0,8.287,.01,132.738,.309,202.686-2.483,8.538-.341,28.849-1.431,39.014-15.543,6.784-9.417,9.582-25.283,2.053-36.04-1.338-1.912-7.813-10.582-18.089-10.565-1.302,.002-9.974,.017-14.569,7.011-3.403,5.179-4.045,13.385,.782,18.465,4.06,4.272,9.869,4.103,10.985,4.05m-210.299,55.099v.691c0,9.771-7.995,17.766-17.766,17.766h-.338c-9.771,0-17.766-7.995-17.766-17.766v-.691c0-9.771,7.995-17.766,17.766-17.766h.338c9.771,0,17.766,7.995,17.766,17.766Z" style="fill:none; stroke:url(#g); stroke-linecap:round; stroke-miterlimit:10; stroke-width:5px;"/><ellipse cx="390.427" cy="85.151" rx="6.309" ry="6.19" style="fill:url(#h);"/><ellipse cx="406.413" cy="999.159" rx="6.309" ry="6.19" style="fill:url(#i);"/></svg>