<?xml version="1.0" encoding="UTF-8"?><svg id="a" xmlns="http://www.w3.org/2000/svg" viewBox="0 0 1776.27 755.2"><defs><style>.b{fill:#28692e;}.c{fill:#297632;}.d{fill:#225426;}</style></defs><path class="c" d="M1456.48,164.9v118.36l-5.61,334.16-190.93-1.13c-135.9,2.14-281.45-1.29-435.33-12.77C513.94,580.36,237.09,529.48,0,469.71V0C204.52,43.38,427.95,82,668.58,111.03c283.5,34.22,547.6,49.92,787.9,53.87Z"/><path class="b" d="M1776.27,676.25c-55.71,23.91-127.73,48.72-213.83,64-122.66,21.79-227.97,16.11-302.5,5.97l190.93-128.79,5.61-334.16v8.24c45.73-5.77,96.27-14.5,150.45-27.61,59.48-14.38,112.78-31.51,159.34-49.01l-137.58,270.16c48.86,76.07,98.72,115.14,147.58,191.21Z"/><polygon class="d" points="1450.87 617.42 1259.94 746.21 1259.94 616.29 1450.87 617.42"/></svg>