<?xml version="1.0" encoding="UTF-8"?><svg id="a" xmlns="http://www.w3.org/2000/svg" xmlns:xlink="http://www.w3.org/1999/xlink" viewBox="0 0 1079.9 1080"><defs><style>.c{fill:url(#b);}</style><linearGradient id="b" x1="157.75" y1="922.12" x2="921.99" y2="157.88" gradientTransform="matrix(1, 0, 0, 1, 0, 0)" gradientUnits="userSpaceOnUse"><stop offset="0" stop-color="#a67d12"/><stop offset=".25" stop-color="#bf9b2e"/><stop offset=".5" stop-color="#fcbe0c"/><stop offset=".75" stop-color="#bf9b2e"/><stop offset="1" stop-color="#a67d12"/></linearGradient></defs><path class="c" d="M.06,533.77c0-11.02,.48-22.8,1.39-34.55,1.12-14.42,2.75-28.78,4.95-43.09,4.38-28.47,10.95-56.42,19.8-83.83,22.53-69.71,57.71-132.31,106.03-187.36C203.07,104.24,290.53,49.73,393.72,20.37c19.35-5.5,38.99-9.74,58.87-12.95,14.43-2.33,28.91-4.1,43.47-5.39,25.31-2.25,50.65-2.51,76-1.38,12.06,.54,24.09,1.66,36.08,3.15,101.54,12.59,191.98,51.48,271.27,115.85,82.27,66.8,140.38,150.66,174.1,251.24,7.54,22.48,13.34,45.42,17.6,68.76,2.71,14.82,4.8,29.71,6.29,44.7,2.21,22.15,2.95,44.35,2.25,66.59-.47,15.05-1.55,30.07-3.17,45.06-3.97,36.71-11.47,72.66-22.58,107.85-43.74,138.56-140.36,252.57-267.87,317.55-40.27,20.52-82.47,35.67-126.6,45.46-16.01,3.55-32.14,6.4-48.4,8.52-10.64,1.39-21.32,2.42-32.04,3.11-14.74,.95-29.49,1.72-44.26,1.45-14.76-.27-29.5-1.02-44.22-2.32-15.01-1.33-29.94-3.24-44.76-5.85-43.16-7.59-84.83-20.14-124.92-37.88-136.13-60.24-241.41-174.12-290.67-314.55-9.04-25.76-16.03-52.07-21-78.92-2.42-13.05-4.42-26.16-5.89-39.34-2.46-22.11-3.53-44.3-3.19-67.32ZM329.97,88.49c-1.57,.93-2.98,1.75-4.38,2.6-28.12,17.13-56.25,34.27-84.36,51.42-1.51,.92-3.53,1.43-4.34,3-.92,1.77,.12,3.78,.46,5.66,.47,2.62,.49,2.64,2.94,3.1,13.32,2.49,26.65,4.96,39.97,7.44,6.15,1.14,12.31,2.22,18.44,3.46,5.87,1.19,11.5,3.12,16.58,6.38,6.16,3.94,10.28,9.37,12.03,16.56,1.51,6.22,1.33,12.48,.26,18.66-2.88,16.75-8.72,32.46-17.23,47.17-10.75,18.58-24.94,34.13-41.68,47.45-4.08,3.25-8.29,6.34-12.35,9.63-22.54,18.24-36.87,41.43-42.25,70.04-.93,4.97-1.71,9.98-3.3,14.82-1.45,4.41-3.24,8.65-6.01,12.41-4.09,5.56-9.45,8.92-16.44,9.65-4.85,.5-9.5-.34-14.09-1.72-6.61-1.99-12.66-5.21-18.49-8.83-3.04-1.89-6.1-3.74-9.34-5.26-14.42-6.75-29.64-9.73-45.51-9.69-2.2,0-4.15,.62-5.82,1.93-1.63,1.29-3.23,2.67-4.6,4.22-5.18,5.9-8.79,12.69-11.38,20.09-1.28,3.66-.95,7.03,.94,10.29,4.6,7.95,10.52,14.38,19.55,17.43,4.66,1.58,9.09,3.73,13.17,6.53,6.95,4.78,11.36,11.21,13.09,19.53,.99,4.73,1.06,9.48,.87,14.25-.18,4.49-.06,8.95,.77,13.37,2.11,11.33,8.38,18.85,19.88,21.54,5.27,1.23,10.62,1.86,15.98,1.21,10.79-1.31,21.39-.25,32.01,1.77,12.31,2.34,24.39,5.5,36.45,8.83,7.47,2.06,14.98,3.96,22.67,4.96,7.39,.96,14.76,2.05,22.02,3.73,10.77,2.49,21.2,6,31.11,10.93,17.13,8.51,31.34,20.55,42.92,35.75,3.88,5.1,7.68,10.27,11.7,15.27,12.48,15.56,26.44,29.56,43.33,40.4,2.01,1.29,3.92,2.71,5.84,4.13,5.65,4.16,11.12,8.54,16.05,13.56,3.36,3.41,6.4,7.08,8.89,11.18,4.4,7.24,6.24,15.06,5.59,23.52-.35,4.49-1.31,8.82-2.66,13.1-2.75,8.72-6.95,16.77-11.48,24.66-22.41,39.04-45.97,77.38-69.91,115.49-22.6,35.97-45.25,71.9-67.87,107.85-1.03,1.63-2.01,3.28-2.96,4.84,.31,.43,.43,.72,.64,.88,1.08,.8,2.17,1.58,3.27,2.34,16.92,11.5,34.76,21.37,53.39,29.81,45.48,20.59,93.27,32.41,142.81,37.55,14.4,1.5,28.85,2.24,43.32,2.46,21.05,.33,42.03-.76,62.97-3.04,11.56-1.26,23.07-2.86,34.51-4.92,20.68-3.71,41.08-8.65,61.13-14.96,80.73-25.4,150.36-68.67,208.64-130.03,46.16-48.6,80.87-104.5,104.98-166.99,10.26-26.59,18.19-53.87,23.67-81.86,2.69-13.76,4.85-27.58,6.34-41.53,1.21-11.28,2.1-22.57,2.36-33.91,.28-12.53,.22-25.05-.61-37.57-.8-12.07-2.18-24.05-3.99-35.99-.5-3.34-1.24-6.65-1.89-10.07-1.82,.19-2.9,1.33-4.13,2.08-5.33,3.29-10.71,6.48-16.39,9.12-4.33,2.01-8.8,3.61-13.55,4.39-5.1,.83-9.77-.19-14.13-2.85-3.1-1.89-5.65-4.42-7.81-7.29-2.24-2.97-4.31-6.08-6.33-9.2-7.3-11.25-14.46-22.6-21.86-33.79-9.22-13.94-19.26-27.28-29.66-40.36-4.37-5.49-8.28-11.29-11.42-17.6-5.79-11.66-6.73-23.64-2.59-36,.76-2.26,1.55-4.5,2.28-6.77,.92-2.85,1.49-5.76,1.4-8.78-.2-7.13-3.94-12.12-10.7-14.31-1.43-.47-2.87-.76-4.37-.87-3.89-.29-7.74,0-11.6,.49-9.08,1.15-18.15,1.09-27.14-.83-12.7-2.71-23.65-8.8-33.31-17.35-7.42-6.56-13.71-14.11-19.39-22.18-3.09-4.39-6.21-8.76-9.75-12.81-2.47-2.81-5.12-5.43-8.17-7.61-5.18-3.7-10.96-5.34-17.3-4.64-3.25,.36-6.47,.99-9.63,1.91-5.29,1.55-10.49,3.37-15.61,5.41-13.29,5.29-26.83,9.83-40.66,13.49-14.12,3.74-28.41,6.71-42.8,9.16-9.1,1.55-18.21,3.11-27.41,4.1-3.47,.37-6.87,.02-10.19-.84-7.67-1.99-13.19-6.81-16.88-13.66-4.83-8.97-6.18-18.64-4.58-28.63,1.01-6.28,4.61-10.92,10.49-13.56,1.75-.79,3.61-1.4,5.48-1.87,4.93-1.26,9.98-1.76,15.06-1.8,6.07-.05,11.77-1.58,17.23-4.16,4.07-1.92,7.81-4.33,11.24-7.24,6.16-5.22,11.68-11.09,17.15-17,6.7-7.23,13.56-14.28,21.25-20.48,2.09-1.69,3.99-3.58,5.73-5.64,4.18-4.95,4.86-10.37,2.3-16.26-1.19-2.75-2.85-5.22-4.49-7.71-2.71-4.1-5.41-8.21-7.97-12.41-1.86-3.05-3.29-6.32-4.3-9.78-1.72-5.9-.31-10.86,4.03-15.1,2.36-2.31,5.08-4.14,7.92-5.8,4.77-2.78,9.73-5.17,14.8-7.34,3.59-1.54,6.85-3.57,9.9-6,5.38-4.29,5.41-4.25,5.31-11.14-.03-2.17-.03-2.24-2.12-2.63-7.91-1.47-15.82-2.92-23.74-4.35-12.31-2.22-24.63-4.41-36.95-6.63-15.68-2.83-31.36-5.72-47.05-8.53-17.6-3.15-35.21-6.19-52.8-9.36-4.44-.8-8.88-1.07-13.36-.65-8.76,.83-15.07,5.23-18.66,13.3-1.7,3.83-2.63,7.9-2.93,12.11-.22,2.97-.41,5.96-.81,8.91-1.06,7.78-4.72,14.04-11.22,18.55-2.71,1.88-5.59,3.45-8.68,4.56-3.5,1.26-7.02,2.48-10.58,3.53-19.58,5.8-37.94,14.08-54.53,26.12-7,5.08-14.35,9.63-22.01,13.68-6.34,3.35-12.87,6.21-19.81,8.08-4.06,1.09-8.17,1.58-12.37,1.64-8.6,.11-16.03-2.82-22.54-8.33-5.66-4.79-9.91-10.7-13.57-17.07-4.91-8.55-8.65-17.63-11.98-26.9-.9-2.51-1.13-5.45-2.94-7.42-1.89-2.04-4.42-3.5-6.67-5.21-.12-.09-.26-.14-.71-.36Zm-111.66,823.86c.52-.61,.34-1.19,.25-1.73-.76-4.55-1.63-9.09-2.31-13.66-2.15-14.59-4.21-29.2-6.36-43.8-1.78-12.09-4.15-24.07-7.19-35.91-7.18-27.91-19.61-52.99-39.59-74.06-5.55-5.86-10.28-12.38-14.5-19.27-11.73-19.17-17.49-40.03-17.3-62.48,.09-11.22,1.76-22.26,4.76-33.1,2.37-8.54,3.36-17.26,2.77-26.12-.59-8.8-2.14-17.44-4.79-25.87-8.1-25.79-22.36-47.61-42.41-65.66-8.8-7.93-18.55-14.49-29.46-19.2-3.27-1.41-6.68-2.51-10.03-3.75-.69-.26-1.15,.12-1.41,.7-.18,.4-.21,.86-.31,1.3-3.75,16.03-5.48,32.32-6.11,48.73-.64,16.87,.14,33.7,1.83,50.49,1.58,15.58,3.98,31.04,7.17,46.37,6.13,29.51,14.73,58.3,25.83,86.33,17.06,43.04,39.13,83.28,67.54,119.92,19.74,25.46,42.07,48.36,67.62,68.05,1.28,.98,2.46,2.14,3.98,2.71ZM641.04,314.25c-13.36,3.05-25.72,8.5-37.2,15.89-27.46,17.68-47.6,41.67-61.1,71.34-6.99,15.36-10.53,31.6-12.38,48.27-1.49,13.48-2.95,26.97-4.48,40.45-1.21,10.67-3.14,21.22-5.89,31.61-1.99,7.49-3.72,15.04-4.56,22.76-1.28,11.73,1.48,22.18,9.67,30.95,2.35,2.51,4.86,4.85,7.57,6.95,12.46,9.64,25.95,17.46,40.85,22.69,17.01,5.96,34.36,7.29,51.92,2.97,7.65-1.88,15.15-4.41,22.7-6.68,14.12-4.23,28.22-8.54,42.66-11.56,4.38-.91,8.77-1.45,13.31-.71,8.25,1.34,13.81,5.86,16.99,13.49,2.1,5.05,2.74,10.34,2.71,15.75-.05,9.55-.12,19.1-.12,28.64-.01,49.83,0,99.66,0,149.49,0,4.28,.16,4.02-3.72,4.15-.6,.02-1.21,0-1.78,.16-.38,.11-.8,.39-.75,.96,.05,.59,.04,1.19,.11,1.78,.86,7.55,1.68,15.11,2.59,22.66,1.09,9.02,2.23,18.04,4.34,26.91,2.61,11.02,7.08,21.16,13.84,30.26,2.59,3.48,5.5,6.68,8.94,9.35,3.67,2.85,7.76,4.37,12.47,3.98,2.08-.17,4.13-.4,6.17-.93,5.09-1.32,9.82-3.49,14.4-5.99,5.75-3.14,11.37-6.52,17.1-9.71,3.04-1.69,5.67-3.84,7.89-6.51,1.72-2.06,3.41-4.15,5.1-6.23,2.57-3.16,5.58-5.73,9.24-7.61,5.3-2.73,10.3-5.99,15.14-9.48,15.81-11.39,28.63-25.6,39.43-41.73,8.65-12.92,15.8-26.64,22.18-40.78,11.41-25.27,21.04-51.22,29.51-77.62,5.91-18.43,11.85-36.85,18.91-54.88,8.01-20.45,17.52-40.13,30.18-58.17,1.64-2.33,2.87-4.88,3.75-7.59,1.69-5.24,3.39-10.48,5.01-15.74,.48-1.56,.81-3.19,1.01-4.81,.71-5.79-1.14-10.57-5.85-14.14-1.91-1.45-3.96-2.67-6.18-3.57-3.03-1.23-6.08-2.43-9.16-3.53-10.31-3.66-20.06-8.38-28.69-15.21-4.97-3.93-9.06-8.58-12.18-14.13-5.7-10.13-11.2-20.36-16.42-30.75-10.98-21.82-20.98-44.11-31.38-66.21-3.49-7.41-6.99-14.82-10.73-22.1-3.83-7.47-8.71-14.24-14.85-20.03-6.53-6.16-14.1-10.38-22.84-12.55-10.35-2.56-20.71-2.1-31.07-.34-6.62,1.12-13.21,2.24-19.93,2.63-8.09,.47-16.08-.13-24-1.8-13.38-2.82-25.23-8.86-35.99-17.16-15.94-12.3-34.15-17.77-54.04-18.28-6.92-.07-13.7,.9-20.41,2.43Z"/></svg>