<?xml version="1.0" encoding="UTF-8"?><svg id="a" xmlns="http://www.w3.org/2000/svg" xmlns:xlink="http://www.w3.org/1999/xlink" viewBox="0 0 55.126 1080.2"><defs><style>.m{stroke:url(#h);}.m,.n{stroke-width:5px;}.m,.n,.o,.p{fill:none;stroke-linecap:round;stroke-miterlimit:10;}.q{fill:url(#l);}.n{stroke:url(#b);}.r{fill:url(#c);}.o{stroke:url(#j);}.o,.p{stroke-width:3px;}.s{fill:url(#f);}.t{fill:url(#g);}.p{stroke:url(#i);}.u{fill:url(#d);}.v{fill:url(#e);}.w{fill:url(#k);}.x{fill:#1b3826;}</style><linearGradient id="b" x1="-2338.283" y1="42.659" x2="-2294.608" y2="42.659" gradientTransform="translate(-2289.206 1054.92) rotate(-180)" gradientUnits="userSpaceOnUse"><stop offset="0" stop-color="#a67d13"/><stop offset=".25" stop-color="#bf9b2e"/><stop offset=".5" stop-color="#fcbe11"/><stop offset=".75" stop-color="#bf9b2e"/><stop offset="1" stop-color="#a67d13"/></linearGradient><linearGradient id="c" x1="-2316.611" y1="19.62" x2="-2316.611" y2="31.333" gradientTransform="translate(-2289.206 1054.92) rotate(-180)" gradientUnits="userSpaceOnUse"><stop offset="0" stop-color="#a67d13"/><stop offset=".24" stop-color="#bf9b2e"/><stop offset=".41" stop-color="#bf9b2e"/><stop offset=".49" stop-color="#c39e2f"/><stop offset=".58" stop-color="#d1a933"/><stop offset=".68" stop-color="#e5ba3a"/><stop offset=".76" stop-color="#ffcf46"/><stop offset="1" stop-color="#a67d13"/></linearGradient><linearGradient id="d" x1="-2304.161" y1="18.478" x2="-2304.161" y2="30.235" xlink:href="#c"/><linearGradient id="e" x1="-2329.15" y1="22.253" x2="-2329.15" y2="33.921" xlink:href="#c"/><linearGradient id="f" x1="-2329.355" y1="87.162" x2="-2304.206" y2="87.162" xlink:href="#c"/><linearGradient id="g" x1="-2324.207" y1="72.263" x2="-2309.062" y2="72.263" xlink:href="#c"/><linearGradient id="h" x1="-2316.75" y1="117.586" x2="-2316.75" y2="230.243" gradientTransform="translate(-2289.206 1054.92) rotate(-180)" gradientUnits="userSpaceOnUse"><stop offset=".01" stop-color="#a67d13"/><stop offset=".24" stop-color="#c9a12a"/><stop offset=".48" stop-color="#fcbe11"/><stop offset=".69" stop-color="#bf9b2e"/><stop offset="1" stop-color="#a67d13"/></linearGradient><linearGradient id="i" x1="-2339.362" y1="194.469" x2="-2339.362" y2="1039.328" xlink:href="#b"/><linearGradient id="j" x1="-2294.931" y1="191.103" x2="-2294.931" y2="1046.478" xlink:href="#b"/><linearGradient id="k" x1="-2316.557" y1="96.91" x2="-2316.557" y2="125.343" gradientTransform="translate(-2289.206 1054.92) rotate(-180)" gradientUnits="userSpaceOnUse"><stop offset="0" stop-color="#a67d13"/><stop offset=".24" stop-color="#bf9b2e"/><stop offset=".53" stop-color="#ffcf46"/><stop offset=".79" stop-color="#bf9b2e"/><stop offset="1" stop-color="#a67d13"/></linearGradient><linearGradient id="l" x1="19.1" y1="412.199" x2="36.919" y2="412.199" gradientTransform="matrix(1, 0, 0, 1, 0, 0)" xlink:href="#k"/></defs><polygon points="55.126 9.021 0 0 0 1080.2 55.126 1071.179 55.126 9.021" style="fill:#1b3826;"/><path d="M40.216,989.552c-.91-1.372-1.481-3.992-1.445-6.721,.06-4.191,1.537-6.416,1.76-6.743,1.723-2.578,4.112-.176,5.27,4.977,1.669,7.449,.406,19.075-1.548,23.85-1.398,3.41-3.076,3.123-3.598,3.069-3.966-.451-27.569,3.957-27.569,3.957-.649-.154-1.973-.772-3.135-3.862-1.671-4.441-2.713-13.185-1.566-19.859,.065-.361,1.037-5.821,2.894-6.618,1.332-.569,3.222,1.219,3.481,5.763,.243,4.285-1.131,8.052-1.2,8.243m7.627,34.771c0,11.073,2.787,19.609,6.221,19.075,3.427-.533,6.198-9.9,6.198-20.932,0-11.031-2.771-19.57-6.198-19.078-3.434,.492-6.221,9.862-6.221,20.935Z" style="fill:none; stroke:url(#b); stroke-linecap:round; stroke-miterlimit:10; stroke-width:5px;"/><path d="M27.406,1023.593c-1.002,.148-1.815,2.886-1.815,6.115,0,3.229,.813,5.724,1.815,5.572s1.813-2.889,1.813-6.114c0-3.225-.811-5.72-1.813-5.572Z" style="fill:url(#c);"/><path d="M14.956,1024.704c-1.01,.149-1.829,2.897-1.829,6.139,0,3.241,.819,5.745,1.829,5.593s1.827-2.901,1.827-6.138c0-3.238-.818-5.742-1.827-5.593Z" style="fill:url(#d);"/><path d="M39.945,1021.018c-.994,.147-1.801,2.873-1.801,6.09,0,3.217,.807,5.702,1.801,5.552,.994-.15,1.799-2.877,1.799-6.09,0-3.213-.805-5.699-1.799-5.553Z" style="fill:url(#e);"/><path d="M38.52,960.914l-21.867,2.821c-.912,.118-1.652,2.589-1.652,5.52v.26c0,2.931,.74,5.208,1.652,5.088l21.867-2.893c.9-.119,1.629-2.573,1.629-5.481v-.258c0-2.908-.729-5.172-1.629-5.056Z" style="fill:url(#f);"/><path d="M33.287,976.191l-11.703,1.562c-.954,.127-1.728,2.719-1.728,5.789v.26c0,3.07,.774,5.452,1.728,5.322l11.703-1.603c.947-.13,1.714-2.712,1.714-5.767v-.258c0-3.056-.767-5.43-1.714-5.304Z" style="fill:url(#g);"/><path d="M32.698,933.077c1.703-12.953,3.976-20.711,5.423-24.853,1.454-4.179,4.265-12.218,6.169-9.41,1.237,1.835,1.484,7.361,1.516,8.104,.35,8.54-2.109,18.506-6.116,25.318m-7.365,.886c.99-4.904,9.67-48.27,8.742-63.964-.124-2.065-.419-7.029-1.62-9.157,0,0-1.262-2.227-3.385,.552-4.567,5.987-5.45,64.31-5.566,72.789m-5.158,.62c-.157-3.741-2.611-60.202-6.1-68.744-1.512-3.697-2.824-3.139-2.824-3.139,0,0-1.442,.623-2.662,5.921-2.589,11.235,7.921,58.785,9.575,66.205m-.242,.029c-1.896-7.561-5.165-19.858-8.534-28.618-.904-2.346-2.239-5.543-3.498-4.207-.963,1.018-1.581,4.369-1.744,6.484-.854,11.094,7.829,25.405,8.78,26.942m11.804-1.42c.819-26.956,1.357-50.324,1.718-69.396,.277-14.571,.501-29.509-2.172-34.798-1.065-2.108-2.762-3.009-3.993-.619-2.535,4.92-1.813,21.303-1.015,51.626,.338,12.789,.769,31.18,1.116,53.711" style="fill:none; stroke:url(#h); stroke-linecap:round; stroke-miterlimit:10; stroke-width:5px;"/><line x1="50.156" y1="17.092" x2="50.156" y2="858.951" style="fill:none; stroke:url(#i); stroke-linecap:round; stroke-miterlimit:10; stroke-width:3px;"/><line x1="5.725" y1="9.942" x2="5.725" y2="862.317" style="fill:none; stroke:url(#j); stroke-linecap:round; stroke-miterlimit:10; stroke-width:3px;"/><path d="M46.632,929.585l-38.47,4.605c-2.008,.24-3.638,5.652-3.638,12.087v.535c0,6.435,1.63,11.444,3.638,11.189l38.47-4.883c1.959-.249,3.545-5.594,3.545-11.94v-.528c0-6.346-1.586-11.3-3.545-11.065Z" style="fill:url(#k);"/><path d="M26.462,703.852c.201,.153,.398-.265,.599-.19l4.71,.235c.399-.265,.823-.244,1.226-.224,.512,.026,.912-1.24,1.045-3.167,.089-1.138,.157-2.29,.222-3.507,.069-1.36,.267-1.922,.691-1.837,.246,.077,.356,.38,.356,1.095-.024,2.44,.069,4.873-.069,7.243v15.843c0,.649,.089,1.291,.069,1.939,0,.857-.133,1.278-.424,1.405-.202,.054-.444-.453-.489-1.105-.044-1.002-.089-2.082-.133-3.084-.069-1.73-.246-3.311-.735-4.271-.311-.588-.625-.968-1.001-.767-.355,.124-.758,.18-1.113-.202-.069-.004-.133-.007-.202,.067-.157,.212-.31,.048-.467-.103-.157-.229-.31-.38-.467-.245-.511,.258-1.043,.165-1.554-.082-.221-.089-.467-.167-.712,.105-.31,.411-.668,.328-.977,.169-.245-.155-.51-.027-.731-.401l-.044-.002c-.486,.259-.976-.336-1.462-.297-.755,.18-1.505-.079-2.239,.102-.421,.12-.818,.099-1.218,.156-.308-.016-.397,.263-.397,1.259-.024,.503,.024,.932,.068,1.426,.088,1.285,.068,2.641,.068,3.934,0,.853-.044,1.64,.044,2.498,.024,.221,.024,.428,0,.647-.044,.424-.068,.85-.068,1.276,0,3.427,1.747,5.597,2.61,6.151l.265,.235c.265,.235,.377,.734,.353,1.444-.044,.787-.177,1.206-.441,1.255-.309,.059-.622-.179-.906-.338-.333-.162-.666-.181-.974-.2-.597,.03-1.194-.29-1.77-.324-.264-.08-.332-.446-.376-1.302-.024-.854,.088-1.559,.088-2.425-.024-4.499-.024-9.062,0-13.624,0-.788-.132-1.571-.088-2.357,.088-1.495,0-2.999,0-4.42,0-4.498,.024-8.995,0-13.416,0-1.642-.088-3.21-.068-4.85,.024-.994,.044-2.066-.044-3.143-.044-.286-.024-.647-.024-.932,.024-.787,.132-1.132,.376-1.121l.621,.027c.797,.177,1.615-.213,2.432-.112,.245,.011,.485-.199,.73-.33,.265-.131,.421,.019,.486,.669,.068,.573-.024,1.28-.221,1.556-.201,.353-.421,.628-.622,.826-.73,.679-1.395,1.942-2.056,2.972-.244,.416-.353,1.057-.353,1.988,0,1.784-.024,3.568,0,5.353,.024,1.501-.068,2.919-.068,4.354,0,1.138,.156,1.65,.485,1.666l3.987,.199c.333,.017,.643-.11,.976,.269l.008,.013Zm8.562-145.606c.222,.222,.356,1.002,.291,1.937,0,.286,0,.571-.024,.857,0,1.221,.044,2.507-.069,3.727v.364c.113,2.014,.044,4.091,.024,6.091-.024,1.285,.044,2.585,.044,3.87,0,.571,0,1.221-.044,1.792-.069,.791,.024,1.572,.089,2.3s-.024,1.285-.178,1.79c-.158,.504-.355,.359-.537,.214-.157-.08-.267-.51-.267-1.081,0-.428-.024-.857,0-1.22,.024-.792-.044-1.429-.157-2.157-.202-1.223-.488-1.576-.936-1.01-.424,.566-.803,1.276-1.202,1.998-.399,.709-.822,1.132-1.225,1.84-.399,.644-.512,.927-.423,2.355,.024,.428,.044,.856,.044,1.284s-.024,.856-.044,1.283c-.068,.505,.068,1.077,.044,1.57,0,1.076-.044,2.152-.024,3.151,.024,1.505-.113,2.864-.089,4.226,.068,2.724,.024,5.447,.044,8.157,.024,1.077,.201,1.651,.487,1.578,.423,.008,.556-1.922,.556-2.999,0-.934,.113-1.71,.157-2.579,.044-.57,.29-.994,.468-.926,.246,.082,.399,.513,.399,1.369v3.516c-.044,1.284,.044,2.791-.069,4.229-.044,.648,.069,1.286,.069,2.013-.024,1.505,0,3.01,0,4.515,0,.285,0,.649,.024,1,.089,1.429-.133,2.073-.581,1.635-.246-.226-.379-.865-.399-1.799,0-3.801-.222-5.232-1.402-6.683-.423-.436-.821-1.015-1.18-1.813-.221-.51-.511-.58-.732-1.09-.599-1.294-1.267-2.175-1.93-3.042-.554-.722-1.089-1.522-1.618-2.386-.754-1.23-1.549-2.098-2.327-3.327-.709-1.228-1.639-2.807-2.387-3.685-.088-.144-.156-.222-.244-.288-.396-.575-.576-1.146-.576-2.154,0-.788,.068-1.847,.308-2.205,.86-1.125,1.657-2.899,2.543-4.038,.244-.359,.465-.99,.709-1.414,.377-.707,.818-.986,1.195-1.706,.642-1.131,1.329-1.848,1.995-2.838,.687-1.067,1.443-1.849,2.086-3.268,.024-.077,.044-.142,.088-.142,.599-.642,1.135-1.777,1.755-2.42,.157-.219,.31-.503,.443-.787,.487-.994,.999-1.716,1.511-2.347,.133-.219,.29-.504,.423-.788,.29-.504,.581-.994,.891-1.498,.488-.853,.912-1.927,1.025-3.796,.044-.714,.157-1.362,.202-2.076,.069-.999,.38-1.426,.735-1.138l.012,.039Zm1.047,30.051c.044,.066,.069,.144,.089,.287,.178,.574,.178,1.574,.247,2.303,.069,.936,.089,1.794,.178,2.653,.089,1.288,.158,2.588,.178,3.953,0,1.429,.089,2.938,.158,4.446,0,.221,0,.429-.024,.714-.024,.714,0,1.507-.044,2.221-.069,1.727-.024,3.443-.089,5.169-.113,2.869-.291,5.736-.558,8.523-.311,2.357-.538,4.858-1.047,6.923-.335,1.277-.582,2.776-.868,4.132-.602,2.709-1.247,5.339-1.872,8.045-.024,.077-.044,.219-.089,.283-.488,1.127-.823,2.699-1.246,4.048-1.112,3.259-1.913,8.236-1.957,13.109,0,1.218-.113,2.355-.177,3.506-.089,1.5,.113,2.221,.555,1.887,.221-.134,.443-.204,.668,.025,.089,.146,.177,.084,.266,.088,.846-.112,1.693,.348,2.516-.336,.089-.075,.178,.007,.291,.011,.735,.027,1.001-3.183,1.001-5.13,.024-1.142,.113-1.424,.444-1.491l.222,.008c.291,.088,.469,.445,.444,1.379-.024,1.726,.069,3.366,.089,5.094,0,1.143-.044,2.297,.044,3.521,.069,.717-.044,1.427-.044,2.154-.024,1.077-.024,2.22,0,3.299,0,1.649-.044,3.219-.133,4.8-.024,.285,0,.571,.024,.858,.113,1.29,0,1.649-.38,1.997-.646,.544-1.001-.691-.892-2.478,.113-2.293-.468-4.315-1.271-4.282-.67,.038-1.335-.053-2.024-.08l-1.957-.078c-.157-.006-.31,.053-.467-.161-.089-.081-.201-.086-.31-.012-.467,.344-.953,.247-1.419,.086-1.02-.403-2.04-.159-3.06-.341-.088-.003-.176-.007-.265-.075-.221-.229-.441-.16-.666,.038-.112,.073-.2,.277-.309,.208-.377-.157-.641,.544-.862,1.324-.264,.92-.421,1.987-.509,3.186-.024,.283,0,.504,.024,.712,.068,.856-.112,1.495-.376,1.549l-.308-.013c-.308-.013-.42-.379-.396-1.438,0-.711,.044-1.355,.068-2.065,.044-1.071,0-2.068-.068-3.066-.024-.647-.024-1.358,.024-2.003,.068-.993,.024-2.003,0-2.999-.044-1.863-.068-3.648,.024-5.493,.024-.568,.024-1.072,0-1.642-.044-.428-.044-.79-.044-1.217,0-.362,0-.788,.044-1.136,.024-.283,.044-.645,.024-.994-.112-2.072,.112-4.068,.068-6.138,0-.569,.112-1.211,.132-1.78,.068-2.493,.22-4.996,.42-7.343,0-1.073,.949-5.829,1.194-6.754,.2-.783,1.527-2.247,1.836-2.381,.554-.347,1.108-.617,1.686-.096,.643,.523,1.241,1.459,1.663,3.336,.113,.508,.245,.94,.398,1.372,.245,.72,.398,1.579,.442,2.656,0,.065,.422,5.883,.442,6.026,.044,.286,.044,.792,.201,.719,.157-.06,.221-.356,.245-.783,.044-.569,.089-1.073,.157-1.563,.221-2.067,.58-3.923,1.023-5.556,.713-2.482,1.378-5.044,1.978-7.817,.202-.994,.536-1.711,.714-2.706,.488-2.777,1.158-5.201,1.582-8.124,.581-4.141,1.002-9.015,1.139-13.596,.044-1.077-.024-2.221,0-3.299,.024-1.571,0-3.221,0-4.87,0-1.286,0-2.649-.069-4.014-.024-1.078-.044-2.221,.178-3.075,.178-.647,.489-.642,.691-.211l-.012-.013Zm-9.677,55.121c-.53-1.881-1.265-2.539-2.016-2.782-.666-.24-1.24,.751-1.773,1.731-1.086,1.828-1.483,6.665-1.483,10.376,0,2.004,.176,3.795,.377,5.651,.156,1.506,.509,2.165,.994,1.821,.421-.269,.818-.255,1.219-.02,.465,.237,.907,.098,1.373,.115,.157,.006,.333-.273,.486-.125,.309,.296,.623,.165,.844,.251l.732,.027c.221-.07,.354-.557,.289-1.272-.044-.429-.024-.934-.044-1.362-.044-.714,0-1.425,0-2.073,0-.142-.024-.364-.024-.506-.088-2.218-.088-4.369-.177-6.587-.068-2.075-.378-3.808-.8-5.246h.004Zm2.377-60.737c-.133,.219-.266,.502-.378,.786-.245,.567-.487,.991-.756,1.35-.667,.781-1.242,2.133-1.909,2.9-.53,.562-.976,1.63-1.506,2.191-.245,.216-.465,.498-.686,.701-.156,.218-.289,.423-.289,1.069,0,.569,.132,.856,.265,1.001,.931,.947,1.75,2.462,2.638,3.694,.466,.656,.952,1.377,1.399,2.175,.398,.655,.8,1.155,1.179,1.874,.133,.223,.29,.511,.443,.151,.177-.36,.157-.93,.113-1.502-.044-.506-.089-1.077-.089-1.57,.068-2.501,.113-4.937,.113-7.439,0-.791,0-1.568-.044-2.36-.068-1.142-.024-2.36,.044-3.512,0-.143,.024-.285,0-.428,0-1.076-.221-1.507-.531-1.083h-.004Zm-8.954-24.028c.024-.711-.024-1.719,.068-2.636,.024-.077,.024-.284,0-.427-.068-1.28,0-2.572,0-3.852-.024-1.28,0-2.637-.112-3.93-.024-.142-.024-.284,0-.427,.2-2.145-.024-4.356,.044-6.488,.024-.284,0-.569,.024-.853,0-.646,.112-.931,.288-.931,.508-.065,.797,.788,.817,2.353,0,.646-.024,1.28,.068,1.927,.132,1.073,.352,1.785,.753,1.216,.112-.077,.2-.142,.289-.362,.353-.711,.73-1.073,1.107-1.642,.598-.931,1.196-2.005,1.794-3.067,.309-.57,.667-.79,.976-1.36,.53-1.075,1.133-1.724,1.708-2.437,.29-.428,.531-1.076,.821-1.427,.378-.571,.732-1.142,1.067-1.933,.113-.221,.221-.364,.354-.506,.201-.221,.399-.507,.58-1,.29-.792,.669-.936,.979-1.43,.157-.286,.335-.429,.335-1,0-.506-.157-.791-.29-.998l-1.136-1.5c-.266-.284-.511-.568-.777-.995-.733-1.28-1.489-2.429-2.265-3.423-.732-.928-1.443-2.206-2.198-2.913-.088-.064-.201-.219-.245-.361-.421-1.563-1.838-3.274-2.479-3.916-.22-.218-.465-.423-.709-.706-.377-.501-.709,.148-.729,1.506,0,.789-.044,1.565-.088,2.354-.024,.789-.156,1.139-.396,1.218-.596,.224-.797-.357-.685-2.141,.044-.711,.068-1.358,.068-2.004,0-.362-.024-.788-.024-1.137-.024-1.137,.044-2.211,.068-3.348,.024-1.719,.068-3.504-.044-5.209-.024-.284-.024-.568-.024-.853,0-1.073,.068-1.423,.264-1.645,.308-.223,.577,.071,.709,.923,.112,.787,.156,1.705,.22,2.571,.088,1.564,.288,2.57,.773,3.199,.465,.642,.93,1.492,1.395,1.992,.71,.783,1.352,2.137,2.059,2.908,.024,0,.044,0,.068,.077,.623,1.355,1.354,1.919,2.017,2.99,.732,1.213,1.488,2.284,2.201,3.562,.801,1.422,1.668,2.351,2.446,3.709,.423,.712,.847,1.423,1.226,2.356,.311,.79,.646,1.14,1.001,1.645,.311,.427,.646,.79,.981,1.217,.38,.505,.582,1.284,.582,2.44,0,1.078-.089,1.65-.4,2.079-.671,.715-1.272,2.015-1.894,2.872-.581,.857-1.114,2.012-1.714,2.726-.488,.571-1.024,1.219-1.423,2.438-.068,.22-.177,.363-.29,.428-.6,.363-1.155,1.075-1.642,2.293-.044,.142-.089,.142-.133,.22-.889,1.281-1.709,3.067-2.597,4.424l-2.99,4.7c-.22,.361-.465,.645-.709,.928-.641,.644-.905,2.284-1.018,4.21-.024,.504-.088,.995-.088,1.499,.024,.504-.112,.853-.22,.994-.2,.218-.44,.217-.641-.004-.112-.065-.176-.428-.176-.854,.024-.646,.024-1.357,.024-2.21h-.024l-.012-.052Zm15.453-92.623c0,2.156,.024,4.298,.044,6.375,.024,1.87,0,3.662,0,5.519,0,.429-.069,1.001-.044,1.364,.089,1.726-.069,3.443,0,5.091,.024,.428,.024,.714,0,1.078-.044,1.793-.044,3.52,0,5.311,.024,.506,.044,1.077,.044,1.649,.024,.857-.044,1.793,.044,2.727,.069,.506-.113,1.144-.291,1.225-.424,.084-.848-.209-.868-2.286-.069-2.868-.379-5.447-1.404-5.431-.311,.005-.625-.133-.911-.128-.468,.085-.935,.015-1.403,.243-.399,.227-.777,.233-1.18,.096-.201,.003-.398,.084-.6,.087-.845-.065-1.709,.312-2.553-.18-.088,.001-.157,.08-.245,.146-.157,.145-.333,.225-.486,.085-.289-.28-.598-.211-.887-.206-.598,.152-1.196-.344-1.793-.192-.906,.234-1.859,1.814-1.859,5.162,0,.427-.024,.789-.068,1.139-.112,.855-.352,1.22-.685,1.005-.2-.139-.308-.707-.308-1.56,0-.284,0-.646,.044-.931,.044-.363,.044-.647,.024-.996-.112-1.498,.044-2.999,.024-4.563-.024-.504,0-1.073-.068-1.563-.024-.219-.024-.504,0-.646,.044-.505,.068-.996,.068-1.501,0-1.137-.088-2.351-.088-3.566,0-.853,0-1.861,.068-2.716,.068-.648-.044-1.356-.044-2.003,0-1.422,.024-2.857,.044-4.215,.024-2.069,.068-4.138,0-6.14-.068-1.717-.044-3.424-.068-5.143,0-.931,.088-1.863,.088-2.781-.024-.852-.024-1.718-.112-2.492,0-.22-.024-.361-.024-.568-.068-1.42,.024-1.707,.508-1.875,.797-.164,1.59-.405,2.388-.491,.221-.084,.441-.154,.666-.303,.289-.085,.397,.209,.485,.983,.068,.71,0,1.424-.201,1.791-.132,.223-.289,.435-.441,.516-.421,.153-.818,.668-1.175,1.311-.797,1.378-.817,4.379-.817,6.939,0,.853,.024,1.784,.088,2.713,.044,.646,.024,1.422-.044,2.148-.068,.648,0,1.358-.024,2.069-.044,2.147,.044,4.215,.068,6.348,.024,1.5,.353,2.347,.797,2.132,.529-.295,1.038-.239,1.548-.107,.245,.138,.51-.087,.774-.092,.622-.012,1.265-.244,1.883,.327,.398,.355,.643-.375,.643-1.735,0-1.075,0-2.15,.113-3.215,.068-.571-.044-1.139-.044-1.709,.024-3.071-.133-6.008-.354-9.007-.113-1.785-.422-2.49-1.021-2.475-.201,.005-.398,.01-.578-.413-.132-.359-.201-.785-.157-1.355,.024-.57,.177-.794,.309-.94,.133-.081,.289-.15,.442,.067,.112,.14,.245,.136,.353,.069,.554-.299,1.089-.17,1.644-.041,.265,.136,.579-.092,.865-.242,.245-.149,.487-.375,.757-.239,.133,.074,.266-.007,.399-.088,.246-.227,.467,.273,.511,.921,.044,.855-.089,1.506-.354,1.655-.068,.079-.157,.004-.221,.005-1.356,.176-1.356,5.618-1.356,8.767,.024,2.786,.024,5.585,.024,8.371,0,.998,.089,1.424,.422,1.353,.712-.091,1.401,.194,2.11,.246,.423,.07,.867,.126,1.29,.196,.246-.005,.468-.151,.714-.091,.69,.208,.847-.872,.981-2.666,.089-1.144,.069-2.299,.069-3.519,.024-1.143,0-2.363,.069-3.584,.044-.715,.044-1.429-.044-2.219-.024-.22-.024-.571-.024-.856v-3.946c.024-4.297-.581-7.293-1.759-9.196-.266-.421-.532-.985-.778-1.484-.177-.358-.29-1.069-.29-1.717,0-.791,.069-1.078,.31-1.228,.29-.086,.601,.061,.867,.404,.69,.695,1.38,1.325,2.026,2.384,.157,.216,.311,.42,.489,.558,.335,.355,.469,1.13,.469,2.208v4.233c-.069,2.222,.069,4.868,.089,7.595l.012,.026Zm-15.385-36.982c-.044-2.351,.024-4.783,.024-7.136,.024-1.358,.024-2.638,0-3.929-.024-.361-.024-.788,.112-.935,.264-.437,.576-.384,.861-.175,.132,.137,.132,.706,.132,1.133-.024,1.139,0,2.289,.132,3.344,.288,2.278,.93,3.032,1.639,3.006,.553-.097,1.107,.181,1.641-.485,.157-.148,.333-.09,.486-.017,.333,.273,.687,.053,1.04,.183,.776,.257,1.551-.198,2.332-.083,.133-.005,.245-.009,.378-.156,.177-.227,.398-.235,.58-.098,.334,.351,.644,.12,.978-.113,.157-.083,.31-.154,.467-.159,.846-.03,1.693-.138,2.536-.09,.488-.017,.626-.386,.69-1.959,.113-2.73,.178-5.459,.178-8.172,0-.935,0-1.869-.044-2.724-.089-2.216-.133-4.512-.202-6.729-.024-.713-.157-1.356-.291-1.922-.468-1.992-1.001-3.76-1.759-4.648-.266-.274-.399-1.267-.399-2.201,0-.999,.266-1.659,.601-1.311,.069,.075,.157,.214,.222,.276,.133,.28,.266,.637,.423,.63,.557,.196,1.001,1.241,1.513,1.724,.222,.211,.444,.344,.67,.477,.489,.264,.602,.831,.582,2.416-.044,1.508-.024,3.014-.024,4.521v7.675c.024,1.57-.069,3.081-.069,4.587,.024,3.155,0,6.311,0,9.467,0,.792-.024,1.572,.069,2.296,.024,.142,0,.286,0,.429-.113,2.225,.044,4.375,0,6.597-.024,1.364,0,2.727,0,4.013,0,1-.089,1.366-.38,1.518-.291,.23-.602-.345-.67-1.265-.113-1.139-.178-2.292-.266-3.354-.133-1.644-.379-2.208-.892-2.554-.424-.272-.823,.027-1.226-.388l-.069,.002c-.512,.523-1.024,.254-1.535,.05-.399-.13-.777,.168-1.156,.323-.221,.15-.443-.128-.668-.056-.933,.316-1.886,.424-2.818,.312-.643-.057-1.285,.042-1.907-.3s-1.263,.041-1.861,.565c-.289,.152-.509,.87-.641,1.663-.176,.937-.308,2.014-.288,3.074,0,.853-.068,1.502-.308,1.871-.244,.369-.484,.157-.709-.198-.112-.139-.088-.501-.088-.85-.024-1.705,0-3.503,0-5.274,0-1.564,.024-3.206-.024-4.846l.008-.026Zm1.261-97.074c-.2,.944-.332,2.025-.264,3.159v.789c0,1.422-.156,1.872-.533,1.895-.396,.025-.62-.608-.576-1.89,.068-2.499,.044-4.992,.044-7.564,0-1.422,.088-2.927,.024-4.28-.112-1.996,.044-3.932,.044-5.858,.024-1.863-.112-3.702-.068-5.566,.044-1.218,.088-2.436,.132-3.719,.024-.932,.044-1.929,.088-2.928,.068-3.573,.288-7.803,.905-10.848,.352-2.095,.994-3.282,1.635-4.34,.024-.079,.068-.148,.088-.084,.309,.054,.622-.332,.906-.289,1.264,.124,2.437,.669,2.991,4.914,.113,.846,.221,1.706,.334,2.618,.044,.359,.113,.782,.289,.691,.157-.012,.177-.376,.245-.808,.068-.575,.088-1.147,.133-1.798,.113-2.017,.467-3.611,.845-5.221,.113-.436,.221-.872,.334-1.386,.334-1.387,.845-1.996,1.244-3.103,.113-.229,.222-.238,.334-.246,.467-.036,.911-.148,1.378-.107,1.335,.26,1.936,3.575,2.538,6.97,.291,1.692,.489,3.482,.735,5.243,.044,.14,.069,.359,.069,.566-.024,.937,.089,1.786,.113,2.576,0,1.649,.178,3.143,.158,4.794,0,1.078,.069,2.151,.044,3.218-.024,1.145,.133,2.354-.044,3.522-.024,.145,0,.429,0,.571,.133,1.497-.044,3.081,.024,4.583,.024,1.362,0,2.649-.024,4.015-.044,2.367-.044,4.808,.024,7.167,.044,1.867-.024,3.807,.113,5.59,.069,.931-.133,1.658-.469,1.964-.246,.158-.489-.333-.582-1.106-.113-.85-.069-1.787-.133-2.718-.222-2.427-.533-3.77-1.36-3.716l-.67,.043c-.601,.181-1.201-.065-1.782-.171-.556-.107-1.111,.292-1.667,.185-.555-.042-1.11-.071-1.665,.185-.422,.17-.864,.276-1.286,.225-.333-.056-.667-.32-1.02-.154-.622,.325-1.22-.284-1.838-.102-.176,.011-.333-.341-.509-.187-.577,.179-1.018,1.061-1.326,2.659l.004,.052Zm.132-16.715c0,.853,0,1.565,.088,2.283,.068,.784,.176,1.63,.485,1.752,.465,.188,.93,.791,1.415,.267,.156-.153,.333-.165,.485-.033,.465,.331,.931,.015,1.397,.048,.157,.067,.333-.385,.486-.175,.221,.205,.422,.049,.643,.099,.486,.11,.643-1.118,.555-2.188-.133-1.493-.133-3.061-.177-4.56-.044-1.784,0-3.575-.068-5.357-.068-1.64-.245-3.194-.643-4.098-.422-.966-.863-1.944-1.373-2.476-.863-1.011-1.705-.237-2.282,2.094-.773,3.341-1.018,8.35-1.018,12.358l.008-.013Zm11.453,4.298c.892-.774,1.138-2.582,1.336-5.322,.089-1.226,0-2.363,.069-3.523,.024-.43,.044-.86,.044-1.288,0-1.727-.178-3.285-.133-5.002,0-.078-.024-.141-.044-.218-.178-1.921-.513-3.545-1.001-4.872-.468-1.328-1.024-2.078-1.669-1.953-.335,.025-1.245,.741-1.466,1.327-.688,1.697-1.401,3.395-1.622,6.34-.133,1.876-.354,3.602-.334,5.531,.024,2.072-.113,4.089-.068,6.159,0,.22-.024,.364-.024,.572-.068,1.287,.157,2.283,.579,2.254,.378,.052,.777-.052,1.155-.078,.089-.006,.201-.014,.266,.06,.487,.395,.979,.362,1.466,.264,.488-.033,.955,.156,1.448-.24v-.013Zm2.85-67.014c-.024,1.366-.158,2.741-.291,4.116-.069,.72-.024,1.431-.069,2.162-.178,1.885-.735,7.009-1.07,8.335-.246,1.02-.379,2.251-.69,3.134-.581,1.761-1.247,3.178-1.96,4.247-.335,.598-.713,.706-1.068,1.163-.777,.996-1.598,1.205-2.423,1.336-.201,.016-.354-.192-.555-.176-.555-.098-2.527-.509-2.993-1.118-1.308-1.46-2.703-3.998-3.476-7.787-.641-3.088-1.237-7.678-1.325-11.444-.024-1.562,0-3.141-.068-4.699-.068-1.635-.044-3.279,0-4.924,.088-3.071,.752-9.414,1.437-11.689,.088-.37,.176-.728,.22-1.236,.156-1.295,.421-2.393,.773-3.28,.244-.528,.421-1.398,.665-1.926,.577-1.194,1.131-2.541,1.793-3.239,.245-.308,.442-.897,.711-1.065,.667-.427,1.265-1.625,1.953-1.834,.024-.002,.044-.082,.068-.007,.511,.171,1.042-.179,1.577,.132,.334,.253,.688,.076,1.022,.471,1.092,1.036,2.603,3.835,3.471,6.115,.513,1.457,.735,3.448,1.138,5.059,.602,2.45,1.046,6.136,1.159,9.217,.044,1.139,.133,2.287,.069,3.358,.044,1.931-.069,3.812-.069,5.604v-.026Zm-1.248-5.486c.089-2.799-.222-5.29-.581-7.762-.246-1.483-.69-2.377-1.094-3.261-.847-1.854-1.826-2.334-2.825-2.603-.757-.214-1.534,.221-2.31-.004-.466-.099-.953-.053-1.419,.353-.554,.479-1.109,.893-1.618,1.653-.201,.381-.421,.609-.622,.99-.509,.759-1.063,1.315-1.504,2.494-.641,1.702-1.018,3.947-1.326,6.264-.264,1.886-.308,5.6-.308,7.811,0,1.926,.156,3.775,.332,5.608,.441,4.178,1.835,6.272,3.075,7.449,.819,.721,1.618,1.574,2.482,1.294,.265-.1,.555,.381,.8,.076,.511-.548,.997-.161,1.509-.489,.6-.335,1.224-.323,1.824-1.229,.733-.995,1.334-2.836,2.068-3.898,.024-.002,.069-.149,.089-.293,.601-2.271,.956-4.949,1.227-7.842,.178-1.95,.222-4.031,.202-6.042v-.571h0Zm1.248-59.271c-.024,1.366-.158,2.744-.291,4.122-.069,.722-.024,1.431-.069,2.163-.178,1.889-.735,7.024-1.07,8.357-.246,1.025-.379,2.259-.69,3.147-.581,1.772-1.247,3.202-1.96,4.286-.335,.604-.713,.72-1.068,1.184-.777,1.012-1.598,1.236-2.423,1.384-.201,.02-.354-.185-.555-.165-.555-.087-2.527-.459-2.993-1.059-1.308-1.434-2.703-3.944-3.476-7.719-.641-3.075-1.237-7.653-1.325-11.418-.024-1.561,0-3.141-.068-4.697-.068-1.634-.044-3.278,0-4.924,.088-3.073,.752-9.429,1.437-11.717,.088-.372,.176-.731,.22-1.24,.156-1.298,.421-2.401,.773-3.295,.244-.532,.421-1.406,.665-1.939,.577-1.205,1.131-2.563,1.793-3.274,.245-.313,.442-.906,.711-1.079,.667-.44,1.265-1.649,1.953-1.872,.024-.003,.044-.083,.068-.008,.511,.161,1.042-.199,1.577,.101,.334,.246,.688,.062,1.022,.451,1.092,1.014,2.603,3.784,3.471,6.046,.513,1.447,.735,3.434,1.138,5.037,.602,2.438,1.046,6.116,1.159,9.194,.044,1.138,.133,2.284,.069,3.356,.044,1.93-.069,3.813-.069,5.605v-.026Zm-1.248-5.462c.089-2.801-.222-5.285-.581-7.751-.246-1.478-.69-2.363-1.094-3.239-.847-1.838-1.826-2.298-2.825-2.547-.757-.199-1.534,.252-2.31,.042-.466-.09-.953-.034-1.419,.381-.554,.49-1.109,.915-1.618,1.685-.201,.385-.421,.617-.622,1.002-.509,.769-1.063,1.336-1.504,2.524-.641,1.714-1.018,3.967-1.326,6.29-.264,1.891-.308,5.606-.308,7.817,0,1.926,.156,3.772,.332,5.602,.441,4.169,1.835,6.236,3.075,7.388,.819,.705,1.618,1.542,2.482,1.245,.265-.105,.555,.37,.8,.06,.511-.558,.997-.181,1.509-.518,.6-.347,1.224-.347,1.824-1.265,.733-1.01,1.334-2.863,2.068-3.938,.024-.003,.069-.15,.089-.295,.601-2.282,.956-4.968,1.227-7.866,.178-1.953,.222-4.035,.202-6.046v-.571h0Zm-14.428-49.017c0-.646-.024-1.277,.044-1.931,.044-.432,.024-.934-.024-1.419-.068-.702-.024-1.496-.024-2.285,0-.22,0-.362,.068-.513,.22-.532,.44-.482,.709-.232,.22,.192,.264,.678,.264,1.324-.024,1.141,.112,2.132,.264,3.174,.176,1.4,.817,1.903,1.262,1.847,.333,.101,.686,.135,1.039,.091,.642-.158,1.284,.06,1.951-.32,.353-.264,.731-.376,1.109-.28,.177,.12,.334,.036,.51-.064,.245-.031,.31-.544,.201-1.165-.068-.354-.133-.774-.245-1.045-.245-.824-.51-1.646-.756-2.547-.354-1.173-.667-2.415-1.04-3.52-.265-.756-.422-1.811-.687-2.631-.466-1.364-.774-3.188-1.196-4.635-.421-1.446-.842-2.892-1.327-4.187-.176-.481-.353-1.092-.485-1.799-.088-.493-.22-.902-.421-.656-.22,.249-.264,.823-.244,1.454,0,.646-.024,1.219,.044,1.856,.088,.919-.088,1.434-.376,1.549-.332,.043-.576-.494-.576-1.709,.044-3.573-.112-7.056-.068-10.629,.024-1.567-.024-3.06,0-4.64,0-.853,.2-1.449,.464-1.562,.264-.036,.485,.581,.509,1.353,0,.646,.024,1.277,.044,1.998,.132,2.129,.441,3.872,.861,5.458,.709,2.545,1.483,4.875,2.145,7.648,.289,1.179,.642,2.35,.975,3.523,.201,.764,.422,1.512,.578,2.424,.133,.98,.422,1.228,.687,.417,.422-1.414,.977-2.418,1.399-3.976,.265-.89,.579-1.578,.865-2.406,.511-1.57,1.091-2.929,1.598-4.5,.334-.978,.733-1.886,1.112-2.792,.335-.693,2.359-5.829,2.605-6.796,.291-1.181,.488-2.364,.488-3.792,0-.364,0-.792-.044-1.214-.024-.36,0-.714,0-1.078,.024-1.146,.113-1.443,.468-1.492,.133-.018,.267-.114,.4-.055,.267,.041,.444,.731,.38,1.597-.069,.802-.133,1.59-.133,2.382,0,.429,.024,.854,.069,1.276,.044,.565-.089,1.09-.069,1.659,.069,2.069-.044,4.162,0,6.234,.044,1.786-.246,3.11-.671,4.179-.38,.907-.735,1.966-1.114,2.937-.113,.3-.222,.6-.335,.758-.222,.314-.399,.701-.533,1.432-.113,.728-.379,.906-.557,1.435-.133,.38-.29,.751-.423,1.196-.044,.148-.089,.375-.133,.445-.556,.72-.846,2.327-1.289,3.317-.6,1.36-1.111,2.929-1.667,4.439-.177,.45-.354,.758-.511,1.283-.133,.38-.177,.735-.177,1.098,0,.79,.487,2.44,.668,2.922,.157,.408,.266,.9,.378,1.456,.157,.914,.31,1.037,.668,.85,.201-.103,.423-.13,.644-.08,.379,.173,.757,.269,1.136,.287l1.649-.205c.468-.058,.714-.738,.892-2.123,.133-.951,.202-2.037,.266-3.045,.044-.798,.157-1.162,.4-1.193,.671-.227,.78,.044,.715,2.273-.024,.795-.044,1.512-.044,2.304,0,.506,0,.935,.044,1.423,.044,.644-.133,1.445-.069,2.164,.089,.781,.069,1.498,.069,2.29v4.299c0,1.221,.024,2.439,0,3.584-.024,.795,.089,1.496,.069,2.29,0,1.078-.113,1.585-.424,1.7s-.602-.434-.626-1.353c0-1.078-.133-1.996-.202-2.988-.157-1.85-.222-1.907-.823-2.055-.444-.089-.892-.255-1.359-.12-.222,.105-.443-.231-.669-.139-.89,.329-1.78,.139-2.666,.324-.334,.118-.688,.006-1.042,.347-.29,.255-.579-.15-.864-.115l-2.016,.245c-.201,.024-.397,.126-.578-.072-.132-.126-.289-.107-.397,.048-.112,.156-.245,.25-.353,.185-.465-.086-.906,.252-1.371,.671-.553,.494-.929,1.613-.905,3.679v.789c-.044,2.009-.176,2.025-.665,2.29-.396,.125-.508-.301-.508-1.581-.024-2.634,0-5.351,0-7.988,0-2.43-.024-4.844,0-7.277h-.004Z" style="fill:url(#l);"/></svg>