<?xml version="1.0" encoding="UTF-8"?><svg id="a" xmlns="http://www.w3.org/2000/svg" xmlns:xlink="http://www.w3.org/1999/xlink" viewBox="0 0 778.235 1080"><defs><style>.u{stroke:url(#g);}.u,.v,.w,.x,.y,.a`,.aa,.ab,.ac,.ad,.ae,.af{fill:none;stroke-linecap:round;stroke-miterlimit:10;}.u,.v,.x,.y,.a`,.ab,.ac,.ae{stroke-width:3px;}.ag{fill:url(#r);}.ah{fill:url(#l);}.v{stroke:url(#k);}.w{stroke:url(#e);}.w,.aa,.ad,.af{stroke-width:5px;}.ai{fill:url(#c);}.x{stroke:url(#h);}.y{stroke:url(#j);}.a`{stroke:url(#s);}.aa{stroke:url(#m);}.ab{stroke:url(#t);}.aj{fill:url(#p);}.ak{fill:url(#b);}.ac{stroke:url(#i);}.al{fill:url(#d);}.ad{stroke:url(#o);}.ae{stroke:url(#f);}.am{fill:#1d442e;}.an{fill:url(#n);}.af{stroke:url(#q);}</style><linearGradient id="b" x1="390.686" y1="468.59" x2="390.686" y2="397.86" gradientTransform="matrix(1, 0, 0, 1, 0, 0)" gradientUnits="userSpaceOnUse"><stop offset="0" stop-color="#a67d12"/><stop offset=".236" stop-color="#bf9b2e"/><stop offset=".482" stop-color="#ffcf43"/><stop offset=".759" stop-color="#bf9b2e"/><stop offset="1" stop-color="#a67d12"/></linearGradient><linearGradient id="c" x1="390.528" y1="365.546" x2="390.528" y2="287.409" gradientTransform="matrix(1, 0, 0, 1, 0, 0)" gradientUnits="userSpaceOnUse"><stop offset="0" stop-color="#a67d12"/><stop offset=".236" stop-color="#bf9b2e"/><stop offset=".482" stop-color="#ffcf43"/><stop offset=".759" stop-color="#bf9b2e"/><stop offset="1" stop-color="#a67d12"/></linearGradient><linearGradient id="d" x1="386.374" y1="1021.399" x2="386.374" y2="1006.771" gradientTransform="translate(1400.458 627.711) rotate(90)" gradientUnits="userSpaceOnUse"><stop offset="0" stop-color="#a67d12"/><stop offset=".236" stop-color="#bf9b2e"/><stop offset=".409" stop-color="#bf9b2e"/><stop offset=".493" stop-color="#c39e2f"/><stop offset=".584" stop-color="#d0a833"/><stop offset=".676" stop-color="#e5ba3a"/><stop offset=".759" stop-color="#ffcf43"/><stop offset="1" stop-color="#a67d12"/></linearGradient><linearGradient id="e" x1="384.834" y1="1037.673" x2="384.834" y2="913.477" gradientTransform="matrix(1, 0, 0, 1, 0, 0)" gradientUnits="userSpaceOnUse"><stop offset="0" stop-color="#a67d12"/><stop offset=".25" stop-color="#bf9b2e"/><stop offset=".5" stop-color="#fcbe0c"/><stop offset=".75" stop-color="#bf9b2e"/><stop offset="1" stop-color="#a67d12"/></linearGradient><linearGradient id="f" x1="387.868" y1="1053.59" x2="387.868" y2="959.952" gradientTransform="translate(470.971) rotate(-180) scale(1 -1)" gradientUnits="userSpaceOnUse"><stop offset="0" stop-color="#a67d12"/><stop offset=".097" stop-color="#fcbe0c"/><stop offset=".212" stop-color="#bf9b2e"/><stop offset=".75" stop-color="#bf9b2e"/><stop offset=".84" stop-color="#bb9629"/><stop offset=".936" stop-color="#b0891d"/><stop offset="1" stop-color="#a67d12"/></linearGradient><linearGradient id="g" x1="394.51" y1="1066.038" x2="394.51" y2="961.905" gradientTransform="translate(470.971) rotate(-180) scale(1 -1)" gradientUnits="userSpaceOnUse"><stop offset="0" stop-color="#a67d12"/><stop offset=".184" stop-color="#fcbe0c"/><stop offset=".361" stop-color="#bf9b2e"/><stop offset=".75" stop-color="#bf9b2e"/><stop offset=".84" stop-color="#bb9629"/><stop offset=".936" stop-color="#b0891d"/><stop offset="1" stop-color="#a67d12"/></linearGradient><linearGradient id="h" x1="772.293" y1="633.079" x2="772.293" y2="539.44" gradientTransform="translate(855.396 658.344) rotate(-180)" xlink:href="#f"/><linearGradient id="i" x1="778.935" y1="646.207" x2="778.935" y2="542.074" gradientTransform="translate(855.396 658.344) rotate(-180)" xlink:href="#g"/><linearGradient id="j" x1="697.372" y1="501.996" x2="697.372" y2="408.357" gradientTransform="translate(0 527.261) scale(1 -1)" xlink:href="#f"/><linearGradient id="k" x1="704.014" y1="515.124" x2="704.014" y2="410.99" gradientTransform="translate(0 527.261) scale(1 -1)" xlink:href="#g"/><linearGradient id="l" x1="385.023" y1="596.685" x2="385.023" y2="582.057" gradientTransform="translate(974.394 439.715) rotate(-90) scale(1 -1)" xlink:href="#d"/><linearGradient id="m" x1="383.484" y1="155.3" x2="383.484" y2="31.104" xlink:href="#e"/><linearGradient id="n" x1="1103.843" y1="951.858" x2="1103.843" y2="937.23" gradientTransform="translate(1671.644 1671.644) rotate(-90) scale(1 -1)" xlink:href="#d"/><linearGradient id="o" x1="672.983" y1="534.389" x2="753.424" y2="534.389" gradientTransform="matrix(1, 0, 0, 1, 0, 0)" gradientUnits="userSpaceOnUse"><stop offset="0" stop-color="#a67d12"/><stop offset=".25" stop-color="#bf9b2e"/><stop offset=".5" stop-color="#fcbe0c"/><stop offset=".75" stop-color="#bf9b2e"/><stop offset="1" stop-color="#a67d12"/></linearGradient><linearGradient id="p" x1="1103.843" y1="-517.718" x2="1103.843" y2="-532.345" gradientTransform="translate(-460.562 -536.042) rotate(90)" xlink:href="#d"/><linearGradient id="q" x1="118.586" y1="534.389" x2="38.145" y2="534.389" xlink:href="#o"/><linearGradient id="r" x1="153.627" y1="705.24" x2="629.714" y2="705.24" xlink:href="#c"/><linearGradient id="s" x1="258.523" y1="1053.59" x2="258.523" y2="959.952" gradientTransform="translate(438.849)" xlink:href="#f"/><linearGradient id="t" x1="265.164" y1="1066.038" x2="265.164" y2="961.905" gradientTransform="translate(438.849)" xlink:href="#g"/></defs><rect width="778.235" height="1080" style="fill:#1d442e;"/><g><path d="M231.859,404.864c-1.267-.877-2.728-1.461-4.287-1.169h-1.072c-1.949,0-2.533-.682-2.533-2.338,0-1.754,.877-2.728,2.63-2.533,3.41,.292,6.82,.195,10.328,.195,1.948,0,3.994,.39,5.846,.098,2.728-.487,5.358,.195,7.989,.195,2.533,.097,5.066-.487,7.6-.292,1.656,.195,3.312,.39,5.066,.584,1.267,.098,2.631,.195,3.995,.39,4.872,.292,10.62,1.266,14.711,3.994,2.826,1.559,4.384,4.384,5.749,7.21,.097,.097,.195,.292,.097,.39-.097,1.364,.39,2.728,.292,3.995-.292,5.553-1.169,10.717-7.015,13.152-1.169,.487-2.338,.975-3.604,1.461-.487,.195-1.072,.487-.975,1.267,0,.682,.487,.779,1.072,1.072,.78,.292,1.559,.39,2.436,.584,2.728,.487,4.871,2.046,7.015,3.702,.584,.487,1.169,.975,1.851,1.461,1.851,1.461,2.63,3.703,4.092,5.456,.292,.487,.292,.974,.292,1.461,0,2.046,.097,3.995,0,6.041-.487,5.846-5.066,8.476-9.743,11.107-2.338,1.266-4.774,2.143-7.21,3.215-.195,.195-.487,.292-.779,.292-1.267-.098-2.436,.39-3.507,.487-2.241,0-4.287,.78-6.528,.682-1.461,0-2.923,.292-4.384,.195-1.559-.097-3.215,.584-4.774-.195-.195-.097-.584,0-.779,0-2.046,.584-4.189-.195-6.235,.098-1.851,.097-3.604,0-5.456-.098-3.215-.195-6.527-.195-9.743,.098-2.533,.195-5.164-.098-7.599,.487-1.267,.292-2.241-.584-2.63-2.046-.195-1.072,.487-2.144,1.559-2.533,1.169-.487,2.436-.292,3.702-.584,3.312-.974,5.164-2.338,5.164-5.943v-2.923c-.195-2.631,.195-5.261,.39-7.794,.195-2.436-.292-4.871-.098-7.307,.098-2.436,.195-4.871-.098-7.307-.195-1.852-.292-3.8-.195-5.651,.098-1.461,.487-2.923,.292-4.482-.39-2.728,.487-5.358,.292-8.086,0-.779,.487-1.461,.292-2.241-.195-2.533-1.364-4.481-3.507-5.846Zm15.881,50.857c.974,3.897,3.41,4.969,7.112,5.846,1.656,.39,3.215,0,4.774,.292,.585,.097,1.169,.195,1.754,.195,2.338,0,4.481-.779,6.82-.584,.098,0,.195-.098,.292-.195,2.63-.78,4.871-2.241,6.722-4.384,1.852-2.046,2.923-4.482,2.826-7.307,0-1.461-.877-5.456-1.656-6.43-2.241-3.021-4.482-6.138-8.476-7.112-2.533-.584-4.872-1.559-7.502-1.461-2.826,.098-5.554-.487-8.379-.292-.292,0-.487-.098-.779-.098-1.754-.292-3.118,.682-3.118,2.533-.098,1.656,0,3.41,0,5.066,0,.39,0,.877-.098,1.169-.584,2.144-.584,4.287-.487,6.43,0,2.144-.292,4.189,.195,6.333Zm6.917-50.272c-1.169,0-2.143,0-3.118,.39-1.071,.292-2.241,.78-2.436,2.144-.292,2.046-1.169,4.092-.487,6.235,.195,.682,.195,1.461,0,2.144-.487,2.046-.097,4.092-.195,6.138-.097,.682,.487,1.461,.195,2.144-.292,.974-.097,1.851-.195,2.825-.195,2.144,1.461,2.826,2.923,2.436,2.046-.585,4.189-.585,6.235-.78,2.436-.195,4.872,0,7.307-.292,2.241-.292,4.384-1.072,5.651-2.826,1.364-1.851,2.728-3.799,3.507-6.041,1.461-3.799,.487-7.501-2.63-10.035-4.482-3.41-11.302-4.482-16.758-4.482Z" style="fill:url(#b);"/><path d="M338.541,468.192c-1.851-.097-3.702-.682-5.553-1.266-.975-.292-1.949-.098-2.923-.292-2.533-.779-9.451-3.215-11.204-4.677-1.364-1.071-3.021-1.656-4.189-3.02-2.338-2.533-4.189-5.456-5.554-8.574-.779-1.461-.877-3.118-1.461-4.676-1.267-3.41-1.461-7.015-1.559-10.62,0-.877,.292-1.559,.292-2.436,.195-2.436,.975-11.107,1.851-13.153,2.144-5.749,5.748-11.886,11.01-15.296,4.286-2.825,10.619-5.456,15.783-5.845,2.144-.098,4.286,0,6.43-.292,2.241-.292,4.482-.195,6.723,0,4.189,.39,12.763,3.312,15.783,6.333,.487,.39,.975,.78,1.656,.975,1.754,.682,3.215,1.851,4.385,3.41,.682,1.072,1.851,1.851,2.533,2.923,1.559,2.533,3.312,4.969,4.188,7.892,.391,1.072,1.17,1.949,1.364,3.118,.487,2.923,2.046,5.554,2.241,8.574,0,.098,.098,.195,0,.292-.293,2.241,.098,4.579-.39,6.917-.39,1.461-.195,3.021-.779,4.482-1.56,4.774-5.554,11.399-8.769,15.199-2.046,2.241-4.774,3.215-7.015,4.969-3.41,2.63-8.477,4.579-12.666,5.066-1.559,.195-3.117,.585-4.579,.292-2.631,.195-5.164-.292-7.6-.292Zm7.6-5.456c3.8,.39,7.21-.975,10.62-2.533,2.046-1.072,3.312-3.021,4.579-4.774,2.63-3.702,3.409-7.989,3.896-12.374,.39-3.312-.098-6.722,.292-10.132,.195-2.046,.195-4.189-.292-6.235-.584-2.436-1.071-4.871-2.046-7.112-.487-.876-.779-1.851-1.267-2.728-.975-2.241-1.656-4.676-3.215-6.625-2.241-2.825-5.262-4.481-8.379-5.846-2.533-1.169-7.6-1.364-10.619-1.364-2.631,0-5.164,.682-7.697,1.461-5.748,1.949-8.769,8.086-10.522,13.542-1.071,3.605-2.338,7.112-2.046,10.912,.098,1.169-.584,2.436-.194,3.507,.682,2.241,.098,4.384,.487,6.625,.39,2.63,.292,5.358,1.461,7.989,1.267,3.215,3.702,5.846,5.066,9.061,0,.097,.194,.292,.39,.39,3.021,2.63,6.625,4.189,10.522,5.358,2.63,.779,5.455,.974,8.184,.877h.779Z" style="fill:url(#b);"/><path d="M426.517,468.192c-1.852-.097-3.702-.682-5.554-1.266-.974-.292-1.948-.098-2.923-.292-2.533-.779-9.45-3.215-11.204-4.677-1.364-1.071-3.021-1.656-4.189-3.02-2.338-2.533-4.189-5.456-5.553-8.574-.78-1.461-.877-3.118-1.462-4.676-1.267-3.41-1.461-7.015-1.559-10.62,0-.877,.292-1.559,.292-2.436,.195-2.436,.975-11.107,1.852-13.153,2.144-5.749,5.748-11.886,11.009-15.296,4.287-2.825,10.62-5.456,15.783-5.845,2.144-.098,4.287,0,6.431-.292,2.24-.292,4.481-.195,6.723,0,4.189,.39,12.763,3.312,15.783,6.333,.487,.39,.974,.78,1.656,.975,1.753,.682,3.215,1.851,4.384,3.41,.682,1.072,1.852,1.851,2.533,2.923,1.559,2.533,3.312,4.969,4.189,7.892,.39,1.072,1.169,1.949,1.364,3.118,.487,2.923,2.046,5.554,2.24,8.574,0,.098,.098,.195,0,.292-.292,2.241,.098,4.579-.39,6.917-.39,1.461-.194,3.021-.779,4.482-1.559,4.774-5.554,11.399-8.769,15.199-2.046,2.241-4.773,3.215-7.015,4.969-3.41,2.63-8.477,4.579-12.665,5.066-1.56,.195-3.118,.585-4.579,.292-2.631,.195-5.164-.292-7.6-.292Zm7.6-5.456c3.799,.39,7.209-.975,10.619-2.533,2.046-1.072,3.312-3.021,4.579-4.774,2.631-3.702,3.41-7.989,3.897-12.374,.39-3.312-.098-6.722,.292-10.132,.194-2.046,.194-4.189-.292-6.235-.585-2.436-1.072-4.871-2.046-7.112-.487-.876-.78-1.851-1.267-2.728-.975-2.241-1.656-4.676-3.216-6.625-2.24-2.825-5.261-4.481-8.379-5.846-2.532-1.169-7.599-1.364-10.619-1.364-2.631,0-5.164,.682-7.696,1.461-5.749,1.949-8.769,8.086-10.522,13.542-1.072,3.605-2.339,7.112-2.046,10.912,.098,1.169-.585,2.436-.195,3.507,.683,2.241,.098,4.384,.487,6.625,.39,2.63,.292,5.358,1.462,7.989,1.267,3.215,3.702,5.846,5.065,9.061,0,.097,.195,.292,.39,.39,3.021,2.63,6.625,4.189,10.522,5.358,2.631,.779,5.456,.974,8.184,.877h.78Z" style="fill:url(#b);"/><path d="M503.192,399.408c.877,0,1.754-.097,2.631,.195,.584,.195,1.267,.098,1.948-.097,.975-.292,2.046-.098,3.118-.098,.292,0,.486,0,.682,.292,.682,.974,.584,1.949,.194,3.118-.292,.974-.974,1.169-1.851,1.169-1.559-.097-2.923,.487-4.385,1.169-1.948,.779-2.728,3.604-2.728,5.553-.195,1.461-.292,3.02-.292,4.579,.097,2.825-.293,5.651,.097,8.574,.293,1.559,.391,3.215,.195,4.871-.195,.78-.098,1.461,0,2.241,0,1.072,.682,1.364,1.559,.877,.487-.292,1.072-.584,1.462-1.072,1.169-1.071,2.338-2.241,3.604-3.312,1.656-1.559,3.41-2.923,4.969-4.579,1.072-1.169,2.533-1.851,3.702-3.02,1.948-2.046,4.481-3.41,6.527-5.261,2.047-1.851,4.093-3.702,5.943-5.846,.683-.779,1.559-1.559,2.533-2.143,.682-.39,1.267-.975,.975-1.851-.293-.975-1.072-1.169-1.949-1.072-.876,0-1.656-.098-2.532,.195-1.267,.39-1.949-.39-2.047-1.656,0-1.461,.78-2.533,2.437-2.533,4.871,.195,9.645-.487,14.517-.292,2.143,.098,4.189-.097,6.332,0,1.17,0,1.949,.877,2.047,2.046,0,1.169-.877,2.143-1.949,2.241-.877,0-1.754,.097-2.728,.195-2.923,.584-5.358,1.948-7.6,3.8-3.604,3.118-6.917,6.527-10.814,9.45-1.656,1.267-3.312,2.825-4.969,4.287-1.071,.877-2.144,1.852-3.41,2.533-1.364,.584-1.754,1.851-.682,3.021,1.851,1.851,3.117,4.287,5.163,6.138,1.17,1.169,2.047,2.533,3.118,3.8,2.046,2.241,3.8,4.774,5.846,7.015,1.267,1.461,2.436,3.215,3.604,4.872,.877,1.461,7.502,10.327,8.769,11.399,1.559,1.267,3.118,2.144,5.066,2.144,.487,0,1.071,0,1.656-.195,.487-.097,.975,0,1.461,0,1.56,.098,1.949,.487,1.949,2.046,0,.584,.097,1.169,0,1.753-.098,1.169-1.072,1.949-2.241,1.656-1.071-.292-2.144-.584-3.215-.584-.585,0-1.169,.098-1.754,.292-.779,.195-1.461-.39-2.241-.292-2.825,.292-5.65-.195-8.476,0-2.436,.195-4.189-1.072-5.554-2.923-1.169-1.656-2.533-3.215-3.8-4.871-.39-.487-.779-.975-.974-1.461-.39-.975-.877-1.754-1.852-2.338-.975-.487-1.169-1.656-1.851-2.436-.487-.585-.975-1.267-1.56-1.852-.194-.195-.486-.39-.584-.584-.877-2.436-3.021-3.702-4.287-5.651-1.754-2.63-3.8-4.871-5.748-7.307-.585-.78-.975-1.559-1.656-2.241-.487-.584-.975-.779-1.462-.779-1.071,0-3.409,2.144-4.092,2.923-.584,.682-1.267,1.169-2.046,1.656-1.267,.682-1.461,1.364-1.267,2.923,.098,.877,.098,1.851,0,2.825-.292,1.657-.487,3.313-.584,4.969v7.209c0,2.046,.877,3.118,2.728,3.897,1.267,.584,2.728,.877,4.092,1.169,1.072,.195,1.559,.682,1.559,1.754,.195,2.923-.194,3.41-3.215,3.118-1.071-.097-2.046-.195-3.117-.195-.683,0-1.267,0-1.949,.195-.877,.195-1.948-.584-2.923-.292-1.071,.39-2.046,.292-3.117,.292h-5.846c-1.656,0-3.312,.098-4.871,0-1.072-.097-2.046,.39-3.118,.292-1.461,0-2.144-.487-2.24-1.851-.098-1.364,.682-2.631,1.948-2.728,1.461,0,2.728-.585,4.092-.877,2.533-.682,2.631-.974,2.923-3.605,.195-1.948,.487-3.897,.39-5.943-.098-.974,.39-1.949,.292-2.923-.292-3.897,.098-7.794,0-11.691-.097-1.461,.098-3.02-.292-4.579-.292-1.267,.292-2.533,.292-3.8v-8.866c0-.877-.097-1.753,.195-2.533,.194-.584,.194-1.267,0-1.753-.195-.487-.292-1.072-.195-1.559,.195-2.046-.194-3.995-.682-6.041-.585-2.436-2.046-4.092-4.871-3.994h-1.072c-2.728-.195-2.728-.78-3.02-2.923-.098-1.754,.486-2.241,2.24-2.241,3.605-.097,7.308,0,10.912,0,3.312,0,6.625-.097,9.938,0Z" style="fill:url(#b);"/></g><g><path d="M199.223,319.755c-.195,.876,.39,1.753,.292,2.63v20.655c.39,1.753,.39,3.604,.39,5.358,0,2.241,1.754,3.995,4.384,4.579,1.559,.39,3.118,.682,4.774,.974,1.852,.292,2.631,1.169,2.533,3.021-.097,1.071-.487,1.559-1.461,1.559-3.312-.097-6.625,.292-9.84-.292h-21.532c-.877,0-1.753,.39-2.63,.292-1.169,0-1.754-.584-1.949-1.851-.097-.877,.584-1.949,1.461-2.144,1.364-.195,2.826-.39,4.189-.584,2.338-.292,4.482-1.072,5.748-3.215,.78-1.364,1.267-2.728,.975-4.384-.195-1.559-.292-3.312,.195-4.872,0-.292,0-.584-.098-.877-.292-.682-.097-1.364,.098-2.046,.292-.682,.487-1.364,.292-2.046-.39-2.241-.292-4.579,0-6.82,.098-.974,.195-2.046-.195-3.118-.584-1.364-.487-2.923-.292-4.287,.195-1.071,0-2.241,.487-3.215v-.195c-.39-2.144,.39-4.287,.292-6.43-.292-3.312,0-6.625-.292-9.84-.195-1.851-.195-3.605-.292-5.358,0-1.364-.39-1.754-1.754-1.754-.682-.097-1.267,.098-1.948,.292-1.754,.39-3.605,.292-5.359,.292-1.169,0-2.241-.195-3.41,.195-.292,.097-.584,.097-.877,0-.584-.195-1.169-.292-1.754-.292-4.676,0-7.501,7.697-8.184,11.497l-.292,1.169c-.292,1.169-.974,1.656-1.948,1.559-1.072-.195-1.656-.78-1.754-1.949-.097-1.364,.195-2.728,.39-3.995,.195-1.461,.195-2.923,.195-4.287-.097-2.631,.292-5.261,.292-7.794,.097-1.169,.584-1.461,1.753-1.656,1.169-.097,2.144,.39,3.312,.39,6.138-.097,12.374-.097,18.609,0,1.072,0,2.144-.584,3.215-.39,2.046,.39,4.092,0,6.041,0,6.138,0,12.276,.098,18.316,0,2.241,0,4.384-.39,6.625-.292,1.364,.097,2.826,.195,4.287-.195,.39-.195,.877-.098,1.267-.098,1.071,.098,1.559,.584,1.559,1.656v2.728c-.195,3.507,.39,7.112,.292,10.717,0,1.072,.292,2.144,.487,3.215,.195,1.169,0,1.851-.876,2.144-.78,.292-1.754-.098-2.144-.975-.487-.876-.877-1.851-1.169-2.728-.975-3.215-2.728-6.138-4.189-9.061-.584-1.072-1.461-1.559-2.728-1.559-2.436,0-4.872-.098-7.307,0-2.046,.097-3.995-.292-5.943-.292-1.559,0-2.241,.682-2.241,2.144v17.537c0,1.461,.195,2.826-.292,4.287Z" style="fill:url(#c);"/><path d="M356.858,361.844c-.098,.195-.194,.292-.39,.39-.779,.779-2.144,.779-3.117,1.072-1.267,.292-2.437,.39-3.605,.779-1.753,.39-3.507,.682-5.358,.78-1.948,0-3.994,.39-6.04,.682-.293,0-.585,0-.975-.097-.975-.098-2.046,0-3.021-.195-2.338-.292-4.676-.098-7.015-.39-3.896-.487-7.794-1.267-11.594-2.436-3.215-1.364-6.625-2.338-9.45-4.579-1.754-1.461-3.8-2.533-5.651-3.799-3.702-2.631-7.307-5.456-11.009-8.184-.098-.098-.292-.195-.39-.39-1.559-2.144-3.702-3.605-5.554-5.456-4.481-4.871-11.301-8.379-17.926-8.574-1.656,0-3.215-.487-4.774-.779-2.046-.39-3.021,.487-2.533,2.436,.195,.975,.292,1.949,0,2.923-.195,.39-.098,.78-.098,1.169,.195,3.702-.39,7.404,.584,11.009,.098,.39,0,.779,0,1.267,0,3.215,4.384,4.384,7.015,4.384,1.559,.097,1.948,.487,2.046,1.948v.974c-.098,1.267-.584,2.046-1.851,1.949-2.338-.097-4.579,.292-6.917,.39-1.559,0-3.118-.195-4.774,.195-.974,.292-1.949-.195-2.923-.195-1.461-.097-3.02-.097-4.481,0-2.241,0-4.384-.195-6.528-.584-.39-.097-.779,0-1.169,.098-1.754,.487-2.241,0-2.728-1.656-.779-2.826,.877-4.384,3.312-3.897,3.118,.487,5.846-2.046,5.748-5.553-.097-2.923,0-5.846,0-8.866v-8.574c0-.682-.097-1.364,.195-2.046,.098-.39,.098-.877,0-1.364-.487-2.046-.39-4.189-.195-6.235,.487-4.481,.098-8.963,.292-13.445,0-.39,0-.779,.097-1.169,.292-.975,.195-1.949-.097-2.923-.098-.487-.39-.877-.292-1.364,.195-1.656-.779-2.825-1.851-3.799-1.267-1.169-2.728-1.852-4.384-2.241-.39-.097-.682,0-.974,.098-1.169,.292-2.046-.487-2.144-1.656v-1.364c0-1.364,.487-1.851,1.949-1.753,.974,0,1.851,.195,2.825,.292,1.461,.195,2.826,0,4.189-.292,.877-.098,1.851-.098,2.728,.097,1.364,.292,2.728,.098,4.092,0,2.533-.195,4.969-.292,7.502,.098,.779,.097,1.461,.097,2.241,0,.585-.195,1.072-.195,1.656-.195,.487,0,1.072,0,1.559,.195,.39,.097,.877,.195,1.364,.097,2.826-.487,5.554,.487,8.379,.292,.779,0,1.656,.487,2.436,.584,3.41,.292,6.82,.975,10.035,1.851,1.461,0,7.989,4.189,9.256,5.261,1.071,.877,3.118,6.723,3.312,8.086,.487,2.436,.876,4.872,.195,7.404-.682,2.826-1.949,5.456-4.482,7.307-.682,.487-1.267,1.072-1.851,1.754-.974,1.072-2.144,1.753-3.605,1.948-.097,0-7.989,1.852-8.184,1.949-.39,.195-1.072,.195-.974,.877,.097,.682,.487,.974,1.071,1.072,.78,.195,1.461,.39,2.144,.682,2.825,.975,5.358,2.533,7.6,4.482,3.41,3.118,6.917,6.041,10.717,8.671,1.364,.877,2.338,2.338,3.702,3.118,3.8,2.144,7.112,5.066,11.106,6.917,5.651,2.533,12.276,4.384,18.512,4.969,1.461,.195,3.021-.098,4.481,0,2.144,.098,4.384,0,6.625,0,1.754,0,3.604,0,5.456-.292,1.461-.097,3.021-.195,4.189,.78,.877,.779,.877,2.143,.292,3.02Zm-75.311-42.381c2.533-2.338,3.41-5.553,3.702-8.866,.292-2.923-1.072-5.456-2.436-7.794-2.533-4.774-9.158-6.527-14.225-6.527-2.728,0-5.164,.779-7.697,1.656-2.046,.682-2.923,2.241-2.436,4.384,.39,1.851,.39,3.604,.097,5.358-.292,2.046-.097,3.995-.097,6.041,0,.682,.39,1.461,.195,2.143-.39,1.364-.195,2.728-.292,3.703v3.215c.098,.974,.78,1.559,1.754,1.267,.584-.195,1.267-.098,1.851-.195,.974-.195,1.949,0,2.825,0,.195,0,.487-.098,.682-.098,3.021-.39,5.943-.39,8.963-.779,2.825-.292,5.164-1.656,7.112-3.507Zm116.133,37.802c-.292,.974-1.364,1.559-2.631,1.267-.39,0-.779,0-1.169-.097-1.656,0-3.41,.195-5.066-.292h-.487c-2.728,.487-5.553,.195-8.281,.097-1.753-.097-3.507,.195-5.261,.195-.779,0-1.656,0-2.436-.195-1.072-.292-2.144,.098-3.118,.39-.974,.292-1.753-.098-2.436-.78-.682-.682-.487-1.559-.292-2.338,.098-.682,.682-1.169,1.461-1.169,.585,0,1.17-.097,1.656,0,1.072,.098,1.949-.195,2.923-.682,1.656-.877,2.144-2.144,1.364-4.092-.779-1.851-1.754-3.507-2.728-5.261-.975-1.753-1.56-3.604-2.533-5.358-.877-1.753-1.267-2.241-3.215-1.851-.585,.098-1.17,.195-1.754,.195s-1.169-.097-1.754-.195c-.682-.292-1.461,.292-2.144,.195-1.461,0-2.923-.195-4.287-.097-2.046,.097-3.896-.487-5.748-.39-3.702,.292-7.404,.097-11.106,.195-1.461,.097-2.241,.876-2.144,2.143,0,1.851,2.631,2.436,4.092,2.436,1.267,0,2.339,.487,3.508,.682,.779,.195,1.364,1.267,1.267,2.046-.098,1.072-.683,1.754-1.852,1.754h-4.773c-1.754-.195-3.8,.195-5.748-.292-.877-.195-1.754,.292-2.729,.292-2.046-.097-4.092,0-6.138,0-.39,0-.877,0-1.364,.098-1.948,.39-2.825-.585-2.24-2.533,.292-1.072,1.169-1.656,2.436-1.754,5.163,0,7.112-.974,9.061-6.138,.585-1.851,1.364-3.605,2.436-5.164,.682-.975,.779-2.241,1.462-3.215,1.753-2.63,2.923-5.553,4.092-8.476,.974-2.436,2.046-4.774,3.215-7.112,1.656-3.312,2.825-6.82,4.481-10.23,1.656-3.118,3.8-7.209,4.969-10.522,.195-.39,.293-.682,.39-1.072,.779-1.754,1.56-2.533,2.923-2.533,1.072,0,2.533,.292,3.021,1.364,1.559,3.799,3.994,7.307,5.554,11.204,.487,1.072,1.363,2.046,1.948,3.118,.975,1.656,1.364,3.604,2.338,5.261,1.56,2.826,2.533,5.846,3.897,8.769,1.461,3.021,2.533,6.333,4.481,9.158,.098,.098,.195,.195,.195,.39,.877,2.631,2.436,4.969,3.312,7.697,.292,.682,.682,1.364,1.071,1.949,1.364,2.144,2.339,4.384,3.215,6.625,.293,.584,.683,1.267,1.072,1.851,.682,1.267,1.364,2.533,2.046,3.897,1.169,2.144,2.631,3.995,5.164,4.482,.974,.195,1.851,.682,2.825,.877,1.363,.292,1.948,1.656,1.559,3.215Zm-33.32-27.377c-.292-.584-.682-1.169-1.071-1.656-.779-1.072-1.364-2.144-1.852-3.312-1.071-2.923-2.923-5.456-3.994-8.379-.779-2.338-2.241-4.287-3.021-6.625-.292-1.072-.682-2.046-.975-3.021-.292-.682-.584-1.266-1.461-1.266-.779,0-1.169,.584-1.364,1.169-1.267,4.092-3.312,7.697-4.969,11.594-.877,2.046-1.851,4.189-2.923,6.138-.877,1.753-1.559,3.507-2.533,5.164-.292,.584-.682,1.267-.194,1.948,.487,.78,1.267,.682,2.046,.487,.682-.195,1.461-.39,2.144-.39,3.409,.292,6.722,.487,10.132,.487,1.072,0,2.144,0,3.216-.195,1.559-.292,3.215-.098,4.773,.195,.195,0,.39,.097,.585,0,1.461,0,2.046-.975,1.461-2.338Z" style="fill:url(#c);"/><path d="M396.997,290.527c.975,.098,2.339-.097,3.605,.292,.097,.097,.39,.097,.584,0,1.754-.292,3.508,0,5.261,0,1.754-.098,3.605,0,5.359-.487,.194-.097,.39-.097,.584,0,2.923,.877,5.943-.097,8.866,.195,.39,.098,.779,0,1.169,.098,.877,0,1.267,.487,1.267,1.267,.098,2.241-1.071,3.507-3.215,3.604-.877,0-1.754-.097-2.631,.292-1.461,.584-2.436,1.559-1.656,3.312,.098,.487,.195,.877,.487,1.267,.975,1.559,1.461,3.215,2.24,4.871,1.267,2.631,2.729,5.261,4.189,7.892,.779,1.364,1.072,2.923,1.852,4.287,1.461,2.338,2.338,4.969,3.312,7.502,.585,1.267,1.461,2.338,1.948,3.604,.779,1.656,1.56,3.215,2.631,4.677,.292,.487,.487,.974,.682,1.559,.293,.877,.683,1.754,1.364,2.533,1.071,1.267,1.267,2.923,1.948,4.287,.39,.682,.585,1.461,1.364,1.461,.682,0,1.071-.682,1.364-1.267l2.046-4.969c.39-1.169,.779-2.241,1.364-3.41,1.753-3.215,3.312-6.528,4.676-9.938,1.267-3.215,3.021-6.333,3.995-9.646,.097-.39,.292-.877,.487-1.072,2.143-1.851,4.481-8.086,5.358-10.912,.292-.974,.584-2.046,.974-3.118,.683-1.656-.194-3.118-2.046-3.215-1.071,0-2.144-.195-3.215-.39-1.071-.097-1.559-.682-1.656-1.753-.292-2.631,.487-3.507,2.923-3.021,.975,.195,1.851,.292,2.728,.292,.487,0,1.072-.098,1.56-.098,1.559-.097,3.02,.195,4.579,.292,2.338,.097,4.773,.292,7.111-.195,.391-.098,.78-.098,1.17-.098,1.461,0,1.948,.292,2.24,1.169,.293,1.364-.098,2.533-1.267,3.118-1.071,.487-2.338,.682-3.507,.974-2.144,.39-3.508,1.267-4.385,3.41-.877,2.046-2.046,4.092-2.728,6.138-1.072,3.118-2.923,5.943-3.995,9.061,0,.098,0,.195-.097,.292-1.852,2.728-2.631,5.943-4.092,8.866-1.656,3.215-3.118,6.528-4.872,9.646-1.948,3.507-3.215,7.307-5.066,10.717-.974,1.851-1.948,3.703-3.215,5.359-1.071,1.364-1.559,2.825-2.24,4.384-.585,1.364-1.072,2.825-1.656,4.287-.683,1.656-1.754,2.533-3.312,2.533-1.462,0-2.241-.39-2.826-1.754-.974-2.923-2.728-5.553-3.896-8.281-1.169-2.533-2.729-4.872-3.702-7.502-.78-2.144-1.656-4.481-3.312-6.235-.293-.292-.487-.779-.585-1.267-.487-2.63-1.461-5.066-3.118-7.209-.194-.195-.194-.39-.292-.584-1.754-3.897-4.189-7.502-6.04-11.399l-6.431-13.153c-.487-.975-.877-2.046-1.267-3.118-.877-2.826-3.117-3.995-5.748-4.482-.682-.097-1.364-.39-2.046-.39-.682,.098-1.169-.487-1.364-.974-.292-.877-.292-1.949,0-2.825,.098-.487,.585-.78,1.169-.78,.877,.098,1.852,.098,3.021,.098v-.098Z" style="fill:url(#c);"/><path d="M522.97,358.336c-2.923,0-5.846,.098-8.671,.195-2.533,.098-4.969,0-7.502,0-.585,0-1.364-.292-1.852-.195-2.338,.39-4.676-.292-6.917,0-.584,.098-.975,.098-1.461,0-2.436-.195-4.774-.195-7.21,0-.682,.098-1.461,.195-2.241,.195-1.169,.098-2.436-.195-3.702,.195-.682,.292-1.559-.487-1.656-1.267-.097-1.851,.293-3.702,3.118-3.799,3.896-.292,7.404-1.657,7.404-6.138,0-1.364,.194-2.728,.194-3.995-.097-2.046,0-4.092-.292-6.138-.292-1.754-.292-3.41-.098-5.164,0-.877-.097-1.754-.097-2.631,.097-3.702-.39-7.502,.292-11.204,0-.39-.098-.682-.195-1.072-.194-.682-.292-1.461-.097-2.143,.39-1.267,.292-2.631,.292-3.897-.195-2.63,.487-5.261,.292-7.892-.292-3.994-2.436-8.184-7.015-8.184-.584,0-1.071-.098-1.559-.292-1.169-.487-1.656-1.559-1.364-3.02,.195-.877,.975-1.364,2.144-1.364,.39,0,.877,0,1.267,.195,.487,.195,.877,.195,1.364,.098,2.046-.487,4.092,.195,6.235,.097,.682-.097,1.461,0,2.144-.292,.292-.098,.682-.098,.876,0,.683,.195,1.364,.292,2.047,.292,1.559,0,3.215-.39,4.871-.39,1.169,0,2.533,0,3.702,.292,.877,.292,1.851-.195,2.728-.195,1.949,0,3.897,.097,5.748,.195,2.826,.097,5.651,.292,8.379,0,2.339-.292,4.677-.195,7.015-.292,1.267,0,2.533,.39,3.8,.39,1.17-.097,2.339-.097,3.41-.487,.292,0,.487-.098,.779-.098,1.949-.292,2.339,.098,2.533,2.241,.195,3.508,.487,7.015,.585,10.522,.097,.974,.194,1.948,.39,2.923,.098,1.267-.293,1.753-1.364,2.143-.975,.292-1.948,0-2.436-.876-.292-.585-.585-1.267-.682-1.949-.195-1.851-.877-3.605-1.754-5.164-1.852-3.507-5.943-3.605-9.45-3.605-1.17,0-2.437,.098-3.703,.39-.876,.195-1.948,.098-2.923-.195-.876-.292-1.851,0-2.825-.097-2.923-.195-5.748,.195-8.671,.292-2.046,.098-3.215,1.559-2.923,3.507,.39,2.338,.292,4.579,.098,6.82-.195,1.071,.098,2.241,.098,3.41,0,2.728,.292,5.554-.487,8.281-.487,1.754,.487,2.826,2.338,2.826,1.462,0,2.923,0,4.385,.487,.779,.292,1.559-.195,2.338-.195,4.189,.098,8.184-.584,12.276-1.559,2.436-.487,3.409-1.851,3.409-4.482,0-.876,0-1.753,.585-2.533,.487-.585,1.071-.877,1.851-.682,.78,.097,1.072,.779,1.267,1.364,.098,.585,.195,1.267-.097,1.949-.195,.487-.195,1.072-.098,1.559,.39,2.436,.194,4.774,0,7.21-.195,1.169,.098,2.533,.292,3.8,.195,1.071,.487,2.143,.292,3.312-.097,.584,0,1.169,.098,1.753,.293,1.072-.39,2.046-1.267,2.241-1.169,.195-2.046-.39-2.24-1.559-.098-.292,0-.682,0-.974-.195-5.943-7.6-5.943-11.887-5.943-3.8,.098-7.599,.098-11.398,.098-1.364,0-1.949,.39-1.852,1.851,.098,3.118-.292,6.138-.39,9.255-.098,1.851-.194,3.8-.292,5.651,0,1.072,.194,2.046,.098,3.118-.293,3.02,1.169,3.702,3.604,4.287,1.559,.39,3.117,.292,4.773,.292,1.56,.098,3.216,0,4.872,.292,.974,.195,1.948,.195,3.02-.195,.293-.098,.78-.098,1.17-.098h5.358c5.846,.098,9.938-2.533,12.567-7.697,.585-1.169,1.364-2.338,2.047-3.41,.486-.779,1.461-1.266,2.338-1.266,1.071,0,1.461,.292,1.656,1.364,.098,1.267-.098,2.63-.585,3.8-.974,3.02-1.851,6.041-3.312,8.866-.292,.682-.584,1.364-.779,2.144-.487,1.461-1.559,2.046-3.021,2.046h-5.748c-3.02-.292-6.625,.292-10.327,.39Z" style="fill:url(#c);"/><path d="M573.923,290.819c3.216-.195,6.528,.097,9.743,.097,1.851,.098,3.604,.098,5.358,0,.487-.097,1.071-.097,1.267,.487,.585,1.169,.487,2.533,.195,3.8-.195,.584-.975,.584-1.56,.584-1.559-.098-3.117,0-4.579,.584-3.117,1.267-4.189,4.092-4.189,7.209,.098,2.436-.292,4.872,.585,7.21,.194,.682,.098,1.461,0,2.143-.39,1.461-.098,3.021-.292,4.579-.39,3.41,.194,6.82,0,10.23,0,.584,0,1.072,.194,1.656,.292,.779,.292,1.754,.098,2.533-.487,1.461-.195,2.825,.098,4.287,.097,.682,.194,1.364,.194,2.046,0,3.702,.098,7.404,0,11.106,0,2.144,.487,2.728,2.631,3.021,3.702,.487,7.404,.779,11.106,.779,1.267,0,2.533,0,3.702-.195,3.021-.39,6.139-.584,9.158-.877,.975-.098,1.852-.682,2.631-1.267,2.728-2.046,5.164-4.384,6.43-7.697,.391-1.169,1.754-1.753,3.021-1.753,1.364,0,2.241,1.169,1.754,2.63-.098,.292-.292,.682-.39,.974-.39,.584-.877,1.169-.877,1.851-.292,2.436-1.754,4.384-2.436,6.625-.292,.975-.487,1.949-.682,2.923-.391,2.144-1.17,2.631-3.312,2.533-2.047-.195-4.093-.097-6.139-.097h-10.425c-2.143,.097-4.189-.292-6.235-.292-4.286,.098-8.573,0-12.86,0-1.071,0-2.144-.097-3.117,.292-.195,.097-.39,0-.585,0-3.021-.487-5.943,.195-8.963,0-1.852-.098-3.702,0-5.456,0-1.364,0-1.852-.39-2.046-1.656-.292-1.267,.487-2.631,1.754-2.923,1.559-.487,3.117-.78,4.579-1.169,2.24-.584,3.02-1.656,3.507-3.897,.39-1.851,0-3.605,.585-5.358v-.292c-.683-2.241-.293-4.481,0-6.722,.194-1.754-.195-3.41-.39-5.066-.195-.974,.194-1.949,.097-2.923-.39-4.092-.486-8.281-.292-12.373,.098-2.826,0-5.651,.487-8.379s0-5.553-.682-8.184c-.195-1.267-1.17-2.241-2.241-2.825-1.267-.779-2.728-1.364-4.189-1.267-1.169,0-2.046-.292-2.533-1.364-.487-1.071-.194-2.143,.292-3.117,.195-.487,.683-.39,1.17-.39,2.338-.097,4.773,0,7.209,0,2.144,0,4.385,.098,6.625-.097Z" style="fill:url(#c);"/></g><rect x="379.06" y="1006.771" width="14.628" height="14.628" rx="7.314" ry="7.314" transform="translate(-627.711 1400.458) rotate(-90)" style="fill:url(#d);"/><path d="M386.373,992.996h0c11.599,0,21.089,9.49,21.089,21.089h0c0,11.599-9.49,21.089-21.089,21.089h0c-11.599,0-21.089-9.49-21.089-21.089h0c0-11.599,9.49-21.089,21.089-21.089Zm21.459,.829c6.708,8.515,13.142,14.692,17.912,18.837,7.172,6.232,11.535,9.949,18.673,12.501,4.677,1.672,14.657,5.24,23.119,.259,1.342-.79,6.092-3.684,7.793-9.474,1.888-6.427-.72-13.907-6.283-17.848-4.613-3.268-12.216-4.782-16.714-.947-.319,.272-3.515,3.088-3.285,7.411,.2,3.763,2.918,7.195,6.953,8.71m-201.097-18.163c.252,2.475,1.188,8.071,5.58,12.34,7.178,6.977,18.697,5.981,26.075,2.253,9.487-4.794,12.515-14.277,13.115-16.317m18.976,18.601c4.035-1.515,6.752-4.947,6.953-8.71,.23-4.322-2.966-7.139-3.285-7.411-4.499-3.835-12.101-2.321-16.714,.947-5.563,3.941-8.171,11.421-6.283,17.848,1.701,5.79,6.451,8.684,7.793,9.474,8.462,4.981,18.442,1.413,23.119-.259,7.138-2.552,11.501-6.269,18.673-12.501,4.77-4.145,11.204-10.322,17.912-18.837m109.176,.725c1.66,3.534,6.581,12.706,17.199,17.609,8.619,3.981,23.221,6.025,32.816-2.632,5.527-4.987,6.705-11.525,7.022-14.415m-415.02-43.47c1.312,.062,8.142,.258,12.916-4.716,5.677-5.914,4.921-15.469,.92-21.5-5.403-8.144-15.6-8.161-17.131-8.163-12.083-.02-19.697,10.076-21.27,12.302-8.853,12.526-5.562,30.999,2.414,41.965,11.953,16.432,35.836,17.701,45.874,18.098,82.247,3.251,228.58,2.902,238.324,2.891,17.435-.02,135.304,.425,234.194,0,14.007-.06,45.851-.612,59.732-20.99,7.374-10.825,11.282-29.416,2.414-41.965-1.568-2.22-9.183-12.322-21.27-12.302-1.531,.002-11.728,.019-17.131,8.163-4.15,6.255-4.367,15.737,.92,21.5,2.924,3.187,6.632,4.265,8.553,4.666" style="fill:none; stroke:url(#e); stroke-linecap:round; stroke-miterlimit:10; stroke-width:5px;"/><polyline points="35.155 961.452 35.155 1052.09 131.05 1052.09" style="fill:none; stroke:url(#f); stroke-linecap:round; stroke-miterlimit:10; stroke-width:3px;"/><polyline points="21.872 963.405 21.872 1064.538 131.05 1064.538" style="fill:none; stroke:url(#g); stroke-linecap:round; stroke-miterlimit:10; stroke-width:3px;"/><polyline points="35.155 117.404 35.155 26.766 131.05 26.766" style="fill:none; stroke:url(#h); stroke-linecap:round; stroke-miterlimit:10; stroke-width:3px;"/><polyline points="21.872 114.771 21.872 13.637 131.05 13.637" style="fill:none; stroke:url(#i); stroke-linecap:round; stroke-miterlimit:10; stroke-width:3px;"/><polyline points="745.32 117.404 745.32 26.766 649.425 26.766" style="fill:none; stroke:url(#j); stroke-linecap:round; stroke-miterlimit:10; stroke-width:3px;"/><polyline points="758.603 114.771 758.603 13.637 649.425 13.637" style="fill:none; stroke:url(#k); stroke-linecap:round; stroke-miterlimit:10; stroke-width:3px;"/><rect x="377.709" y="47.378" width="14.628" height="14.628" rx="7.314" ry="7.314" transform="translate(439.715 -330.33) rotate(90)" style="fill:url(#l);"/><path d="M363.934,54.692h0c0-11.599,9.49-21.089,21.089-21.089h0c11.599,0,21.089,9.49,21.089,21.089h0c0,11.599-9.49,21.089-21.089,21.089h0c-11.599,0-21.089-9.49-21.089-21.089Zm90.716,.811c-4.035,1.515-6.752,4.947-6.953,8.71-.23,4.322,2.966,7.139,3.285,7.411,4.499,3.835,12.101,2.321,16.714-.947,5.563-3.941,8.171-11.421,6.283-17.848-1.701-5.79-6.451-8.684-7.793-9.474-8.462-4.981-18.442-1.413-23.119,.259-7.138,2.552-11.501,6.269-18.673,12.501-4.77,4.145-11.204,10.322-17.912,18.837m-106.014,.81c-.906-2.395-4.891-12.095-15.261-16.688-6.546-2.899-18.547-5.052-26.075,2.253-4.351,4.223-5.314,9.768-5.58,12.34m111.914,2.571c-6.708-8.515-13.142-14.692-17.912-18.837-7.172-6.232-11.535-9.949-18.673-12.501-4.677-1.672-14.657-5.24-23.119-.259-1.342,.79-6.092,3.684-7.793,9.474-1.888,6.427,.72,13.907,6.283,17.848,4.613,3.268,12.216,4.782,16.714,.947,.319-.272,3.515-3.088,3.285-7.411-.2-3.763-2.918-7.195-6.953-8.71m214.38,18.162c-.317-2.891-1.495-9.429-7.022-14.415-9.596-8.657-24.197-6.613-32.816-2.632-10.617,4.903-15.539,14.075-17.199,17.609m171.478,42.958c-1.921,.401-5.629,1.479-8.553,4.666-5.287,5.763-5.069,15.245-.92,21.5,5.403,8.144,15.6,8.161,17.131,8.163,12.087,.02,19.701-10.082,21.27-12.302,8.868-12.549,4.959-31.14-2.414-41.965-13.882-20.378-45.725-20.929-59.732-20.99-98.89-.425-216.758,.02-234.194,0-9.744-.011-156.077-.36-238.324,2.891-10.039,.397-33.922,1.667-45.874,18.098-7.976,10.966-11.267,29.439-2.414,41.965,1.573,2.226,9.187,12.322,21.27,12.302,1.531-.002,11.728-.019,17.131-8.163,4.001-6.031,4.757-15.586-.92-21.5-4.774-4.974-11.605-4.778-12.916-4.716" style="fill:none; stroke:url(#m); stroke-linecap:round; stroke-miterlimit:10; stroke-width:5px;"/><rect x="719.786" y="560.487" width="14.628" height="14.628" rx="7.314" ry="7.314" style="fill:url(#n);"/><path d="M727.1,588.89h0c-11.599,0-21.089-9.49-21.089-21.089h0c0-11.599,9.49-21.089,21.089-21.089h0c11.599,0,21.089,9.49,21.089,21.089h0c0,11.599-9.49,21.089-21.089,21.089Zm.811-90.716c1.515,4.035,4.947,6.752,8.71,6.953,4.322,.23,7.139-2.966,7.411-3.285,3.835-4.499,2.321-12.101-.947-16.714-3.941-5.563-11.421-8.171-17.848-6.283-5.79,1.701-8.684,6.451-9.474,7.793-4.981,8.462-1.413,18.442,.259,23.119,2.552,7.138,6.269,11.501,12.501,18.673,4.145,4.77,10.322,11.204,18.837,17.912m-.221,113.655c-2.139,.643-11.012,3.574-15.657,12.491-3.905,7.496-4.666,18.956,2.253,26.075,4.269,4.392,9.865,5.328,12.34,5.58m2.571-115.161c-8.515,6.708-14.692,13.142-18.837,17.912-6.232,7.172-9.949,11.535-12.501,18.673-1.672,4.677-5.24,14.657-.259,23.119,.79,1.342,3.684,6.092,9.474,7.793,6.427,1.888,13.907-.72,17.848-6.283,3.268-4.613,4.782-12.216,.947-16.714-.272-.319-3.088-3.515-7.411-3.285-3.763,.2-7.195,2.918-8.71,6.953m16.539-216.004c-2.891,.317-9.429,1.495-14.415,7.022-8.657,9.596-6.613,24.197-2.632,32.816,4.903,10.617,14.075,15.539,17.609,17.199m-36.436,341.743c.062-1.403,.258-8.713-4.716-13.822-5.914-6.075-15.469-5.266-21.5-.984-8.144,5.782-8.161,16.694-8.163,18.332-.02,12.93,10.076,21.078,12.302,22.761,12.526,9.474,30.999,5.952,41.965-2.584,16.432-12.791,17.701-38.349,18.098-49.091,3.251-88.014,2.902-244.609,2.891-255.036-.02-18.658,.425-144.792,0-250.616-.06-14.99-.612-49.066-20.99-63.921-10.825-7.891-29.416-12.074-41.965-2.584-2.22,1.678-12.322,9.827-12.302,22.761,.002,1.638,.019,12.55,8.163,18.332,6.255,4.441,15.737,4.673,21.5-.984,3.187-3.129,4.265-7.097,4.666-9.153" style="fill:none; stroke:url(#o); stroke-linecap:round; stroke-miterlimit:10; stroke-width:5px;"/><rect x="57.155" y="560.487" width="14.628" height="14.628" rx="7.314" ry="7.314" transform="translate(128.938 1135.602) rotate(180)" style="fill:url(#p);"/><path d="M43.38,567.801h0c0-11.599,9.49-21.089,21.089-21.089h0c11.599,0,21.089,9.49,21.089,21.089h0c0,11.599-9.49,21.089-21.089,21.089h0c-11.599,0-21.089-9.49-21.089-21.089Zm.829-21.459c8.515-6.708,14.692-13.142,18.837-17.912,6.232-7.172,9.949-11.535,12.501-18.673,1.672-4.677,5.24-14.657,.259-23.119-.79-1.342-3.684-6.092-9.474-7.793-6.427-1.888-13.907,.72-17.848,6.283-3.268,4.613-4.782,12.216-.947,16.714,.272,.319,3.088,3.515,7.411,3.285,3.763-.2,7.195-2.918,8.71-6.953m-18.163,205.968c2.475-.252,8.071-1.188,12.34-5.58,6.919-7.118,6.158-18.579,2.253-26.075-4.645-8.917-13.518-11.849-15.657-12.491m17.941-22.848c-1.515-4.035-4.947-6.752-8.71-6.953-4.322-.23-7.139,2.966-7.411,3.285-3.835,4.499-2.321,12.101,.947,16.714,3.941,5.563,11.421,8.171,17.848,6.283,5.79-1.701,8.684-6.451,9.474-7.793,4.981-8.462,1.413-18.442-.259-23.119-2.552-7.138-6.269-11.501-12.501-18.673-4.145-4.77-10.322-11.204-18.837-17.912m2.349-110.799c3.534-1.66,12.706-6.581,17.609-17.199,3.981-8.619,6.025-23.221-2.632-32.816-4.987-5.527-11.525-6.705-14.415-7.022m35.924-167.809c.401,2.056,1.479,6.024,4.666,9.153,5.763,5.657,15.245,5.425,21.5,.984,8.144-5.782,8.161-16.694,8.163-18.332,.02-12.934-10.082-21.083-12.302-22.761-12.549-9.49-31.14-5.307-41.965,2.584-20.378,14.855-20.929,48.931-20.99,63.921-.425,105.825,.02,231.958,0,250.616-.011,10.428-.36,167.022,2.891,255.036,.397,10.743,1.667,36.3,18.098,49.091,10.966,8.536,29.439,12.057,41.965,2.584,2.226-1.683,12.322-9.831,12.302-22.761-.002-1.638-.019-12.55-8.163-18.332-6.031-4.282-15.586-5.09-21.5,.984-4.974,5.109-4.778,12.419-4.716,13.822" style="fill:none; stroke:url(#q); stroke-linecap:round; stroke-miterlimit:10; stroke-width:5px;"/><path d="M421.412,635.613v.071l.043-.028v-.014c-.014,0-.029-.014-.043-.029Zm-31.819,45.051c-.755,.897,0,1.966,.142,3.034,.128,.997-.142,1.866-1.182,1.994-1.239,.157-.456-1.04-.783-1.538-.954-1.481,.755-2.663,.584-4.102,0-.1,.584-.399,.883-.399,.442,.014,.427,.442,.356,1.011Zm233.444-46.475c-.413,.029-.584-.142-.855-.37-5.327-4.33-11.452-6.395-18.288-6.495-1.025-.014-1.852-.014-1.31,1.353,.199,.484,.641,.94-.014,1.325-.556,.328-1.011-.313-1.424-.299-1.253,.043-1.154-1.909-2.436-1.553-2.678,.741-5.398-.513-8.09,.242-.442,.114-1.709,.271-1.709-.94-.029-2.051-1.595-2.236-3.02-2.521-1.837-.356-3.689-.114-5.455,.342-.954,.256-1.453-.185-2.236-.442-1.894-.627-2.763-2.735-4.686-3.005-3.077-.456-6.182-.826-9.272-.997-1.068-.057-3.162,.669-2.891,1.325,.726,1.723-.556,1.026-1.054,1.467-1.04,.94-1.709,.698-2.777,.043-1.182-.741-2.592,1.054-3.76,.199-1.154-.84-1.681-.769-2.279,.484-.328,.726-.94,1.552-1.809,.769-.741-.669-2.208-.826-1.738-2.578,.612-2.25-.769-3.774-3.105-3.789-.855,0-1.795,.242-2.507-.442-.755-.698-1.695-.029-1.795,.285-.883,2.55-2.72,1.538-4.287,1.196-2.863-.627-5.569-2.279-8.688-1.154-.442,.157-1.211-.513-.926-.94,1.296-1.937-1.04-1.211-1.581-2.051,1.652-.37,2.706-1.31,2.265-2.82-.385-1.296-1.609-2.136-2.948-2.507-.655-.171-1.396-.1-2.08,0-1.923,.256-3.76-.071-5.27-1.168-2.649-1.909-4.572-2.151-6.039,.029-1.467,2.179-4.045,3.376-5.783,3.034-2.891-.556-5.27,.484-7.834,.883-2.222,.342-4.7,.869-5.626,3.233-.584,1.481-1.239,1.966-2.735,1.909-1.211-.043-2.436,.242-3.646,.342-.726,.057-1.837-.456-1.951,.641-.1,.954,.1,2.065,1.04,2.777,.399,.285,1.239,.1,1.125,1.054-1.78,.342-2.891-1.481-4.629-1.467-.755,0-1.609-1.054-2.179,.142-.399,.84-2.136,1.51-.114,2.877-3.376-.256-.427-3.304-2.649-4.088,.669,2.478-2.578,2.037-2.663,4.002,.798,.769,2.293,1.268,.926,2.806-.57,.627-.142,1.667,.228,1.923,1.652,1.225,1.097,2.735,.47,3.96-.883,1.723-2.25,3.091-4.558,2.493-.413-.114-.869-.071-2.022-.157,2.065-.527,3.518-.627,4.529-1.994,.883-1.196,1.609-1.894,.442-3.504-1.068-1.439,.313-3.504-.385-5.227-.684-.356-.826-.84-.356-1.496,1.553-2.193,.142-2.735-1.709-2.963-1.638-.185-3.176-.171-3.433,2.065-.1,.869-.912,1.239-1.595,1.624-.556,.313-1.353,.84-.997,1.339,.954,1.325-.043,3.561,2.108,4.316,.442,.157,1.054,.783,.242,1.624-1.14-.855-2.578-1.353-3.789-2.065-2.364-1.396-5.256-.698-7.449-2.322-.556-.399-1.196-.741-1.595-.1-.442,.698,.328,1.04,.826,1.367,.37,.242,.812,.427,1.054,.769,.313,.413,1.011,.883,.114,1.496-.541,.37-.926,1.111-1.31-.171-.157-.556-.94-.584-1.339-.214-1.325,1.182-3.119,.342-4.515,1.168-.299,.185-1.082,.37-1.011-.228,.242-1.951-.712-.897-1.424-.669-2.663,.897-5.37,1.681-7.449,3.803-.612,.627-1.581,.712-2.25-.299-.912-1.339,.541-.883,.912-1.196,.413-.328,.612-.57,.242-1.025-.783-.94-1.88-.855-2.92-.798-.313,.014-1.154,.014-.57,.655,.897,.969-.47,1.923,.228,2.977,.655,.983,.214,1.553-1.139,1.225-1.88-.456-3.333,.855-4.23,2.037-1.282,1.681-1.011,1.894-2.906,.997-1.923-.912-1.752,.085-1.253,1.367,.214,.356,1.154,.114,.826,.741-.171,.356-.897,.228-1.211-.313-2.678-.214-2.022-2.407-2.35-4.002-.427-.285-1.14-.142-1.239-.869h-.014l-.043,.028v-.071c-.114-.071-.199-.142-.299-.199,.1-.028,.214-.057,.313-.085,0,.085-.014,.185-.014,.285,.014,.014,.029,.029,.043,.029,.726-.57,1.211,0,1.723,.399,2.236-.028,4.458,1.196,6.737,.071,1.894-.926,2.193-2.464,.413-3.604-1.966-1.253-4.074-2.464-6.295-3.134-3.547-1.082-4.415-1.31-6.538-3.475-.114-.114-.299-.157-.456-.242-2.265-1.225-5.27-.883-6.851-.1-2.72,1.325-5.598,2.478-8.346,2.82-1.609,.185-1.795,2.307-3.076,1.524-1.41-.855-1.609,.37-1.795,.926-1.282,3.874-3.789,6.837-6.652,9.586-1.467,1.396-3.247,2.35-5.028,3.29-1.595,.869-2.051,2.151-1.937,3.903,.328,5.498,1.723,6.381,6.381,3.86,.983-.541,1.595-.883,1.937,.641,.128,.584,.47,1.41,.826,1.795,1.154,1.211,.342,3.219,1.752,4.145,.969,.627,4.942-2.108,4.885-3.347-.057-1.453-.057-2.55,1.667-3.333,1.439-.655,1.909-2.236,.043-3.219-1.296-.669-1.097-1.467-.826-2.578,.413-1.709,1.524-2.663,3.005-3.404,1.196-.598,2.521-1.026,2.336-2.991-.086-.855,1.082-1.852,2.208-1.852,.812,0,2.008-.057,2.379,.755,.484,1.082-.869,1.453-1.382,2.151-.356,.484-.897,.84-1.382,1.196-1.624,1.182-3.091,1.98-1.966,4.729,1.026,2.464,2.136,3.746,4.743,2.792,1.723-.627,3.433-1.097,5.142-.028-1.296,1.766-3.034,.655-4.501,.983-1.638,.385-4.131,.214-1.909,3.02,.385,.484,.185,1.025-.057,1.496-.228,.413-.584,.128-.897,.029-2.621-.826-3.105-.584-3.148,2.236-.014,1.795-1.552,3.247-2.279,2.877-2.45-1.253-4.159,.356-6.139,.869-1.253,.328-1.966-1.595-3.376-.641-1.097,.726-1.923,.085-2.649-.84-.812-1.04,.085-1.41,.598-2.108,.669-.897,.427-2.279,.028-3.062-.427-.826-.997,.541-1.624,.698-2.279,.584-2.25,1.823-1.367,3.746,.484,1.054,1.453,3.105-1.538,2.92-1.054-.071-2.464,.242-3.105,1.595-.712,1.496-2.094,2.307-3.475,3.105-.185,.157-.37,.313-.57,.47-.926,1.424-1.88,2.763-3.931,2.008-.299-.114-.926-.299-.869,.1,.285,2.165-1.182,.997-1.951,1.097-.698,.085-1.609-.028-1.795,.783-.214,.997,.684,1.253,1.467,1.481,.328,.1,.684,.185,.954,.385,1.795,1.339,2.464,3.148,1.937,5.27-.513,1.994-2.165,.912-3.319,.94-1.538,.057-3.105-.328-4.629-.185-1.154,.114-2.92-.014-2.179,2.307,.442,1.382,.285,2.877-.299,4.373-.698,1.738,.698,3.547,2.549,3.803,.242,.029,.627,.043,.698,.171,1.139,2.436,2.863,.413,4.301,.584,1.909,.242,3.005-1.154,4.187-2.307,.356-.342,.926-.627,.669-1.282-.755-1.909,.527-2.692,1.894-3.39,1.211-.612,2.607-.912,2.421-2.849-.071-.712,.926-1.097,1.652-.755,1.681,.798,2.963,.128,4.316-.826,1.082-.755,2.307-.969,3.105,.47,.969,1.752,2.578,2.692,4.159,3.803,1.396,.969,3.76,1.467,3.433,4.031-1.396,.94-3.062,.47-4.843,.726,.84,1.211,1.966,1.496,2.891,2.008,.413,.228,1.268,.385,1.111-.399-.328-1.496,1.211-1.41,1.595-2.25,1.41-.285-.271-3.689,2.849-2.293-.57-.669-.912-1.068-1.339-1.339-2.151-1.382-4.373-2.621-5.911-4.814-.541-.783-1.239-1.496-.712-2.279,.826-1.225,1.182,.499,1.752,.484,1.538-.029,1.453,1.795,2.393,2.065,4.871,1.41,5.071,6.324,7.421,9.628,.627,.883,1.994,2.023,2.208,1.439,.413-1.139,2.521-2.065,.712-3.988-1.609-1.709,1.125-1.111,1.581-1.923,.627-1.14,1.467-.328,2.165,.157-.969,1.196,.612,1.738,.712,2.735,.271,2.92,2.564,4.173,5.27,3.062,.47-.185,.826-.256,1.154,.128,1.04,1.253,2.108,.812,3.262,.142,.684-.399,1.695-.655,1.88,.385,.456,2.578-.969,4.743-2.08,6.879-.783,1.538-2.108,.427-3.219,.214-.498-.1-1.211-.142-1.538,.128-1.296,1.139-2.678,.57-3.96,.214-2.236-.612-4.515-1.068-6.652-2.08-1.553-.726-3.105-.057-3.304,1.695-.199,1.766-.712,1.78-2.122,1.196-3.589-1.453-6.879-3.618-11.038-4.615,2.193-1.282,1.41-3.105,.94-4.43-.456-1.296-1.909-.598-3.005-.199-.37,.128-.855-.114-1.282-.1-3.717,.185-7.592-.085-10.882,1.88-2.051,1.211-3.931,1.025-5.811,.328-1.025-.37-1.296-.37-1.638,.641-.385,1.097-1.097,1.88-2.279,2.364-1.481,.627-2.407,1.937-2.293,3.561,.142,1.795-.769,3.077-2.08,3.646-2.963,1.296-4.387,3.888-5.783,6.409-.783,1.424-2.649,3.005-1.766,4.6,1.439,2.607,1.139,4.9,.029,7.335-.256,.584-.228,1.011-.157,1.652,.228,1.852,1.125,3.091,2.407,4.358,2.507,2.478,4.102,5.797,7.25,7.705,1.538,.94,2.82,1.909,4.757,.741,.983-.612,2.478-1.026,3.561-.513,1.98,.897,3.532-.057,5.213-.612,1.082-.37,2.151-.812,3.262-1.054,1.054-.228,2.478-.128,2.806,.897,.612,1.866,1.852,1.695,3.29,1.738,1.937,.057,3.433,.612,2.635,3.148-.94,2.92-.712,5.612,1.809,7.791,1.054,.911,1.41,2.35,2.079,3.489,1.04,1.709,.356,3.604,1.296,5.213,.655,1.082,.385,1.994-.513,3.048-2.094,2.464-2.023,6.552-.627,9.457,.94,1.966,2.45,3.632,2.421,6.21-.014,2.621,1.182,5.113,2.763,7.463,.983,1.467,2.621,3.105,1.923,5.541-.442,1.552,1.481,2.934,3.319,2.635,1.196-.199,2.364-.741,3.561-.783,5.327-.214,11.622-4.729,12.833-9.742,.456-1.894,.47-3.49,2.834-4.159,1.054-.299,1.068-1.966,.897-3.276-.171-1.268-1.595-2.621-.256-3.803,1.026-.926,1.837-2.094,3.119-2.792,4.159-2.25,5.113-6.68,2.92-10.953-1.125-2.193-1.894-4.714-.299-7.207,1.937-3.048,4.273-5.669,7.236-7.777,4.088-2.906,6.324-7.193,8.019-11.736,.513-1.367,.071-2.08-1.752-1.424-2.022,.741-4.244,.983-6.395,1.296-1.168,.171-2.008-.37-2.208-1.681-.185-1.296,.812-.926,1.467-1.182,6.993-2.692,14.329-4.771,19.029-11.366,1.382-1.951,1.538-2.977-.584-3.789-1.766-.684-2.849-1.567-2.706-3.846,.783,.185,1.567,.47,2.379,.912,2.136,1.168,4.843,1.082,7.435,.798,3.447-.37,5.469,1.054,6.965,4.358,.912,2.022,2.635,2.265,4.914,.185-1.068,6.666,2.663,11.58,4.544,17.063,.698,2.051,1.552,2.122,3.148,.655,.498-.456,.684-.983,.969-1.524l.043-.043c.712-1.738,1.681-3.475,1.196-5.398-.328-1.296,.043-1.894,1.125-2.507,2.663-1.51,5.071-3.632,6.965-5.797,1.453-1.681,3.062-1.496,4.501-2.322,2.806-1.624,2.735,1.367,3.931,2.364,1.239,1.04,2.179,2.322,2.208,3.874,.029,2.436,.926,2.82,2.535,1.225,.897-.912,1.268-.442,1.453,.242,.627,2.236,1.852,4.657,1.453,6.751-.527,2.82,.57,4.686,1.837,6.723,.954,1.51,.527,3.718,2.421,4.743,.456,.399,.912,.783,1.367,1.182,1.951,.826,2.393,.669,1.994-.085-1.282-2.393-.84-5.555-4.116-7.164-1.496-.741-3.219-3.091-1.909-5.669,.413-.812,.584-1.738,.869-2.663,2.25,1.98,5.17,3.119,6.025,6.409,1.994-.84,3.29-2.82,5.313-3.774,.57-.271,.612-1.567,.627-2.564,.057-3.02-2.379-4.387-3.903-6.295-1.481-1.852-.285-3.048,.812-3.974,.969-.798,2.507-2.022,3.575,.214,.114,.228,.627,.983,.84,.114,.328-1.382,1.51-.912,2.293-1.268,2.35-1.054,4.942-1.41,7.15-2.977,2.678-1.894,4.244-4.643,5.484-7.335,1.025-2.236,.114-4.957-1.382-7.264-1.467-2.222-.954-3.347,1.538-4.415,.427-.185,1.125,.071,1.097-.769-1.809-1.367-4.9,.498-6.238-2.621,2.222-.043,3.02-2.663,5.213-2.792,.356,1.025-1.025,1.453-.427,2.336,.128,.128,.242,.256,.37,.399,.627-.313,1.225-.812,1.88-.883,1.139-.128,3.319-1.31,2.208,1.681-.285,.783,.271,1.225,.983,1.139,1.31-.157,.94,.513,1.04,1.367,.142,1.31,.057,2.493-1.011,4.059,2.336-.484,4.729-.385,5.412-1.866,.555-1.211-.185-3.39-1.567-4.7-.313-.299-.57-.655-.826-1.011-.399-.541-.028-1.325,.256-1.382,1.752-.342,1.951-2.023,2.891-3.048,.826-.897,1.795-2.393,3.518-1.253,.769,.498,1.424-.043,1.88-.47,1.837-1.766,3.96-3.333,5.242-5.541,1.139-1.98,3.504-3.376,3.148-6.125-.171-1.253,.242-2.293,1.068-3.489,1.424,2.606,.584,5.17,.427,7.592-.128,2.065,.185,2.863,2.436,2.008-.812-1.652-2.521-3.518,.641-4.586,.1-.028,.228-.299,.185-.385-1.239-2.806-.499-6.096-2.193-9.586-.356,2.92-1.438,2.777-2.849,1.638-.456-.37-.997-1.31-1.438-.912-2.25,1.98-3.29-.484-4.985-1.082,1.595-1.496,3.162-2.792,4.729-3.974,2.322-1.723,3.96-4.743,7.663-4.358,2.051,.199,4.245,.883,6.296-.484,.356-.228,1.752,.228,1.823,.556,.356,1.538,1.41,.897,2.151,.812,1.595-.185,1.88-.513,2.407-2.051,.342-1.054,4.358-3.703,5.498-3.646,.612,.029,1.41-.1,1.538,.669,.427,2.421,1.538,.926,2.564,.57,1.282-.456,1.624-1.78,2.549-2.535,.214-.071,.57-.228,.613-.171,.185,.299-.057,.413-.313,.484,.057,1.553-.684,2.393-1.994,3.333-2.592,1.866-5.185,3.86-7.392,6.11-3.589,3.703-.755,7.919-.285,12.221,1.196-1.097,2.151-1.695,2.72-2.948,1.111-2.478,4.43-3.404,4.885-6.481,0-.057,.142-.128,.228-.128,1.282-.043,.926-.598,.954-1.624,.029-1.396-1.51-1.937-1.196-3.02,.556-1.937,7.463-5.014,9.073-3.789,1.453,1.097,1.937,.214,2.849-.342,3.02-1.795,5.726-4.415,9.756-3.547,.855,.185,1.353-.983,.954-1.438-.755-.897-.598-2.336-1.88-2.92,.954-.285,1.78-.755,2.621-1.125,1.453-.627,.171-2.094,.954-2.578,1.524-.94,.37,2.279,2.151,1.496,1.211-.527,1.937,.513,2.891,1.168,1.082,.741,3.219,2.322,3.888,.926,.926-1.909,2.735-2.208,3.789-3.575-1.567-1.652-3.532-2.436-5.868-2.265Zm-204.104,47.529c-1.097,.812-2.407,.84-3.675,.142-1.367-.755-2.407-1.396-.812-3.077,1.097-1.154,1.795-2.663,2.635-4.031,.769-1.225,1.666-1.04,2.507-.171,2.293,2.35,2.279,2.364,5.569,1.253-.071-.627-.584-.427-.926-.498-.399-.071-.897,.1-1.225-.598,.798-1.225,2.222-1.367,3.504-1.738,.256-.285,.741-.342,.826-.114,.128,.37-.356,.256-.584,.328,.029,.085,.029,.199,.085,.256,1.31,1.225-2.977,2.108-.242,3.276,1.353,.584,2.193,1.723,3.39,2.421,.855,.498,1.909,.983,1.51,2.122-.37,1.054-1.538,.883-2.521,.954-1.595,.128-3.076,.014-4.572-.755-1.78-.897-3.646-1.111-5.469,.228Zm7.734,33.087c-1.225-3.945-3.518-7.236-4.928-11.01-.342-.926,.171-.954,.57-1.339,.584-.527,1.026-.228,1.253,.256,1.41,3.034,4.529,5.071,4.885,8.745,.157,1.567,1.951,2.08,2.763,3.361,1.695,2.664,2.094,5.64,2.877,8.475-3.532-1.909-6.367-5.056-7.421-8.489Zm13.631-39.596c1.809-.783,3.034-3.02,5.555-2.122,.712,.256,1.068,.47,1.04,1.196-.029,.698-.313,1.253-1.111,1.082-1.353-.299-1.695,.997-2.535,1.496,.541,.84,.912,2.008,1.681,2.421,1.097,.584,.883,1.225,1.068,2.165,.299,1.41,.556,2.906,1.567,4.23,1.253,1.638,.299,3.404-1.524,3.447-3.219,.057-4.629-1.709-3.646-4.8,.256-.798-.142-1.139-.385-1.638-.769-1.666-1.923-3.091-2.578-4.885-.57-1.538-.256-2.122,.869-2.592Zm9.842,30.324c-1.054,1.382-2.521,1.966-4.159,1.894-1.666-.071-.57-1.467-.869-2.208-.043-.128-.242-.328-.342-.313-2.265,.399-2.037-2.008-3.162-2.92-.627-.513-1.951-1.837-.356-2.763,1.225-.726,2.364,.228,2.692,1.339,.641,2.222,2.507,3.048,4.244,3.262,1.125,.142,2.179,.242,3.233,.513-.669,.612-1.025,.883-1.282,1.196Zm68.538-85.9c-.071-.199-.157-.413-.228-.612,1.168-.456,2.322-.926,3.874-1.538-.926,2.25-2.521,1.595-3.646,2.151Zm5.498-2.906q-.071,.94-1.766,.812c-.071-1.011,.897-.869,1.396-1.239,.285-.157,.57-.342,.826,.014,0,.043-.299,.271-.456,.413Zm-165.633-22.262c-3.86-1.154-7.122,1.951-10.939,1.154,1.253-3.347-1.98-1.097-3.19-1.894,1.04-.285,1.88-.456,2.678-.726,.385-.128,.969-.228,.84-.812-.057-.256-.484-.655-.712-.641-2.436,.313-4.002-1.894-6.125-2.193-4.031-.541-8.119-1.026-12.149-.456-1.082,.157-3.418-.883-3.532,1.752,0,.057-.499,.214-.627,.128-1.325-.855-2.877-.413-4.259-.584-2.136-.256-4.985-.484-6.196,1.78-.983,1.823-1.723,.954-2.806,.627-1.453-.456-2.92-.798-1.837,1.951-3.86-2.535-7.634-1.296-11.352-.541-1.211,.242-3.433-.271-2.977,2.436,.142,.869-.712,.214-1.125,.214-2.806-.014-4.985,1.325-7.022,2.991,.926,1.196,2.934-.028,3.005,1.538,.085,1.88-1.823,1.453-2.991,1.78-1.837,.527-3.703,.954-5.498,1.595-.541,.185-1.595,.256-1.51,1.168,.071,.798,.983,.883,1.624,1.154,.826,.342,1.923,0,2.535,1.011-.712,.37-1.367,.726-1.994,1.068,2.379,2.136,4.871,3.39,8.332,2.621,5.583-1.253,11.95,2.991,13.218,8.46,.071,.256,.171,.755-.456,.484-.342-.128-.997-.513-.655,.356,.342,.883-.214,2.436,.584,2.578,1.339,.228,2.236,1.31,3.575,1.339-1.752,.214-2.934,.911-3.148,1.994-.157,.769,.171,1.225,.869,1.652,1.168,.712,2.35,.627,3.105-.256,.541-.613,.783-1.396,1.695-.912,.726,.385,0,.897-.157,1.31-.299,.712,.114,1.994-1.538,1.681-1.353-.256-2.891,1.909-2.407,3.176,.812,2.122,1.609,4.244,2.421,6.381,.783-.199,1.139-1.538,2.179-.783,.228,1.182-1.966,1.125-1.253,2.279,1.225,1.951,2.649,3.817,4.13,5.598,.755,.912,1.766,.185,2.649-.057,.798-.214,.698,.627,1.025,.94,1.467,1.424,2.607,1.196,3.347-.655,.826-2.094,.94-4.501,2.906-6.053,.185-.142,.057-.669,.128-.997,.385-1.795,1.196-2.863,3.304-3.134,2.45-.313,4.857-1.068,6.21-3.675,.555-1.082,1.795-1.609,3.262-1.738,4.244-.356,8.047-1.937,11.366-4.686-.684-.527-1.666,.342-2.165-.655,.969-.114,1.909-.171,2.82-.385,.356-.1-.541-5.754-.926-6.068-.1-.085-.171-.228-.37-.498,2.777,.399,3.162-2.72,5.569-3.276-.94-.698-1.966-1.154-.897-2.407,1.111-1.31,.029-2.08-1.082-2.55-.612-.256-1.339-.256-2.136-.399,1.082-1.239,2.336-.969,3.547-.869,.969,.071,1.966-.57,1.082-1.168-.997-.684-1.168-2.364-2.891-2.208-1.367,.114-1.282-.869-.684-1.723,.769-1.097,2.678-1.396,2.35-3.29,3.076-.598,4.458-4.017,7.62-4.544,.627-.1,1.496-.641,1.467-1.325-.029-.997-1.111-.826-1.837-1.04Zm-52.642,.299c-.085-.157-.214-.299-.214-.456,.014-.128,.157-.271,.242-.413,.071,.157,.199,.299,.199,.442-.014,.142-.157,.285-.228,.427Zm253.579,192.67c-.988,.084-1.092,1.327-1.981,1.543-3.823-5.733-9.623-6.561-15.451-2.18-.605,.455-1.185,.746-1.915,.664-1.919-.215-3.578,.357-5.212,1.365-1.492,.92-3.004,.686-4.297-.618-.298-.301-.889-.504-.618-.983,2.025-3.588-.523-6.51-1.647-9.44-1.624-4.233,.151-8.335,4.707-9.391,1.358-.315,2.7-.731,4.012-1.203,.554-.199,1.384-.6,1.456-1.018,.469-2.721,3.244-3.395,4.6-5.343,.932-1.338,2.44-2.65,4.22-.587,.606,.702,1.321,.411,1.737-.481,.69-1.479,2.52-2.292,3.113-3.194,1.093-1.664,1.537-.697,2.478-.474,1.254,.297,2.652,.132,3.822,.589,1.057,.413,.334,1.244-.153,1.847-1.218,1.507-1.042,2.606,.903,3.275,.477,.164,.855,.596,1.303,.865,3.477,2.086,4.359,1.568,4.494-2.537,.059-1.802,.244-3.603,1.141-5.228,.79,.079,.783,.767,.93,1.186,1.156,3.296,3.543,5.921,4.777,9.264,.686,1.858,3.231,3.227,4.729,5.093,1.181,1.471,2.425,2.987,3.985,4.248,.951,.769,.318,3.03,.505,4.614,.256,2.161-.264,4.558-1.719,6.418-.72,.92-1.469,1.828-1.605,2.951-.408,3.372-2.797,4.878-5.49,6.159-.237,.113-.612,.369-.702,.294-1.937-1.616-4.313,.149-6.352-.868-1.2-.598-2.275-1.01-2.634-2.591-.291-1.282-.92-2.602-2.739-2.689-.728-.035-.267-.817-.143-1.281,.045-.206,.175-.564,.124-.592-.316-.173-.329,.115-.378,.323Zm-264.661-194.351c-1.752-.214-2.749-1.809-4.586-1.766-4.259,.085-8.475-.912-12.776-.47-3.732,.37-7.705-.527-10.924,2.293-.157,.142-.498,.313-.641,.242-2.877-1.481-5.227,1.011-7.891,1.068-1.282,.028-2.592,0-3.632,1.111,.783,.669,2.25,.527,2.079,2.008,.399,.1,.926,0,.997,.598,.014,.128-.085,.37-.185,.399-.541,.171-1.025,.114-1.253-.513-3.732-2.621-4.572-2.421-7.107,.698-1.424,1.766-.57,2.963,.726,3.618,1.139,.57,2.094,1.282,2.792,2.179,2.022,2.592,4.472,1.909,6.723,.826,1.382-.641,1.268,.655,1.239,.798-.328,1.923-2.008,3.005-3.076,4.458-.57,.783-1.282-.499-2.008-.584-.342-.028-.698-.071-1.011,0-1.823,.385-3.034-.911-4.757-1.296,1.068-1.054,2.336-.085,3.119-.983-.199-1.353-1.951-.328-2.151-1.439-.399-2.136-2.407-1.695-3.689-2.293-1.011-.456-1.211,.541-.883,1.225,.313,.669,.855,1.339,1.467,1.752,1.026,.698,2.806,.954,.641,2.507-.556,.385,.043,.926,.527,1.182,.712,.385,1.467,.712,2.25,1.082-1.453,1.51-3.632,1.695-3.789,.442-.413-3.49-3.29-2.421-4.743-2.094-1.325,.285-2.336,1.211-3.718,.142-.328-.256-.969-.199-1.139,.242-.128,.356-.029,1.011,.228,1.253,.641,.57,1.424,.983,2.136,1.481,.897,.627,2.407-.484,2.877,.641,.798,1.923,2.678,1.41,3.247,.912,1.581-1.382,2.208-.584,3.034,.612,.769,1.125,2.065,.741,2.863,.413,1.054-.442,.499-1.496-.028-2.222-.399-.541-1.125-1.011-.556-1.752,.214-.271,.969-.498,1.182-.342,.612,.47,1.595,.684,1.31,1.951-.385,1.681,.741,2.364,2.236,2.521,1.04,.1,2.08,.157,3.119,.157,3.134,.029,6.267,.043,9.415,.014,1.139-.014,2.08-.541,2.25-1.752,.171-1.182-.855-1.239-1.681-1.567-1.638-.627-3.304-.684-4.871-.128-1.723,.598-3.39,.399-5.099,.271-.741-.057-1.595-.256-1.524-1.025,.057-.627,.798-1.026,1.666-.84,2.45,.556,4.914-.171,7.449,.256,1.709,.285,3.874,.655,5.669-.541,.527-.342,1.382-.94,.598-1.225-2.393-.869,.228-1.424,.014-2.094,2.706-.584,4.472-2.037,4.643-4.985,0-.057,.313-.128,.484-.157,2.379-.256,4.145-1.709,6.11-2.891,3.176-1.923,6.409-3.76,9.885-5.142,.541-.214,1.652-1.139,.741-1.253Zm-33.998,7.905c-.342-.669-.684-1.325-1.31-2.507,2.478,1.125,4.714,.47,6.822,.94-1.78,1.025-4.173-1.253-5.512,1.567Zm68.78,147.131c-1.852-1.438-3.732-3.874-6.139-3.874-4.643,.029-8.218-3.205-12.648-3.504-.456-.043-.983-.043-1.011-.84-.1-4.743-3.105-7.876-7.421-7.392-1.552,.185-3.048-.726-3.404-1.41-.94-1.795-2.863-2.065-4.059-3.39-.598-.655-1.624-1.837-3.005-1.538-2.906,.627-5.669,.584-7.962-1.709-.94-.94-.954,.655-1.581,.598-.1,.399-.399,.541-.769,.527-.085,0-.171-.199-.271-.313,.299-.157,.598-.313,.883-.47,.057-.313,.157-.969-.214-.826-2.051,.798-4.501,.969-5.925,2.934-.897,1.239-1.367,2.806-3.119,.798-.584-.655-1.524-1.026-2.763-.385-2.464,1.282-4.558-.299-4.885-3.148-.199-1.652,1.51-3.262-.157-4.985-1.609-1.652-3.561-.342-5.227-.969-.171-.057-.342-.114-.555-.199,.399-2.079,.299-4.287,1.681-6.125,.285-.385,.328-.783-.171-1.097-1.296-.812-4.458,.413-4.928,1.909-.669,2.193-5.37,3.418-6.694,1.51-1.382-1.951-3.219-3.903-2.407-6.851,.399-1.396,1.168-2.948,.256-4.558-.128-.228,.484-1.139,.954-1.41,2.35-1.353,4.657-3.062,7.649-1.41,.612,.342,2.136,.698,2.151-.285,.043-1.367,.712-.897,1.382-1.139,2.08-.726,3.789,.912,5.797,.741,.826-.071,1.524,1.025,1.41,2.193-.142,1.41,.855,2.407,1.595,3.418,.271,.37,.598,1.31,1.353,.969,.684-.299,.912-1.082,.741-1.809-.342-1.51-.641-3.048-1.211-4.487-.726-1.809-.456-3.219,1.082-4.401,1.011-.783,1.951-1.609,3.119-2.265,1.567-.883,3.618-2.022,2.022-4.515-.242-.385-.171-.684,.157-.883,1.624-1.011,1.88-3.689,2.991-4.145,2.963-1.196,3.945-3.988,6.039-5.754,1.111-.926,2.72-1.239,4.23-1.894-.299,2.122,.114,2.806,.926,2.236,2.151-1.51,4.814-1.894,6.965-3.347,.655-.442,.142-.869-.057-1.325-.199-.47-.698-.897-.912-.484-1.139,2.364-2.607,.385-3.789,.228-1.182-.142-2.179-1.239-1.111-2.507,1.339-1.609-.157-1.709-.969-2.022-.527-.185-1.211,.043-1.823,.1-.199,.356-.627,.456-.826,.214-.271-.356,.256-.442,.427-.655,.513-.869,1.424-1.225,2.25-1.125,3.917,.47,7.592-.128,10.967-2.236,.014,0,.185,.242,.299,.399-1.424,1.837-2.507,3.86-3.376,6.424,2.891-.356,5.298,.598,7.791,1.253,1.068,.285,1.182-1.111,.94-1.268-1.296-.84,.028-4.259-3.119-3.176-.271-.869-1.894-.969-.997-2.635,.812-1.51,.527-4.216-.527-4.9-1.538-.997-2.336-3.262-4.771-3.134-.712,.043-2.136-1.325-2.136-2.037,.014-3.433-3.29-4.828-4.088-7.734-.869,.598-1.325,1.196-1.467,2.037-.242,1.339-1.581,2.051-2.436,1.88-1.068-.199-2.692-.812-2.72-2.25-.043-1.866-1.268-2.393-2.307-3.561-2.222-2.478-4.942-1.695-7.378-2.407-1.325-.399-1.966,.1-1.595,1.88,.456,2.051,1.296,4.401-1.011,6.11,3.447,1.766,4.045,4.7,1.168,5.911-2.55,1.068-1.78,2.436-1.524,4.031,.1,.598,.498,1.182,.456,1.766-.029,.527-.142,1.139-.897,1.439-.741,.285-.983,.014-1.51-.427-1.609-1.325-2.364-2.991-2.307-4.999,.014-.812,.057-1.481-.926-1.467-2.877,.071-5.17-1.382-7.506-2.749-2.094-1.225-5.412-.427-6.295-3.732-.029-.1-.299-.171-.47-.185-1.367-.185-1.353-1.04-1.168-2.136,.413-2.45,1.909-4.145,3.618-5.797,2.236-2.179,6.139-2.35,7.221-6.039,.057,1.496,.456,2.948-1.026,4.131,1.439-.655,2.535,1.581,3.148,.897,1.652-1.866,3.076-1.14,4.743-.399,.456,.214,1.111,.114,1.225-.598,.114-.684-.584-.641-.912-.94-1.738-1.609-4.387-1.923-5.954-4.102,.669-.142,1.168-.271,1.666-.342,3.134-.484,3.76-1.382,2.977-4.187-.057-.214-.128-.584-.014-.655,2.678-2.008-.285-2.051-.983-2.877,1.524-2.065,3.29,.698,5.185-.342,2.208-1.211,2.051,3.148,4.529,2.578-.271,.299-.456,.498-.669,.541-1.054,.171-1.894,.513-1.738,1.823,.114,.897,.869,.812,1.424,.769,1.268-.085,1.638-.94,1.282-2.037-.199-.598,0-.869,.456-.883,.385-.014,1.154,.299,1.14,.385-.185,1.481,1.624,.926,1.823,1.823,.356,1.552-1.239,1.837-1.951,2.692-.114,.128-.342,.313-.313,.399,.94,2.649-1.268,1.951-2.236,1.823-1.097-.157-1.88-.057-2.55,.769-.256,.313-.57,.783-.114,1.154,.812,.655,1.723,.712,2.706,.37,1.809-.598,3.333-.399,4.643,1.239,2.122,2.649,5.241,3.233,8.361,3.746,.313-1.082-.698-1.253-.94-1.866-.128-.157-.385-.399-.342-.47,.199-.356,.498-.199,.769-.043,.698,.342,1.41,.684,2.122,1.025,.684-2.906,.498-3.29-1.837-5.071-.912-.698-1.738-1.652-.698-3.005,.954,.627,1.837,1.111,2.464,2.022,.498,.698,1.367,1.282,2.236,.612,3.461-2.649,3.262-3.931-.826-5.811-.399-.185-.912-.271-1.154-.584-1.125-1.496-3.376-.456-4.472-1.795,.313-1.196,2.122-.427,1.752-1.154-.399-.783,.1-2.08-1.581-2.549-2.35-.669-3.974-3.262-6.894-2.891-.285,.029-.669-.684-1.011-1.025-2.863-2.849-5.868-5.185-10.326-4.672-1.325,.157-2.549,1.253-3.945,.57-2.963-1.453-5.298-.47-6.808,2.891-.94,2.065,.399,4.444,2.963,5.455,1.011,.399,1.937,1.011,2.891,1.524,.185,.47,.627,1.011,.513,1.396-.385,1.467-2.649,1.681-2.507,3.632,.014,.242-.527,0-.812-.228-1.182-.94,.356-2.265-.598-3.347-.911-1.026-2.108,.128-3.048-.769-1.524-1.453-2.25-3.418-3.532-4.971-1.666-2.022-1.282-2.749,1.182-3.262,1.268-.256,2.236-1.652,2.25-2.834,.014-1.026-1.453-.513-2.25-.712-.427-.1-.84-.242-1.268-.256-3.29-.1-4.045,.826-3.29,4.102,.242,1.054,.442,2.094-.94,2.535-.983,1.51-.142,3.062,.043,4.629q-2.008-.513-4.216,1.51c.47,.598,1.496,.299,1.823,1.125-.798,.029-.669,.954-1.168,1.211-1.866,1.011-6.324,.114-8.176-1.595,1.168-.826,2.635,.356,3.774-.584,1.695-.456-.399-1.453,.299-2.051,.527,.299,1.154,.741,1.567,.043,.37-.598-.271-.912-.726-1.139-.769-.385-1.567-.726-2.336-1.111-1.154-.556-2.891-4.373-2.407-5.441,.313-.669,1.225-1.282,.37-2.008-.783-.684-1.752-.641-2.564,.128,.185,.456,1.154,.627,.755,1.168-.456,.641-1.068-.214-1.652-.199q-1.154,.299-1.367,2.521c-.527-.783-1.054-1.439-1.909-1.695-.285-.057-.655-.256-.855-.157-.498,.271,.185,.669,0,1.025-1.524-.171-2.863-2.008-4.558-.484-.043,.071-.086,.128-.128,.199-.043-.029-.1-.071-.142-.1,.057-.043,.128-.085,.185-.128,.185-.641,.142-1.125-.484-1.581-3.319-2.436-7.378-2.193-11.124-3.02-.698-.157-2.578,.228-2.336,.826,.883,2.193-1.481,3.262-1.339,5.071-.413,.313-.798,.641,0,.94,.541,.271,1.296,.385,1.595,.812,1.282,1.837,2.763,1.182,4.301,.527,1.367-.584,1.439-2.549,3.062-2.863-.812,3.062,.897,5.113,3.931,4.7,1.453-.456,2.891-.228,4.928,.043-1.909,1.268-3.49,.669-4.928,.855-.741,.057-1.795-.442-2.051,.556-.228,.869,.912,1.139,1.382,1.723,.826,1.025,1.795,.171,2.678,.342,.399,.085,.641,.271,.57,.684-.043,.199-.199,.641-.456,.385-1.624-1.567-3.746-.413-5.626-1.111-2.179-.812-4.458-2.806-7.079-.926-.912-2.065-1.994-.883-3.119-.214-.085,.043-.57-.57-.869-.897-.513-.556-.755-1.41-1.681-1.567-.527,.883-.427,3.076-2.336,1.082-.185-.199-1.025,.085-1.481,.299-2.393,1.182-5.227,.94-7.549,2.379-.84,.513-1.624-.285-2.436-.498-2.607-.684-5.014-1.894-7.891-1.937-3.247-.029-6.652-.356-9.728-1.196-3.404-.94-6.652-2.079-9.97-.598-1.738,.769-4.116,.57-5.128,2.592-.669,1.353-1.567,2.008-3.034,2.037-.598,.014-1.31,0-1.467,.798-.185,.94,.641,1.125,1.225,1.467,1.894,1.125,3.803,2.236,5.711,3.333-1.011,1.011-2.478,1.139-3.105,.313-.897-1.182-1.695-.627-2.45-.342-1.125,.413-2.136,1.097-3.191,1.652,1.581,3.02,4.33,3.091,7.065,2.649,.954-.142,1.538-.627,1.937,.641,.484,1.595-.812,1.196-1.51,1.41-.57,.171-.897,.726-1.624,.741-1.481,.028-3.646,2.193-3.504,3.319,.214,1.738,2.592,3.76,4.259,3.333,.983-.256,1.082,.029,1.054,.741-.043,1.424,.299,1.709,1.866,1.367,1.225-.256,3.589,.271,3.846,.983,.541,1.638-1.467,2.165-2.564,3.119-1.41,1.239-3.618,1.139-4.601,2.948,.499,.228,.983,.128,1.524,.043,3.632-.598,6.238-3.077,9.144-4.971,.37-.285,.755-.413,1.139-.043-.285,.114-.584,.214-.869,.328,.128,1.068,.741,1.667,1.766,1.31,.783-.271,1.353-.812,1.567-1.866,.285-1.467-.655-.883-1.225-1.111-.769-.299,.014-1.054-.356-1.681-.299-.541,.869-.826,1.367-1.225,.513-.399,.812,.484,1.325,.456-.142,.413-.612,1.196,.342,.855,1.496-.541,3.518-.769,4.088-2.336,.456-1.268,1.552-.94,1.695-.812,2.507,2.193,5.811,1.211,8.617,2.265,1.795,.684,3.02,2.336,4.985,2.578,.541,1.595,1.239,3.376,2.749,3.96,2.065,.798,2.051,2.421,2.464,3.988,0,.028-.128,.1-.185,.157-.014,.014,.014,.057,.014,.057,1.253-.798,.769-2.336,1.41-3.404,1.239,.94,1.695,2.336,1.809,3.746,.057,.826,.142,.997,.954,1.026,2.35,.1,2.906,1.98,2.493,3.603-.37,1.453-.185,1.852,1.054,2.478,3.076,1.609,4.259,4.173,3.917,7.734-.157,1.609-.47,3.219-.513,4.871-.1,3.76,2.065,6.438,3.646,9.4,.769,1.467,1.723,2.963,3.718,3.276,.911,.142,1.624,.798,2.122,1.78,1.04,2.065,1.624,4.458,3.732,5.868,.285,.185,.584,.641,.299,.869-1.638,1.31,.071,1.524,.669,1.98,.598,.47,1.809,.456,1.866,1.282,.185,2.421,2.379,2.849,4.074,3.931-1.296-2.208-2.592-4.415-3.888-6.637-.855-.726-1.154-1.709-1.31-2.763-.399-.114-.897-.128-1.211-.385-.484-.385-.669-.997-.612-1.638,.029-.442,.285-.513,.698-.456,.684,.114,1.068,.527,1.253,1.154,.1,.328,.171,.669,.242,1.011,.555,.855,1.125,1.723,1.681,2.578,2.678,1.553,3.817,4.586,6.267,6.395,1.382,1.026,2.265,2.407,1.923,4.33-.171,.926,.328,1.609,1.182,2.122,3.091,1.852,6.367,3.262,9.785,4.33,.641,.199,1.325,.499,2.022,.057,1.396-.883,2.635-.328,3.49,.726,1.396,1.723,3.404,2.293,5.298,2.564,1.837,.256,3.162,1.296,3.632,2.549,1.296,3.504,4.914,3.575,7.236,5.498,.399,.342,.855,.157,1.054-.328,1.182-3.105,1.795-1.339,2.649,.228,1.31,2.364,1.709,5.911,.214,6.737-4.031,2.265-3.02,6.552-4.273,9.899-.242,.627,.157,1.923,.698,2.322,1.923,1.467,2.578,3.618,3.66,5.583,1.88,3.433,3.091,7.421,7.649,8.674,1.396,.385,2.236,1.966,2.578,3.66,.399,2.065-.085,4.017-.328,5.982-.669,5.27-1.068,10.64-2.535,15.696-.883,3.062-1.139,6.167-1.951,9.187-.1,.37-.199,.755,.114,.954,2.649,1.78,.655,4.088,.655,6.139-.014,.684,.028,2.35-1.766,1.51-.185-.085-.911,.527-1.097,.954-.399,.94,.641,.442,.883,.755,.541,.684,.57,1.453,.484,2.35-.313,2.948-.142,5.754,3.162,7.136,.271,.114,.456,.456,.684,.698-2.322,1.723,1.695,1.738,.926,3.247-.128,.256,6.21,.612,7.321-.142-.499-.171-.883-.313-1.282-.456-2.379-.84-2.493-3.162-3.29-5.028-.584-1.353,.598-1.894,1.196-2.82,.627-.954,1.211-1.752,2.122-2.493,1.011-.826,1.467-2.208-.157-2.82-2.079-.798-.94-2.25-.256-2.364,2.592-.456,1.595-3.803,3.888-4.373,.385-.1,.271-1.239-.356-1.097-1.296,.271-1.424-.328-1.14-1.211,.442-1.339,1.054,.142,1.624-.014,.684-.185,1.752,.271,1.723-1.025-.057-2.108,1.211-2.279,2.934-2.507,3.789-.513,4.23-1.225,4.031-4.985-.057-1.196,.641-1.296,1.496-1.154,1.823,.328,2.948-.541,3.903-1.994,.84-1.296,2.108-2.364,2.934-3.575,1.325-1.951,3.504-3.831,3.233-6.352-.214-1.951,.57-2.849,1.923-3.433,1.752-.755,3.304-2.165,5.398-2.037,1.14,.071,1.866-.726,2.336-1.453,1.439-2.279,2.891-4.757,2.792-7.463-.128-3.831,1.524-6.538,4.159-8.987,1.795-1.666,2.222-4.415,.669-5.626Zm-79.249-119.614c1.296,0,.071,1.709,1.225,1.937-.47,1.125-1.496,1.125-2.364,1.282-.228,.043-.556-.413-.826-.655,1.837,.029,.342-2.564,1.966-2.564Zm-37.345,7.449c2.35-.755,4.7-1.609,6.694,.612-2.293,2.635-4.401-.541-6.694-.612Zm14.086-3.489c-.983,.014-2.549,.456-2.607-.855-.043-.755,1.581-.926,2.678-.755,.755,.114,1.609,.085,2.322-.157,1.966-.669,2.72,.328,2.991,2.265-1.681-1.923-3.589-.498-5.384-.498Zm350.571,122.593c-2.631-.739-4.961-.737-6.466-3.085-.734-1.145-2.315-1.771-3.311,.149-.789,1.519-2.588,1.302-3.156,.749-1.4-1.363-3.007-1.336-4.75-1.381,1.596-2.767,1.211-3.839-1.928-4.694-1.282-.349-2.334-1.603-3.944-.982-.699,.269-.82-.764-1.148-1.219-.343-.475-.329-1.297-.742-1.612-.856-.653-1.992-.993-1.755-2.414,.045-.272,.193-.332,.325-.087,1.063,1.974,4.656-1.461,4.918,2.346,.105,1.522,.704,2.429,2.232,.835,1.305-1.361,2.666-1.609,4.622-.719,3.485,1.585,7.074,2.904,10.068,5.386,.197,.163,.613,.342,.592,.448-.667,3.421,2.933,3.766,4.441,6.282Zm-174.957-151.923c2.75,.659,4.134,3.544,6.942,4.2-.998,1.011-2.011,1.752-3.502,1.378-.742-.186-1.798,.25-1.33-1.368,.21-.727-.803-1.531-1.704-1.763-1.026-.265-.861,.903-1.362,1.308-.526,.426-.369,1.398-1.162,1.644-1.15,.357-.356,3.812-2.861,1.866-1.086-.844-2.877-1.003-3.049-2.861-.115-1.244-1.361-1.487-2.094-2.153-1.028-.934-1.533-2.123-1.207-3.281,.315-1.12,1.67-.719,2.57-.697,2.577,.063,5.082,.038,7.17-1.843,.149-.135,.869-.154,1.205-.086,3.164,.641,6.429-.444,9.575,.668,1.528,.54,1.081,.949,.218,1.723-2.852,2.561-5.897,1.133-8.911,.524-.396-.276-.881-.74-1.219-.093-.275,.527,0,.965,.72,.832Zm-23.839,61.178c.442-.456,.755-1.524,.199-1.567-2.265-.199-1.966-2.649-3.418-3.561-.983-.612-1.154-2.122-2.307-2.72,.826-1.496,2.265-3.205-1.168-3.062,.128-.513,.256-1.04,.385-1.552-.029,.043-.029,.085-.057,.085-.413,0-.855,.071-1.239-.043-1.638-.47-1.467,1.709-2.763,1.837-.556,.057-1.681,.142-.285,1.282,1.04,.84,.855,2.464-.954,3.077-2.208,.755-3.005,2.008-2.991,4.387,0,.299-.271,.627-.484,.869-.385,.413-.741,.84-.242,1.339,.37,.385,.94,.627,1.439,.299,1.524-.983,4.116-.84,3.746-3.817-.1-.812,.741-1.695,1.595-1.88,.698-.157,1.524,.043,2.008,.897,.612,1.082-.142,1.31-.84,1.723-.199,.114-.114,.669-.299,.883-1.196,1.382,.612,3.66-1.609,4.771,3.219-.911,6.367-1.082,9.514-1.253,.199-.157,.385-.313,.57-.47-1.025-.1-2.151-.142-.798-1.524Zm-9.415-5.484c-.128-.014-.242-.1-.356-.157l.185-.185c.114,.057,.228,.128,.342,.185-.057,.057-.128,.171-.171,.157Zm165.36,74.282c-1.963,1.467-2.699,2.92-1.178,5.178,.55,.816-1.447,1.623-1.519,3.025-.032,.615-.698,1.478-1.059,2.247-.555,1.183-1.077,3.215-3.061,1.175-.278-.286-.994-.171-1.51-.198-3.272-.177-5.207-1.909-5.437-4.989-.049-.659,.076-1.724,.809-1.73,2.966-.023,4.152-3.509,7.08-3.499,.113,0,.274-.227,.334-.379,.486-1.222,1.032-2.88,2.272-2.906,1.04-.021,2.108,1.285,3.269,2.076Zm-.168,18.512c-1.738,.826-3.19,.37-4.942,.014-2.777-.556-5.683-.342-8.517-1.097-1.809-.47-3.632-.014-4.8-2.35-.498-1.011-2.678-1.353-3.96-2.521-1.966-1.78-2.891-4.145-4.358-6.167-1.097-1.51-2.136-2.92-3.561-4.145-.712-.598-2.293-1.595-1.453-2.364,.726-.655,2.849-.57,3.589,.684,.812,1.353,2.379,1.738,3.162,3.048,.142,.228,1.196,1.738,1.681-.071,.456,.399,.912,.783,1.367,1.182,.114,1.909,2.193,4.33,3.646,4.373,1.296,.057,1.296,.954,1.068,1.909-.171,.669-.285,1.367-.584,1.966-.627,1.268-.142,1.567,1.082,1.909,2.379,.684,4.8,.84,7.221,.997,1.196,.071,2.179,.242,3.077,1.339,.84,1.04,2.421,.783,3.732,.741,.84-.028,1.709-.442,2.549,.556Zm-81.562-125.549c-2.962,.584-5.339-.163-7.57-1.868-.596-.456-1.084-.966-.689-1.368,3.862-3.929,5.755-10.172,12.356-10.907,3.018-.336,5.853-1.115,8.644-2.271,.588-.243,1.94-.614,2.183,.65,.213,1.111-.841,1.288-1.682,1.616-3.557,1.389-7.52,1.685-10.701,4.114-1.947,1.487-3.578,3.355-4.886,5.273-1.432,2.1,1.178,3.192,2.345,4.76Zm-10.925,130.168c.983,2.313,1.769,3.963,.761,6.26-1.279,2.915-1.947,6.1-2.845,9.179-.793,2.715-2.281,4.015-3.954,3.388-1.475-.553-2.6-3.863-1.926-5.715,.087-.238,.257-.461,.435-.647,1.896-1.978-1.551-5.424,1.908-6.96q3.134-1.391,5.622-5.504Zm112.855-64.095c.246,1.151,.423,1.814-.899,2.246-1.245,.407-2.997,.656-3.24,2.591-.056,.448-.621,.598-1.088,.509-.509-.098-.885-.634-.655-.943,.787-1.057-1.659-1.69-.352-2.565,1.641-1.098,2.822-2.934,4.964-3.24,4.91-.701,7.178-2.775,8.406-7.474,.22-.843,.984-1.425,.023-2.354-.643-.622,.051-1.504,.58-1.744,1.723-.781,1.642-2.247,1.594-3.98,2.011,.852,3.352,3.583,5.993,1.759-1.332,2.226-2.586,4.203-5.729,3.477-1.322-.305-1.1,.779-.592,1.48,2.433,3.361-1.145,6.14-.886,9.293,.032,.393-.618,.449-1.019,.617-1.665,.697-3.592,.391-5.13,1.807-1.14,1.049-.919-.956-1.97-1.478Zm-318.505-79.537c-.071-.983-1.097-.726-1.923-.584-.954,.171-1.738-.228-1.937-1.296-.114-.684-.328-1.253-1.154-1.04-.698,.171-1.51,.655-1.353,1.367,.726,3.176-.712,1.424-2.022,1.139-1.823-.399-3.02-3.247-5.683-1.154,.071-.556,.057-.812,.128-1.054,.627-1.909,.684-2.464-1.951-2.122-2.678,.342-4.173,2.464-6.552,2.948-.541,.1-.669,.527-.641,.983,.071,.798,.726,.47,1.182,.598,2.051,.627,4.131,1.025,6.182,1.809,1.951,.769,3.917,2.25,5.968,2.208,2.706-.043,5.227-1.681,8.133-1.453,1.253,.1,1.695-1.396,1.624-2.35Zm-15.881,.328c-.214-.84-.299-1.496,.726-1.766,.498,.84-.114,1.239-.726,1.766Zm385.988,175.278c1.543,.413,2.205,1,2.809,2.317,.583,1.272,1.784,3.188,4.049,2.289,.345-.137,.714-.204,.936,.149,.262,.417,.159,.964-.19,1.182-2.004,1.252-1.611,5.125-5.154,4.713-.198-.023-.576,.45-.67,.753-.834,2.699-3.856,3.735-4.781,6.373-.542,1.546-2.605,.716-3.403,2.019-.157,.257-.727,.109-.465-.399,.701-1.359-2.689-.608-1.17-2.309,.988-1.106,1.942-2.228,3.278-2.993,1.036-.593,2.098-1.202,2.673-2.413,.726-1.53,1.588-2.999,3.721-1.801,.458,.257,1.032,.291,1.317-.367,.253-.585,.012-1.008-.461-1.348-.393-.282-1.266-.533-.812-1.069,2.265-2.67-.259-4.211-1.302-6.11-.12-.219-.181-.47-.374-.988Zm-261.113-149.145c.313-.485,1.068,.049,1.318-.68-.541-.878-1.432,.229-2.013-.303,1.406-2.894,1.421-2.911,3.707-.928,.352,.305,.579,.292,.839,.054,1.657-1.522,3.91-.558,5.828-1.462,1.71-.806,2.907,1.256,3.619,2.43,.549,.905-.945,1.667-1.939,2.297-3.062,1.941-6.223,2.142-9.568,1.04-.207-.068-.397-.187-.594-.282,1.818-1.927-1.039-1.324-1.197-2.165Zm163.733-35.078l.028,.029,.014-.057c-.014,.014-.029,.014-.043,.028Zm-.199-1.666c.498-1.182-.185-1.88-1.211-1.567-1.609,.498-1.809-.598-2.265-1.553,0-.328-.014-.655-.014-.997-2.336-1.752-4.544-1.41-6.865,1.082,.014,.142,0,.285-.014,.427,1.424,1.752-1.239,.499-.911,1.667,1.709,1.154,3.846,1.98,6.011,2.549,1.78,.484,3.646,1.268,5.469,.057-.413-.513-.484-1.025-.199-1.666Zm-7.065-1.496c.014-.071,0-.157,.043-.199,.028-.043,.1-.029,.157-.043,.029,.057,.057,.128,.071,.185-.085,.014-.185,.043-.271,.057Zm40.614,126.283c-.171,.003-.352-.031-.511,.013-1.298,.357-2.684,1.486-3.266-1.013-.417-1.788-1.788-3.236-2.722-4.798-1.283-2.145,.272-3.727,.258-5.561-.003-.453,.44-.813,.928-.67,.55,.16,1.265,.155,1.493,.858,.133,.41,.376,.986,.206,1.262-1.747,2.825-.948,3.841,2.27,4.435,.866,.16,2.783,2.747,1.829,5.029l.056-.065c-.365,.02-.65,.121-.584,.577l.044-.067Zm-294.083-103.603c-.035-.081-.07-.233-.104-.232-.655,.007-6.417-1.161-6.963-1.426-1.535-.744-1.192-.818-.165-2.221,.791-1.081,1.126-1.986,2.711-2.164,2.963-.333,4.51,.909,4.48,3.93-.007,.706-.714,1.442,.022,2.138l.019-.023Zm294.097,113.824c.063,2.085-.859,2.452-2.02,2.498-.521,.021-1.077-.213-1.564-.101-.983,.226-2.883-.77-2.787,.8,.12,1.947,1.77,.322,2.72,.372,.725,.038,1.478-.203,1.567,.816,.11,1.254-.768,.491-1.245,.55-.708,.089-1.122,.341-.828,1.187,.314,.905,1.962,1.905,.436,2.747-1.688,.933-1.413-1.462-2.518-1.907-.057,.92-.089,1.869-.185,2.812-.05,.49-.395,.792-.897,.709-.208-.034-.564-.389-.537-.447,.919-1.926-1.143-3.699-.093-5.789,1.063-2.117,1.742-4.058,4.71-2.886,1.093,.431,2.122-.186,3.24-1.359Zm-87.128-139.062c1.14-.583,2.084-1.654,3.578-.239,.514,.487,2.043-.286,3.016-.876,.45-.273,1.104-.141,1.25,.515,.1,.453-.241,.951-.695,.939-4.048-.101-7.698,1.817-11.638,2.233-.115,.012-.252-.184-.379-.283-.06-.99,1.178-.515,1.405-1.294-1.322-.179-2.613-.353-4.266-.576,1.823-1.578,3.67-2.415,5.681-2.681,1.168-.154,2.009,.51,1.362,1.932,.1,.214,.199,.428,.298,.641l.388-.312Zm113.888,15.153c-.714,1.676-2.075,1.89-3.307,2.069-1.584,.231-3.158-.018-4.804,.549-1.109,.382-2.839-.382-2.97-2.117-.114-1.501,1.151-2.589,2.3-2.029,1.982,.966,3.979-.21,5.859,.585,.87,.368,1.802,.588,2.923,.944Zm-330.888-11.144c1.589,1.594,4.878,.374,6.14,3.384,.463,1.104,.677,1.66-.845,1.505-.573-.058-1.113-.186-1.743,.192-.449,.27-2.077,1.138-1.165-.98,.214-.497-1.168-.75-1.9-.512-2.721,.886-1.483-2.415-2.992-2.785,.512-.843,1.395-.567,2.504-.805Zm25.654,107.722c1.753-2.12,4.053-1.867,6.041-1.255,2.39,.735,4.583,2.116,6.852,3.235,.396,.195,.779,.473,.593,1.019-.148,.433-.556,.374-.883,.352-1.43-.097-2.732,.156-4.092-1.147-2.258-2.163-5.166-3.241-8.511-2.203Zm245.152-106.037s-.01,.052-.009,.048c.151,.175,.374,.598,.543,.324,1.857-3.002,3.868-1.164,5.829-.206,.426,.208,1.142,.386,.919,1.059-.105,.317-.622,.624-1.001,.703-2.041,.424-4.166,.222-6.178,1.057-.845,.351-.908-.378-.566-1.106,.272-.577,1.487-.975,.462-1.879Zm-281.388,4.494c-1.53,.049-2.333-1.476-3.775-1.269-.093,.013-.368-.376-.336-.532,.08-.387,.498-.609,.801-.471,.962,.439,1.544,.996,1.744-.833,.063-.573,2.511-1.64,4.183-1.002,.488,.186,1.13,.565,.708,1.104-.662,.845-.303,2.336-1.699,2.673-.595,.143-1.199,.245-1.625,.331Zm342.816,189.548c.51,1.649,3.817-2.099,3.562,1.609-.101,1.465-.805,2.64-2.483,2.721-.834,.04-2.838-3.21-2.53-4.076,.209-.587,.68-.764,1.45-.254Zm-27.637-71.339c1.716,1.269,1.718,5.242-.039,5.979-.686,.288-1.673-.31-1.706-.712-.164-2.036-1.542-1.91-3.304-1.644,.892-1.251,1.769-1.52,2.811-1.619,.9-.086,1.943-.175,1.754-1.558l-.044,.067c.631,.249,.528-.244,.584-.577l-.056,.065Zm-257.868-11.943c-2.429,.946-4.91,1.314-7.517,.704,3.376-3.105,4.19-3.178,7.517-.704Zm256.641,36.93c-1.842-.903-3.543,.931-5.461,.132,1.757-.869,3.609-.68,5.375-.903,.677-.085,1.325,.549,1.93-.525,.662-1.177,.944,.097,1.357,.487,.867,.821-.043,.911-.47,1.132-.616,.319-1.388,.429-1.883,.866-.716,.634-1.685,1.611-2.282,.812-.726-.972,1.232-1.082,1.434-2.003Zm-96.77-152.659c-1.348,.754-2.795,.757-3.963,1.643-.529,.401-1.604,.261-2.116-.457-.423-.593,1.675-.77,.404-1.691-.058-.042-.168-.011-.254-.014,.826,.046,1.72,.317,2.461,.089,1.257-.386,2.483-1.854,3.468,.431Zm132.062,15.834c-2.256,1.755-4.178,1.149-6.102,.172-.414-.21-.745-.5-.556-1.009,.195-.523,.602-.425,1.072-.355,1.779,.268,3.607,.282,5.586,1.192Zm-92.083,115.712c-.014,.84-.313,1.723-1.196,1.752-.855,.014-1.524-.484-1.567-1.624-.043-1.296,.37-2.663-.47-3.874l.043-.043c1.88,.57,3.262,1.581,3.19,3.789Zm80.219-110.717c-.821,.365-1.705-.852-2.778-.398,.259-.851-.127-1.705-.029-2.508,.05-.407,.975-.472,1.246,.118,.478,1.039,1.557,.574,2.266,1.039,.448,.293,1.005,.44,.956,1.065-.078,.991-.884,.539-1.661,.685Zm53.348,5.021c-1.603,.882-3.301,.795-5.065,.704,1.397-2.398,3.2-2.634,5.065-.704Zm-80.303,82.17c-.58,.96-.251,2.619-1.555,3.198-.64,.284-1.145-.697-1.007-1.431,.224-1.189,.576-2.418,1.938-2.79,.549-.15,.631,.421,.624,1.022Zm36.066,40.823c1.626-.048,3.342,.225,4.372-1.521,.097-.164,.931-.137,1.171,.08,.401,.363-.006,.634-.345,.958-2.075,1.981-4.094,2.589-5.198,.482Zm-26.812-7.142c-1.351-.548-1.497-1.584-.98-2.747,.101-.227,1.091-.345,1.122-.274,.341,.784,1.246,1.621,.003,2.431-.125,.081-.095,.399-.138,.607l-.007-.017Zm-104.237-111.085c-.492,.87-1.401,.963-2.23,1.029-.483,.038-.988-.294-.755-1.008,.262-.803,.836-1.033,1.609-.922,.599,.085,1.223,.14,1.375,.902Zm107.628,115.819c-1.182-.824-2.689-.069-3.847-.959,1.433-.471,2.875-1.034,3.847,.959Zm74.964-103.513c1.439-.582,2.715-.522,3.791,.935-1.543,.372-2.63-.425-3.791-.935Zm-120.355-42.708c-.008-.332-.016-.663-.024-.995,.197,.112,.499,.179,.573,.345,.221,.503-.338,.449-.549,.65Zm32.51,86.467c-.214,.043-.541,.171-.612,.1-.199-.228,0-.413,.242-.499,.128,.128,.242,.256,.37,.399Zm-39.397-86.381c.01,.142,.007,.284-.009,.426l-.332-.092,.34-.334Zm48.895,141.418l-.113,.326c.036-.114,.071-.227,.107-.342l.006,.016Zm-72.623-107.509c-.883,1.723-2.25,3.091-4.558,2.493-.413-.114-.869-.071-2.022-.157,2.065-.527,3.518-.627,4.529-1.994,.883-1.196,1.609-1.894,.442-3.504-1.068-1.439,.313-3.504-.385-5.227,.128-.1,.242-.199,.37-.299,.798,.769,2.293,1.268,.926,2.806-.57,.627-.142,1.667,.228,1.923,1.652,1.225,1.097,2.735,.47,3.96Zm47.373-15.724c-.926,2.25-2.521,1.595-3.646,2.151-.071-.199-.157-.413-.228-.612,1.168-.456,2.322-.926,3.874-1.538Zm1.852-.755q-.071,.94-1.766,.812c-.071-1.011,.897-.869,1.396-1.239,.114,.142,.242,.285,.37,.427Zm-97.907,24.114c-.171,.356-.897,.228-1.211-.313,.128-.142,.256-.285,.385-.427,.214,.356,1.154,.114,.826,.741Zm-3.091-4.8c-.157,.157-.313,.313-.47,.484-.427-.285-1.14-.142-1.239-.869h-.014l-.043,.014c.014-.014,.029-.029,.043-.029,.726-.57,1.211,0,1.723,.399Zm4.159,36.847c.128,.37-.356,.256-.584,.328-.071-.071-.157-.142-.242-.214,.256-.285,.741-.342,.826-.114Zm97.295-56.574c0,.043-.299,.271-.456,.413-.128-.142-.256-.285-.37-.427,.285-.157,.57-.342,.826,.014Zm69.307,28.401c-.1-.1-.199-.214-.299-.313,.214-.071,.57-.228,.613-.171,.185,.299-.057,.413-.313,.484Zm-172.513-9.386c0,.085-.014,.185-.014,.285-.114-.071-.199-.142-.299-.199,.1-.028,.214-.057,.313-.085Zm.029,.313v.014l-.043,.028v-.071c.014,.014,.029,.029,.043,.029Zm-195.031,63.353c-.114,.114-.242,.214-.37,.313-.399-.114-.897-.128-1.211-.385-.484-.385-.669-.997-.612-1.638,.029-.442,.285-.513,.698-.456,.684,.114,1.068,.527,1.253,1.154,.1,.328,.171,.669,.242,1.011Zm1.681,2.578c-.242,.171-.499,.342-.741,.499-.855-.726-1.154-1.709-1.31-2.763,.128-.1,.256-.199,.37-.313,.555,.855,1.125,1.723,1.681,2.578Zm59.693-32.959c-.199,.356-.627,.456-.826,.214-.271-.356,.256-.442,.427-.655,.128,.142,.271,.285,.399,.442Zm-5.427,56.445c-.1,.399-.399,.541-.769,.527-.085,0-.171-.199-.271-.313,.299-.157,.598-.313,.883-.47,.043,.085,.1,.171,.157,.256Zm-110.712-71.714c-.285,.114-.584,.214-.869,.328-.1-.1-.185-.185-.271-.285,.37-.285,.755-.413,1.139-.043Zm53.526-32.916c-.043,.071-.086,.128-.128,.199-.043-.029-.1-.071-.142-.1,.057-.043,.128-.085,.185-.128l.086,.029Zm80.74-26.54c.077,.156,.21,.302,.202,.44-.008,.147-.15,.286-.233,.428-.073-.15-.202-.3-.201-.449,.001-.136,.144-.271,.232-.419Zm253.555,193.544c.049-.208,.062-.496,.378-.323,.051,.028-.079,.386-.124,.592-.086-.087-.171-.177-.254-.269Zm-271.568-144.728c-.142,.171-.285,.342-.427,.513-.128-.157-.385-.399-.342-.47,.199-.356,.498-.199,.769-.043Zm114.795-39.571c-.72,.132-.994-.305-.72-.832,.337-.647,.823-.183,1.219,.093-.166,.246-.333,.492-.499,.739Zm-33.429,55.353l.343,.186c-.058,.057-.128,.17-.171,.161-.123-.027-.234-.104-.35-.161l.179-.187Zm132.896-57.897l.073,.184-.281,.054c.013-.068,.008-.148,.044-.198,.025-.035,.107-.028,.164-.04Zm40.95,126.014c-.056,.333,.047,.827-.584,.577-.066-.457,.219-.557,.584-.577Zm-87.653-128.331l-.388,.312c-.099-.214-.198-.428-.298-.641,.228,.11,.457,.22,.686,.33Z" style="fill:url(#r);"/><polyline points="745.32 961.452 745.32 1052.09 649.425 1052.09" style="fill:none; stroke:url(#s); stroke-linecap:round; stroke-miterlimit:10; stroke-width:3px;"/><polyline points="758.603 963.405 758.603 1064.538 649.425 1064.538" style="fill:none; stroke:url(#t); stroke-linecap:round; stroke-miterlimit:10; stroke-width:3px;"/></svg>